SplineFontDB: 3.0
FontName: Exo-ExtraLight
FullName: Exo ExtraLight
FamilyName: Exo
Weight: Extra-Light
Copyright: Copyright (c) 2011 Natanael Gama (exo@ndiscovered.com), with Reserved Font Name "Exo"
Version: 1.00
ItalicAngle: 0
UnderlinePosition: -50
UnderlineWidth: 50
Ascent: 800
Descent: 200
sfntRevision: 0x00010000
LayerCount: 2
Layer: 0 1 "Back"  1
Layer: 1 1 "Fore"  0
XUID: [1021 528 1526483118 3051410]
FSType: 0
OS2Version: 4
OS2_WeightWidthSlopeOnly: 0
OS2_UseTypoMetrics: 1
CreationTime: 1317846267
ModificationTime: 1328305024
PfmFamily: 17
TTFWeight: 200
TTFWidth: 5
LineGap: 0
VLineGap: 0
Panose: 2 0 3 3 0 0 0 0 0 0
OS2TypoAscent: 202
OS2TypoAOffset: 1
OS2TypoDescent: -127
OS2TypoDOffset: 1
OS2TypoLinegap: 0
OS2WinAscent: 0
OS2WinAOffset: 1
OS2WinDescent: 54
OS2WinDOffset: 1
HheadAscent: 0
HheadAOffset: 1
HheadDescent: -54
HheadDOffset: 1
OS2SubXSize: 650
OS2SubYSize: 700
OS2SubXOff: 0
OS2SubYOff: 140
OS2SupXSize: 650
OS2SupYSize: 700
OS2SupXOff: 0
OS2SupYOff: 480
OS2StrikeYSize: 49
OS2StrikeYPos: 258
OS2Vendor: 'PfEd'
OS2CodePages: 20000093.00000000
OS2UnicodeRanges: a00000ef.4000204b.00000000.00000000
Lookup: 4 0 0 "'ordn' Ordinals lookup 0"  {"'ordn' Ordinals lookup 0 subtable"  } ['ordn' ('DFLT' <'dflt' > 'grek' <'dflt' > 'latn' <'dflt' > ) ]
Lookup: 1 0 0 "'smcp' Lowercase to Small Capitals lookup 1"  {"'smcp' Lowercase to Small Capitals lookup 1 subtable"  } ['smcp' ('DFLT' <'dflt' > 'grek' <'dflt' > 'latn' <'FRA ' 'dflt' > ) ]
Lookup: 1 0 0 "'c2sc' Capitals to Small Capitals in Latin lookup 2"  {"'c2sc' Capitals to Small Capitals in Latin lookup 2 subtable"  } ['c2sc' ('latn' <'dflt' > ) ]
Lookup: 4 0 0 "'dlig' Discretionary Ligatures lookup 3"  {"'dlig' Discretionary Ligatures lookup 3 subtable"  } ['dlig' ('DFLT' <'dflt' > 'grek' <'dflt' > 'latn' <'dflt' > ) ]
Lookup: 4 0 1 "'liga' Standard Ligatures lookup 4"  {"'liga' Standard Ligatures lookup 4 subtable"  } ['liga' ('DFLT' <'dflt' > 'grek' <'dflt' > 'latn' <'FRA ' 'dflt' > ) ]

StartChar: .notdef
Encoding: 0 -1 0
AltUni2: 000000.ffffffff.0
Width: 784
Flags: W
LayerCount: 2
Fore
SplineSet
657 506 m 1,0,-1
 405 266 l 1,1,-1
 657 25 l 1,2,-1
 657 506 l 1,0,-1
140 13 m 1,3,-1
 647 13 l 1,4,-1
 394 256 l 1,5,-1
 140 13 l 1,3,-1
127 22 m 1,6,-1
 383 266 l 1,7,-1
 127 507 l 1,8,-1
 127 22 l 1,6,-1
648 518 m 1,9,-1
 137 518 l 1,10,-1
 394 276 l 1,11,-1
 648 518 l 1,9,-1
113 0 m 1,12,-1
 113 531 l 1,13,-1
 671 531 l 1,14,-1
 671 0 l 1,15,-1
 113 0 l 1,12,-1
EndSplineSet
EndChar

StartChar: exclam
Encoding: 33 33 4
Width: 263
GlyphClass: 2
Flags: W
LayerCount: 2
Fore
SplineSet
101 16 m 2,0,-1
 101 76 l 2,1,2
 101 92 101 92 117 92 c 2,3,-1
 143 92 l 2,4,5
 159 92 159 92 159 76 c 2,6,-1
 159 16 l 2,7,8
 159 0 159 0 143 0 c 2,9,-1
 117 0 l 2,10,11
 101 0 101 0 101 16 c 2,0,-1
107 731 m 1,12,-1
 152 731 l 1,13,-1
 146 196 l 1,14,-1
 113 196 l 1,15,-1
 107 731 l 1,12,-1
EndSplineSet
Substitution2: "'smcp' Lowercase to Small Capitals lookup 1 subtable" exclam.smcp
EndChar

StartChar: quotedbl
Encoding: 34 34 5
Width: 302
GlyphClass: 2
Flags: W
LayerCount: 2
Fore
SplineSet
74 732 m 1,0,-1
 116 732 l 1,1,-1
 116 665 l 1,2,-1
 109 531 l 1,3,-1
 83 531 l 1,4,-1
 74 665 l 1,5,-1
 74 732 l 1,0,-1
186 732 m 1,6,-1
 228 732 l 1,7,-1
 228 665 l 1,8,-1
 221 531 l 1,9,-1
 195 531 l 1,10,-1
 186 665 l 1,11,-1
 186 732 l 1,6,-1
EndSplineSet
Substitution2: "'smcp' Lowercase to Small Capitals lookup 1 subtable" quotedbl.smcp
EndChar

StartChar: numbersign
Encoding: 35 35 6
Width: 665
GlyphClass: 2
Flags: W
LayerCount: 2
Fore
SplineSet
25 244 m 1,0,-1
 29 269 l 1,1,-1
 201 269 l 1,2,-1
 231 461 l 1,3,-1
 59 461 l 1,4,-1
 64 486 l 1,5,-1
 235 486 l 1,6,-1
 274 732 l 1,7,-1
 300 732 l 1,8,-1
 260 486 l 1,9,-1
 440 486 l 1,10,-1
 478 732 l 1,11,-1
 504 732 l 1,12,-1
 465 486 l 1,13,-1
 642 486 l 1,14,-1
 638 461 l 1,15,-1
 460 461 l 1,16,-1
 430 268 l 1,17,-1
 607 268 l 1,18,-1
 603 243 l 1,19,-1
 426 243 l 1,20,-1
 388 0 l 1,21,-1
 362 0 l 1,22,-1
 401 243 l 1,23,-1
 221 244 l 1,24,-1
 183 0 l 1,25,-1
 158 0 l 1,26,-1
 196 244 l 1,27,-1
 25 244 l 1,0,-1
226 269 m 1,28,-1
 405 268 l 1,29,-1
 435 461 l 1,30,-1
 256 461 l 1,31,-1
 226 269 l 1,28,-1
EndSplineSet
Substitution2: "'smcp' Lowercase to Small Capitals lookup 1 subtable" numbersign.smcp
EndChar

StartChar: dollar
Encoding: 36 36 7
Width: 581
GlyphClass: 2
Flags: W
LayerCount: 2
Fore
SplineSet
68 494 m 2,0,-1
 68 560 l 1,1,2
 69 664 69 664 119 701 c 128,-1,3
 169 738 169 738 260 738 c 0,4,5
 265 738 265 738 270 738 c 1,6,-1
 270 824 l 1,7,-1
 301 824 l 1,8,-1
 301 736 l 1,9,10
 369 731 369 731 484 717 c 1,11,-1
 484 689 l 1,12,-1
 262 697 l 2,13,14
 255 697 255 697 248 697 c 0,15,16
 182 697 182 697 145.5 669 c 128,-1,17
 109 641 109 641 109 560 c 2,18,-1
 109 494 l 2,19,20
 109 429 109 429 143 404.5 c 128,-1,21
 177 380 177 380 241 380 c 2,22,-1
 354 380 l 2,23,24
 447 380 447 380 480.5 338 c 128,-1,25
 514 296 514 296 514 224 c 2,26,-1
 514 156 l 2,27,28
 514 52 514 52 447 18 c 0,29,30
 395 -8 395 -8 315 -8 c 0,31,32
 308 -8 308 -8 301 -8 c 1,33,-1
 301 -89 l 1,34,-1
 270 -89 l 1,35,-1
 270 -6 l 1,36,37
 123 4 123 4 87 10 c 1,38,-1
 87 39 l 1,39,40
 173 33 173 33 317 33 c 0,41,42
 388 33 388 33 430.5 59 c 128,-1,43
 473 85 473 85 473 156 c 2,44,-1
 473 224 l 2,45,46
 473 282 473 282 445.5 310 c 128,-1,47
 418 338 418 338 354 338 c 2,48,-1
 242 338 l 2,49,50
 134 338 134 338 98 389 c 0,51,52
 68 431 68 431 68 494 c 2,0,-1
EndSplineSet
Substitution2: "'smcp' Lowercase to Small Capitals lookup 1 subtable" dollar.smcp
EndChar

StartChar: percent
Encoding: 37 37 8
Width: 954
GlyphClass: 2
Flags: W
LayerCount: 2
Fore
SplineSet
52 474 m 2,0,-1
 52 607 l 2,1,2
 52 673 52 673 80 702.5 c 128,-1,3
 108 732 108 732 181 732 c 2,4,-1
 282 732 l 2,5,6
 353 732 353 732 381 702.5 c 128,-1,7
 409 673 409 673 409 607 c 2,8,-1
 409 474 l 2,9,10
 409 408 409 408 381 378.5 c 128,-1,11
 353 349 353 349 280 349 c 2,12,-1
 179 349 l 2,13,14
 108 349 108 349 80 378.5 c 128,-1,15
 52 408 52 408 52 474 c 2,0,-1
84 474 m 2,16,17
 84 421 84 421 105.5 401 c 128,-1,18
 127 381 127 381 179 381 c 2,19,-1
 280 381 l 2,20,21
 335 381 335 381 356 400.5 c 128,-1,22
 377 420 377 420 377 474 c 2,23,-1
 377 607 l 2,24,25
 377 659 377 659 356.5 679.5 c 128,-1,26
 336 700 336 700 282 700 c 2,27,-1
 181 700 l 2,28,29
 126 700 126 700 105 681 c 128,-1,30
 84 662 84 662 84 607 c 2,31,-1
 84 474 l 2,16,17
237 0 m 1,32,-1
 675 732 l 1,33,-1
 713 732 l 1,34,-1
 275 0 l 1,35,-1
 237 0 l 1,32,-1
546 128 m 2,36,-1
 546 261 l 2,37,38
 546 327 546 327 574 356.5 c 128,-1,39
 602 386 602 386 675 386 c 2,40,-1
 776 386 l 2,41,42
 847 386 847 386 875 356.5 c 128,-1,43
 903 327 903 327 903 261 c 2,44,-1
 903 128 l 2,45,46
 903 62 903 62 875 32.5 c 128,-1,47
 847 3 847 3 774 3 c 2,48,-1
 673 3 l 2,49,50
 602 3 602 3 574 32.5 c 128,-1,51
 546 62 546 62 546 128 c 2,36,-1
578 128 m 2,52,53
 578 75 578 75 599.5 55 c 128,-1,54
 621 35 621 35 673 35 c 2,55,-1
 774 35 l 2,56,57
 829 35 829 35 850 54.5 c 128,-1,58
 871 74 871 74 871 128 c 2,59,-1
 871 261 l 2,60,61
 871 313 871 313 850.5 333.5 c 128,-1,62
 830 354 830 354 776 354 c 2,63,-1
 675 354 l 2,64,65
 620 354 620 354 599 335 c 128,-1,66
 578 316 578 316 578 261 c 2,67,-1
 578 128 l 2,52,53
EndSplineSet
Substitution2: "'smcp' Lowercase to Small Capitals lookup 1 subtable" percent.smcp
EndChar

StartChar: ampersand
Encoding: 38 38 9
Width: 647
GlyphClass: 2
Flags: W
LayerCount: 2
Fore
SplineSet
42 207 m 0,0,1
 42 296 42 296 123 366 c 2,2,-1
 209 439 l 1,3,-1
 146 524 l 2,4,5
 112 571 112 571 112 610 c 0,6,7
 112 658 112 658 144 689 c 128,-1,8
 176 720 176 720 214.5 726.5 c 128,-1,9
 253 733 253 733 316 733 c 128,-1,10
 379 733 379 733 482 719 c 1,11,-1
 482 693 l 1,12,-1
 279 693 l 2,13,14
 231 693 231 693 197.5 676 c 128,-1,15
 164 659 164 659 156 624 c 0,16,17
 154 618 154 618 154 612 c 0,18,19
 154 581 154 581 186 538 c 2,20,-1
 456 171 l 1,21,-1
 597 310 l 1,22,-1
 610 297 l 1,23,-1
 548 203 l 1,24,-1
 482 139 l 1,25,-1
 584 0 l 1,26,-1
 534 0 l 1,27,-1
 452 111 l 1,28,-1
 380 44 l 1,29,30
 330 -5 330 -5 258 -5 c 0,31,32
 153 -5 153 -5 87 82 c 1,33,34
 42 145 42 145 42 207 c 0,0,1
257 36 m 0,35,36
 307 36 307 36 349 72 c 1,37,-1
 426 144 l 1,38,-1
 232 404 l 1,39,-1
 154 339 l 2,40,41
 81 279 81 279 81 207 c 0,42,43
 81 155 81 155 121 106 c 1,44,45
 175 36 175 36 257 36 c 0,35,36
EndSplineSet
AlternateSubs2: "'salt' Stylistic Alternatives in Latin lookup 16 subtable" ampersand.salt
Substitution2: "'smcp' Lowercase to Small Capitals lookup 1 subtable" ampersand.smcp
EndChar

StartChar: quotesingle
Encoding: 39 39 10
Width: 137
GlyphClass: 2
Flags: W
LayerCount: 2
Fore
SplineSet
48 732 m 1,0,-1
 90 732 l 1,1,-1
 90 665 l 1,2,-1
 83 531 l 1,3,-1
 56 531 l 1,4,-1
 48 665 l 1,5,-1
 48 732 l 1,0,-1
EndSplineSet
Substitution2: "'smcp' Lowercase to Small Capitals lookup 1 subtable" quotesingle.smcp
EndChar

StartChar: parenleft
Encoding: 40 40 11
Width: 321
GlyphClass: 2
Flags: W
LayerCount: 2
Fore
SplineSet
109 149 m 128,-1,1
 92 238 92 238 92 320.5 c 128,-1,2
 92 403 92 403 108.5 486 c 128,-1,3
 125 569 125 569 148 633 c 0,4,5
 199 770 199 770 234 832 c 1,6,-1
 251 860 l 1,7,-1
 297 860 l 1,8,9
 274 824 274 824 243 757.5 c 128,-1,10
 212 691 212 691 190 631 c 128,-1,11
 168 571 168 571 150.5 486.5 c 128,-1,12
 133 402 133 402 133 322 c 128,-1,13
 133 242 133 242 150 156 c 128,-1,14
 167 70 167 70 191 7 c 0,15,16
 241 -124 241 -124 280 -184 c 2,17,-1
 297 -210 l 1,18,-1
 251 -210 l 1,19,-1
 234 -184 l 2,20,21
 223 -168 223 -168 195.5 -113 c 128,-1,22
 168 -58 168 -58 147 1 c 128,-1,0
 126 60 126 60 109 149 c 128,-1,1
EndSplineSet
Substitution2: "'case' Case-Sensitive Forms lookup 18 subtable" parenleft.alt
Substitution2: "'c2sc' Capitals to Small Capitals in Latin lookup 2 subtable" parenleft.smcp
Substitution2: "'smcp' Lowercase to Small Capitals lookup 1 subtable" parenleft.smcp
EndChar

StartChar: parenright
Encoding: 41 41 12
Width: 321
GlyphClass: 2
Flags: W
LayerCount: 2
Fore
SplineSet
170.5 154.5 m 128,-1,1
 188 242 188 242 188 322 c 128,-1,2
 188 402 188 402 171 485 c 128,-1,3
 154 568 154 568 130 632 c 0,4,5
 78 772 78 772 42 832 c 2,6,-1
 25 860 l 1,7,-1
 70 860 l 1,8,9
 76 849 76 849 87 830 c 128,-1,10
 98 811 98 811 125.5 751.5 c 128,-1,11
 153 692 153 692 174 632 c 128,-1,12
 195 572 195 572 212 487.5 c 128,-1,13
 229 403 229 403 229 320.5 c 128,-1,14
 229 238 229 238 212.5 150 c 128,-1,15
 196 62 196 62 173 0 c 0,16,17
 126 -127 126 -127 86 -186 c 2,18,-1
 70 -210 l 1,19,-1
 25 -210 l 1,20,21
 48 -177 48 -177 79 -114 c 128,-1,22
 110 -51 110 -51 131.5 8 c 128,-1,0
 153 67 153 67 170.5 154.5 c 128,-1,1
EndSplineSet
Substitution2: "'case' Case-Sensitive Forms lookup 18 subtable" parenright.alt
Substitution2: "'c2sc' Capitals to Small Capitals in Latin lookup 2 subtable" parenright.smcp
Substitution2: "'smcp' Lowercase to Small Capitals lookup 1 subtable" parenright.smcp
EndChar

StartChar: asterisk
Encoding: 42 42 13
Width: 459
GlyphClass: 2
Flags: W
LayerCount: 2
Fore
SplineSet
62 583 m 1,0,-1
 62 606 l 1,1,-1
 203 618 l 1,2,-1
 205 578 l 1,3,-1
 62 583 l 1,0,-1
138 411 m 1,4,-1
 168 545 l 1,5,-1
 209 537 l 1,6,-1
 159 404 l 1,7,-1
 138 411 l 1,4,-1
196 721 m 1,8,-1
 218 729 l 1,9,-1
 287 608 l 1,10,-1
 248 590 l 1,11,-1
 196 721 l 1,8,-1
228 489 m 1,12,-1
 250 525 l 1,13,-1
 366 439 l 1,14,-1
 353 421 l 1,15,-1
 228 489 l 1,12,-1
272 558 m 1,16,-1
 387 639 l 1,17,-1
 399 619 l 1,18,-1
 300 527 l 1,19,-1
 272 558 l 1,16,-1
EndSplineSet
Substitution2: "'smcp' Lowercase to Small Capitals lookup 1 subtable" asterisk.smcp
EndChar

StartChar: plus
Encoding: 43 43 14
Width: 519
GlyphClass: 2
Flags: W
LayerCount: 2
Fore
SplineSet
62 336 m 1,0,-1
 62 376 l 1,1,-1
 238 376 l 1,2,-1
 238 554 l 1,3,-1
 279 554 l 1,4,-1
 279 376 l 1,5,-1
 458 376 l 1,6,-1
 458 336 l 1,7,-1
 279 336 l 1,8,-1
 279 158 l 1,9,-1
 238 158 l 1,10,-1
 238 336 l 1,11,-1
 62 336 l 1,0,-1
EndSplineSet
EndChar

StartChar: comma
Encoding: 44 44 15
Width: 204
GlyphClass: 2
Flags: W
LayerCount: 2
Fore
SplineSet
74 17 m 2,0,-1
 74 76 l 2,1,2
 74 94 74 94 91 94 c 2,3,-1
 115 94 l 2,4,5
 131 94 131 94 131 76 c 2,6,-1
 131 -28 l 2,7,8
 131 -54 131 -54 118.5 -65.5 c 128,-1,9
 106 -77 106 -77 94 -77 c 1,10,-1
 90 -76 l 1,11,-1
 77 -75 l 1,12,-1
 77 -60 l 1,13,14
 99 -60 99 -60 99 -40 c 2,15,-1
 99 0 l 1,16,-1
 91 0 l 2,17,18
 74 0 74 0 74 17 c 2,0,-1
EndSplineSet
EndChar

StartChar: hyphen
Encoding: 45 45 16
Width: 343
GlyphClass: 2
Flags: W
LayerCount: 2
Fore
SplineSet
25 270 m 1,0,-1
 25 310 l 1,1,-1
 319 310 l 1,2,-1
 319 270 l 1,3,-1
 25 270 l 1,0,-1
EndSplineSet
Substitution2: "'case' Case-Sensitive Forms lookup 18 subtable" hyphen.alt
Substitution2: "'c2sc' Capitals to Small Capitals in Latin lookup 2 subtable" hyphen.smcp
Substitution2: "'smcp' Lowercase to Small Capitals lookup 1 subtable" hyphen.smcp
EndChar

StartChar: period
Encoding: 46 46 17
Width: 206
GlyphClass: 2
Flags: W
LayerCount: 2
Fore
SplineSet
74 16 m 2,0,-1
 74 76 l 2,1,2
 74 92 74 92 91 92 c 2,3,-1
 116 92 l 2,4,5
 132 92 132 92 132 76 c 2,6,-1
 132 16 l 2,7,8
 132 0 132 0 116 0 c 2,9,-1
 91 0 l 2,10,11
 84 0 84 0 79 4.5 c 128,-1,12
 74 9 74 9 74 16 c 2,0,-1
EndSplineSet
EndChar

StartChar: slash
Encoding: 47 47 18
Width: 369
GlyphClass: 2
Flags: W
LayerCount: 2
Fore
SplineSet
25 -72 m 1,0,-1
 306 770 l 1,1,-1
 345 770 l 1,2,-1
 64 -72 l 1,3,-1
 25 -72 l 1,0,-1
EndSplineSet
Substitution2: "'numr' Numerators in Latin lookup 13 subtable" fraction
Substitution2: "'frac' Diagonal Fractions lookup 6 subtable" fraction
EndChar

StartChar: zero
Encoding: 48 48 19
Width: 655
GlyphClass: 2
Flags: W
LayerCount: 2
Fore
SplineSet
86 162 m 2,0,-1
 86 570 l 2,1,2
 86 648 86 648 134.5 690 c 128,-1,3
 183 732 183 732 258 732 c 2,4,-1
 402 732 l 2,5,6
 488 732 488 732 529 687 c 128,-1,7
 570 642 570 642 570 570 c 2,8,-1
 570 162 l 2,9,10
 570 0 570 0 402 0 c 2,11,-1
 258 0 l 2,12,13
 183 0 183 0 134.5 39 c 128,-1,14
 86 78 86 78 86 162 c 2,0,-1
127 162 m 2,15,16
 127 101 127 101 162.5 71 c 128,-1,17
 198 41 198 41 258 41 c 2,18,-1
 402 41 l 2,19,20
 529 41 529 41 529 162 c 2,21,-1
 529 570 l 2,22,23
 529 691 529 691 402 691 c 2,24,-1
 258 691 l 2,25,26
 196 691 196 691 161.5 658.5 c 128,-1,27
 127 626 127 626 127 570 c 2,28,-1
 127 162 l 2,15,16
EndSplineSet
Substitution2: "'dnom' Denominators in Latin lookup 19 subtable" zero.denominator
Substitution2: "'sups' Superscript lookup 17 subtable" zerosuperior
Substitution2: "'onum' Oldstyle Figures in Latin lookup 15 subtable" zero.oldstyle
Substitution2: "'tnum' Tabular Numbers in Latin lookup 14 subtable" zero.tnum
Substitution2: "'numr' Numerators in Latin lookup 13 subtable" zero.numerator
Substitution2: "'zero' Slashed Zero lookup 12 subtable" uni0338
Substitution2: "'sinf' Scientific Inferiors lookup 11 subtable" zeroinferior
Substitution2: "'frac' Diagonal Fractions lookup 5 subtable" zero.numerator
Substitution2: "'smcp' Lowercase to Small Capitals lookup 1 subtable" zero.smcp
EndChar

StartChar: one
Encoding: 49 49 20
Width: 356
GlyphClass: 2
Flags: W
LayerCount: 2
Fore
SplineSet
258 732 m 1,0,-1
 258 0 l 1,1,-1
 217 0 l 1,2,-1
 217 686 l 1,3,-1
 49 620 l 1,4,-1
 49 647 l 1,5,-1
 217 732 l 1,6,-1
 258 732 l 1,0,-1
EndSplineSet
Substitution2: "'dnom' Denominators in Latin lookup 19 subtable" one.denominator
Substitution2: "'sups' Superscript lookup 17 subtable" onesuperior
Substitution2: "'onum' Oldstyle Figures in Latin lookup 15 subtable" one.oldstyle
Substitution2: "'tnum' Tabular Numbers in Latin lookup 14 subtable" one.tnum
Substitution2: "'numr' Numerators in Latin lookup 13 subtable" one.numerator
Substitution2: "'sinf' Scientific Inferiors lookup 11 subtable" oneinferior
Substitution2: "'frac' Diagonal Fractions lookup 5 subtable" one.numerator
Substitution2: "'smcp' Lowercase to Small Capitals lookup 1 subtable" one.smcp
EndChar

StartChar: two
Encoding: 50 50 21
Width: 597
GlyphClass: 2
Flags: W
LayerCount: 2
Fore
SplineSet
49 700 m 1,0,-1
 49 729 l 1,1,2
 152 742 152 742 333 742 c 0,3,4
 437 742 437 742 486.5 684 c 128,-1,5
 536 626 536 626 536 532 c 0,6,7
 536 480 536 480 498.5 413.5 c 128,-1,8
 461 347 461 347 411.5 291.5 c 128,-1,9
 362 236 362 236 298 178 c 0,10,11
 204 94 204 94 131 41 c 1,12,-1
 536 41 l 1,13,-1
 536 0 l 1,14,-1
 56 0 l 1,15,-1
 56 38 l 1,16,17
 494 369 494 369 494 534.5 c 128,-1,18
 494 700 494 700 332 700 c 2,19,-1
 49 700 l 1,0,-1
EndSplineSet
Substitution2: "'dnom' Denominators in Latin lookup 19 subtable" two.denominator
Substitution2: "'sups' Superscript lookup 17 subtable" twosuperior
Substitution2: "'onum' Oldstyle Figures in Latin lookup 15 subtable" two.oldstyle
Substitution2: "'tnum' Tabular Numbers in Latin lookup 14 subtable" two.tnum
Substitution2: "'numr' Numerators in Latin lookup 13 subtable" two.numerator
Substitution2: "'sinf' Scientific Inferiors lookup 11 subtable" twoinferior
Substitution2: "'frac' Diagonal Fractions lookup 5 subtable" two.numerator
Substitution2: "'smcp' Lowercase to Small Capitals lookup 1 subtable" two.smcp
EndChar

StartChar: three
Encoding: 51 51 22
Width: 597
GlyphClass: 2
Flags: W
LayerCount: 2
Fore
SplineSet
37 693 m 1,0,-1
 37 718 l 1,1,2
 101 735 101 735 265 735 c 0,3,4
 298 735 298 735 335 734 c 0,5,6
 419 733 419 733 462.5 687 c 128,-1,7
 506 641 506 641 506 569 c 2,8,-1
 506 500 l 2,9,10
 506 438 506 438 473.5 405.5 c 128,-1,11
 441 373 441 373 405 365 c 1,12,13
 442 352 442 352 474 317 c 128,-1,14
 506 282 506 282 506 220 c 2,15,-1
 506 161 l 2,16,17
 506 -7 506 -7 328 -7 c 0,18,19
 102 -7 102 -7 43 10 c 1,20,-1
 44 35 l 1,21,-1
 325 35 l 2,22,23
 387 35 387 35 425 62 c 128,-1,24
 463 89 463 89 463 161 c 2,25,-1
 463 220 l 2,26,27
 463 283 463 283 421.5 312 c 128,-1,28
 380 341 380 341 328 343 c 2,29,-1
 105 350 l 1,30,-1
 105 379 l 1,31,-1
 328 386 l 2,32,33
 388 388 388 388 426.5 416.5 c 128,-1,34
 465 445 465 445 465 500 c 2,35,-1
 465 569 l 2,36,37
 465 631 465 631 427 662 c 128,-1,38
 389 693 389 693 331 693 c 2,39,-1
 37 693 l 1,0,-1
EndSplineSet
Substitution2: "'dnom' Denominators in Latin lookup 19 subtable" three.denominator
Substitution2: "'sups' Superscript lookup 17 subtable" threesuperior
Substitution2: "'onum' Oldstyle Figures in Latin lookup 15 subtable" three.oldstyle
Substitution2: "'tnum' Tabular Numbers in Latin lookup 14 subtable" three.tnum
Substitution2: "'numr' Numerators in Latin lookup 13 subtable" three.numerator
Substitution2: "'sinf' Scientific Inferiors lookup 11 subtable" threeinferior
Substitution2: "'frac' Diagonal Fractions lookup 5 subtable" three.numerator
Substitution2: "'smcp' Lowercase to Small Capitals lookup 1 subtable" three.smcp
EndChar

StartChar: four
Encoding: 52 52 23
Width: 584
GlyphClass: 2
Flags: W
LayerCount: 2
Fore
SplineSet
429 246 m 1,0,-1
 429 472 l 1,1,-1
 448 547 l 1,2,-1
 470 547 l 1,3,-1
 470 246 l 1,4,-1
 560 246 l 1,5,-1
 560 217 l 1,6,-1
 470 204 l 1,7,-1
 470 2 l 1,8,-1
 429 2 l 1,9,-1
 429 204 l 1,10,-1
 44 204 l 1,11,-1
 25 233 l 1,12,-1
 336 732 l 1,13,-1
 384 732 l 1,14,-1
 83 246 l 1,15,-1
 429 246 l 1,0,-1
EndSplineSet
Substitution2: "'dnom' Denominators in Latin lookup 19 subtable" four.denominator
Substitution2: "'sups' Superscript lookup 17 subtable" foursuperior
Substitution2: "'onum' Oldstyle Figures in Latin lookup 15 subtable" four.oldstyle
Substitution2: "'tnum' Tabular Numbers in Latin lookup 14 subtable" four.tnum
Substitution2: "'numr' Numerators in Latin lookup 13 subtable" four.numerator
Substitution2: "'sinf' Scientific Inferiors lookup 11 subtable" fourinferior
Substitution2: "'frac' Diagonal Fractions lookup 5 subtable" four.numerator
Substitution2: "'smcp' Lowercase to Small Capitals lookup 1 subtable" four.smcp
EndChar

StartChar: five
Encoding: 53 53 24
Width: 633
GlyphClass: 2
Flags: W
LayerCount: 2
Fore
SplineSet
94 39 m 1,0,-1
 398 39 l 2,1,2
 452 39 452 39 486 73.5 c 128,-1,3
 520 108 520 108 520 168 c 2,4,-1
 520 268 l 2,5,6
 520 395 520 395 397 395 c 2,7,-1
 244 395 l 2,8,9
 202 395 202 395 167.5 363.5 c 128,-1,10
 133 332 133 332 133 287 c 1,11,-1
 95 287 l 1,12,-1
 117 732 l 1,13,-1
 540 732 l 1,14,-1
 540 691 l 1,15,-1
 155 691 l 1,16,-1
 140 382 l 1,17,18
 151 399 151 399 180 417 c 128,-1,19
 209 435 209 435 247 436 c 1,20,-1
 398 436 l 2,21,22
 561 436 561 436 561 270 c 2,23,-1
 561 166 l 2,24,25
 561 118 561 118 545 82.5 c 128,-1,26
 529 47 529 47 502 30 c 1,27,28
 452 -4 452 -4 398 -4 c 0,29,30
 194 -4 194 -4 94 11 c 1,31,-1
 94 39 l 1,0,-1
EndSplineSet
Substitution2: "'dnom' Denominators in Latin lookup 19 subtable" five.denominator
Substitution2: "'sups' Superscript lookup 17 subtable" fivesuperior
Substitution2: "'onum' Oldstyle Figures in Latin lookup 15 subtable" five.oldstyle
Substitution2: "'tnum' Tabular Numbers in Latin lookup 14 subtable" five.tnum
Substitution2: "'numr' Numerators in Latin lookup 13 subtable" five.numerator
Substitution2: "'sinf' Scientific Inferiors lookup 11 subtable" fiveinferior
Substitution2: "'frac' Diagonal Fractions lookup 5 subtable" five.numerator
Substitution2: "'smcp' Lowercase to Small Capitals lookup 1 subtable" five.smcp
EndChar

StartChar: six
Encoding: 54 54 25
Width: 631
GlyphClass: 2
Flags: W
LayerCount: 2
Fore
SplineSet
129 652 m 128,-1,1
 178 738 178 738 252 738 c 0,2,3
 437 738 437 738 534 726 c 1,4,-1
 534 697 l 1,5,-1
 259 697 l 2,6,7
 219 697 219 697 190 666 c 128,-1,8
 161 635 161 635 147 584 c 0,9,10
 121 491 121 491 121 398 c 1,11,12
 249 413 249 413 397 413 c 0,13,14
 490 413 490 413 524 374.5 c 128,-1,15
 558 336 558 336 558 266 c 2,16,-1
 558 148 l 2,17,18
 558 -1 558 -1 397 -1 c 2,19,-1
 268 -1 l 2,20,21
 225 -1 225 -1 192.5 16.5 c 128,-1,22
 160 34 160 34 134 76 c 0,23,24
 80 161 80 161 80 363.5 c 128,-1,0
 80 566 80 566 129 652 c 128,-1,1
121 371 m 1,25,26
 121 40 121 40 268 40 c 2,27,-1
 397 40 l 2,28,29
 518 40 518 40 518 149 c 2,30,-1
 518 266 l 2,31,32
 518 328 518 328 486.5 349.5 c 128,-1,33
 455 371 455 371 397 371 c 2,34,-1
 121 371 l 1,25,26
EndSplineSet
Substitution2: "'dnom' Denominators in Latin lookup 19 subtable" six.denominator
Substitution2: "'sups' Superscript lookup 17 subtable" sixsuperior
Substitution2: "'onum' Oldstyle Figures in Latin lookup 15 subtable" six.oldstyle
Substitution2: "'tnum' Tabular Numbers in Latin lookup 14 subtable" six.tnum
Substitution2: "'numr' Numerators in Latin lookup 13 subtable" six.numerator
Substitution2: "'sinf' Scientific Inferiors lookup 11 subtable" sixinferior
Substitution2: "'frac' Diagonal Fractions lookup 5 subtable" six.numerator
Substitution2: "'smcp' Lowercase to Small Capitals lookup 1 subtable" six.smcp
EndChar

StartChar: seven
Encoding: 55 55 26
Width: 538
GlyphClass: 2
Flags: W
LayerCount: 2
Fore
SplineSet
37 691 m 1,0,-1
 37 732 l 1,1,-1
 482 732 l 1,2,-1
 501 700 l 1,3,-1
 254 0 l 1,4,-1
 206 0 l 1,5,-1
 451 691 l 1,6,-1
 37 691 l 1,0,-1
EndSplineSet
Substitution2: "'dnom' Denominators in Latin lookup 19 subtable" seven.denominator
Substitution2: "'sups' Superscript lookup 17 subtable" sevensuperior
Substitution2: "'onum' Oldstyle Figures in Latin lookup 15 subtable" seven.oldstyle
Substitution2: "'tnum' Tabular Numbers in Latin lookup 14 subtable" seven.tnum
Substitution2: "'numr' Numerators in Latin lookup 13 subtable" seven.numerator
Substitution2: "'sinf' Scientific Inferiors lookup 11 subtable" seveninferior
Substitution2: "'frac' Diagonal Fractions lookup 5 subtable" seven.numerator
Substitution2: "'smcp' Lowercase to Small Capitals lookup 1 subtable" seven.smcp
EndChar

StartChar: eight
Encoding: 56 56 27
Width: 647
GlyphClass: 2
Flags: W
LayerCount: 2
Fore
SplineSet
92 154 m 2,0,-1
 92 253 l 2,1,2
 92 304 92 304 122 332 c 128,-1,3
 152 360 152 360 187 364 c 1,4,5
 92 384 92 384 92 499 c 2,6,-1
 92 564 l 2,7,8
 92 659 92 659 138 698 c 128,-1,9
 184 737 184 737 268 737 c 2,10,-1
 394 737 l 2,11,12
 476 737 476 737 516 696 c 128,-1,13
 556 655 556 655 556 564 c 2,14,-1
 556 499 l 2,15,16
 556 444 556 444 518 406 c 0,17,18
 498 385 498 385 470 381 c 1,19,20
 556 359 556 359 556 252 c 2,21,-1
 556 154 l 2,22,23
 556 108 556 108 540 75.5 c 128,-1,24
 524 43 524 43 498 28 c 0,25,26
 450 0 450 0 393 0 c 2,27,-1
 268 0 l 2,28,29
 219 0 219 0 184 12.5 c 128,-1,30
 149 25 149 25 131.5 41.5 c 128,-1,31
 114 58 114 58 104 82 c 1,32,33
 92 115 92 115 92 154 c 2,0,-1
133 151 m 2,34,35
 133 41 133 41 268 41 c 2,36,-1
 393 41 l 2,37,38
 441 41 441 41 478 68 c 128,-1,39
 515 95 515 95 515 151 c 2,40,-1
 515 256 l 2,41,42
 515 354 515 354 396 354 c 2,43,-1
 257 354 l 2,44,45
 213 354 213 354 173 330 c 128,-1,46
 133 306 133 306 133 256 c 2,47,-1
 133 151 l 2,34,35
133 494 m 2,48,49
 133 394 133 394 257 394 c 2,50,-1
 396 394 l 2,51,52
 457 394 457 394 486 424.5 c 128,-1,53
 515 455 515 455 515 494 c 2,54,-1
 515 562 l 2,55,56
 515 634 515 634 485.5 665 c 128,-1,57
 456 696 456 696 394 696 c 2,58,-1
 268 696 l 2,59,60
 196 696 196 696 164.5 665.5 c 128,-1,61
 133 635 133 635 133 562 c 2,62,-1
 133 494 l 2,48,49
EndSplineSet
Substitution2: "'dnom' Denominators in Latin lookup 19 subtable" eight.denominator
Substitution2: "'sups' Superscript lookup 17 subtable" eightsuperior
Substitution2: "'onum' Oldstyle Figures in Latin lookup 15 subtable" eight.oldstyle
Substitution2: "'tnum' Tabular Numbers in Latin lookup 14 subtable" eight.tnum
Substitution2: "'numr' Numerators in Latin lookup 13 subtable" eight.numerator
Substitution2: "'sinf' Scientific Inferiors lookup 11 subtable" eightinferior
Substitution2: "'frac' Diagonal Fractions lookup 5 subtable" eight.numerator
Substitution2: "'smcp' Lowercase to Small Capitals lookup 1 subtable" eight.smcp
EndChar

StartChar: nine
Encoding: 57 57 28
Width: 631
GlyphClass: 2
Flags: W
LayerCount: 2
Fore
SplineSet
74 468 m 2,0,-1
 74 586 l 2,1,2
 74 735 74 735 235 735 c 2,3,-1
 364 735 l 2,4,5
 407 735 407 735 439.5 717.5 c 128,-1,6
 472 700 472 700 498 658 c 0,7,8
 552 573 552 573 552 370.5 c 128,-1,9
 552 168 552 168 503 82 c 128,-1,10
 454 -4 454 -4 380 -4 c 0,11,12
 174 -4 174 -4 98 8 c 1,13,-1
 98 37 l 1,14,-1
 374 37 l 2,15,16
 414 37 414 37 443 68 c 128,-1,17
 472 99 472 99 486 149 c 0,18,19
 511 243 511 243 511 335 c 1,20,21
 392 321 392 321 235 321 c 0,22,23
 142 321 142 321 108 359.5 c 128,-1,24
 74 398 74 398 74 468 c 2,0,-1
114 468 m 2,25,26
 114 406 114 406 145.5 384.5 c 128,-1,27
 177 363 177 363 235 363 c 2,28,-1
 511 363 l 1,29,30
 511 694 511 694 364 694 c 2,31,-1
 235 694 l 2,32,33
 114 694 114 694 114 585 c 2,34,-1
 114 468 l 2,25,26
EndSplineSet
Substitution2: "'dnom' Denominators in Latin lookup 19 subtable" nine.denominator
Substitution2: "'sups' Superscript lookup 17 subtable" ninesuperior
Substitution2: "'onum' Oldstyle Figures in Latin lookup 15 subtable" nine.oldstyle
Substitution2: "'tnum' Tabular Numbers in Latin lookup 14 subtable" nine.tnum
Substitution2: "'numr' Numerators in Latin lookup 13 subtable" nine.numerator
Substitution2: "'sinf' Scientific Inferiors lookup 11 subtable" nineinferior
Substitution2: "'frac' Diagonal Fractions lookup 5 subtable" nine.numerator
Substitution2: "'smcp' Lowercase to Small Capitals lookup 1 subtable" nine.smcp
EndChar

StartChar: colon
Encoding: 58 58 29
Width: 209
GlyphClass: 2
Flags: W
LayerCount: 2
Fore
SplineSet
74 16 m 2,0,-1
 74 76 l 2,1,2
 74 92 74 92 91 92 c 2,3,-1
 116 92 l 2,4,5
 132 92 132 92 132 76 c 2,6,-1
 132 16 l 2,7,8
 132 0 132 0 116 0 c 2,9,-1
 91 0 l 2,10,11
 84 0 84 0 79 4.5 c 128,-1,12
 74 9 74 9 74 16 c 2,0,-1
74 453 m 2,13,-1
 74 514 l 2,14,15
 74 531 74 531 91 531 c 2,16,-1
 116 531 l 2,17,18
 132 531 132 531 132 514 c 2,19,-1
 132 453 l 2,20,21
 132 438 132 438 116 438 c 2,22,-1
 91 438 l 2,23,24
 74 438 74 438 74 453 c 2,13,-1
EndSplineSet
EndChar

StartChar: semicolon
Encoding: 59 59 30
Width: 206
GlyphClass: 2
Flags: W
LayerCount: 2
Fore
SplineSet
74 17 m 2,0,-1
 74 76 l 2,1,2
 74 94 74 94 91 94 c 2,3,-1
 115 94 l 2,4,5
 131 94 131 94 131 76 c 2,6,-1
 131 -28 l 2,7,8
 131 -54 131 -54 118.5 -65.5 c 128,-1,9
 106 -77 106 -77 94 -77 c 1,10,-1
 90 -76 l 1,11,-1
 77 -75 l 1,12,-1
 77 -60 l 1,13,14
 99 -60 99 -60 99 -40 c 2,15,-1
 99 0 l 1,16,-1
 91 0 l 2,17,18
 84 0 84 0 79 5 c 128,-1,19
 74 10 74 10 74 17 c 2,0,-1
75 454 m 2,20,-1
 75 515 l 2,21,22
 75 531 75 531 91 531 c 2,23,-1
 116 531 l 2,24,25
 133 531 133 531 133 515 c 2,26,-1
 133 454 l 2,27,28
 133 439 133 439 116 439 c 2,29,-1
 91 439 l 2,30,31
 75 439 75 439 75 454 c 2,20,-1
EndSplineSet
EndChar

StartChar: less
Encoding: 60 60 31
Width: 478
GlyphClass: 2
Flags: W
LayerCount: 2
Fore
SplineSet
62 334 m 1,0,-1
 62 375 l 1,1,-1
 416 557 l 1,2,-1
 416 512 l 1,3,-1
 115 355 l 1,4,-1
 416 187 l 1,5,-1
 416 141 l 1,6,-1
 62 334 l 1,0,-1
EndSplineSet
EndChar

StartChar: equal
Encoding: 61 61 32
Width: 476
GlyphClass: 2
Flags: W
LayerCount: 2
Fore
SplineSet
25 212 m 1,0,-1
 25 253 l 1,1,-1
 452 253 l 1,2,-1
 452 212 l 1,3,-1
 25 212 l 1,0,-1
25 454 m 1,4,-1
 25 495 l 1,5,-1
 452 495 l 1,6,-1
 452 454 l 1,7,-1
 25 454 l 1,4,-1
EndSplineSet
EndChar

StartChar: greater
Encoding: 62 62 33
Width: 478
GlyphClass: 2
Flags: W
LayerCount: 2
Fore
SplineSet
62 141 m 1,0,-1
 62 187 l 1,1,-1
 363 355 l 1,2,-1
 62 512 l 1,3,-1
 62 557 l 1,4,-1
 416 375 l 1,5,-1
 416 334 l 1,6,-1
 62 141 l 1,0,-1
EndSplineSet
EndChar

StartChar: question
Encoding: 63 63 34
Width: 535
GlyphClass: 2
Flags: W
LayerCount: 2
Fore
SplineSet
25 698 m 1,0,-1
 25 726 l 1,1,2
 139 739 139 739 203 739 c 128,-1,3
 267 739 267 739 278 739 c 128,-1,4
 289 739 289 739 291 739 c 0,5,6
 398 739 398 739 442 691.5 c 128,-1,7
 486 644 486 644 486 554 c 2,8,-1
 486 453 l 2,9,10
 486 354 486 354 422 318 c 0,11,12
 377 293 377 293 298 293 c 0,13,14
 266 293 266 293 227 297 c 1,15,-1
 227 195 l 1,16,-1
 184 195 l 1,17,-1
 184 331 l 1,18,-1
 303 331 l 1,19,20
 445 333 445 333 445 453 c 2,21,-1
 445 554 l 2,22,23
 445 633 445 633 407 665.5 c 128,-1,24
 369 698 369 698 282 698 c 2,25,-1
 25 698 l 1,0,-1
177 16 m 2,26,-1
 177 76 l 2,27,28
 177 92 177 92 193 92 c 2,29,-1
 219 92 l 2,30,31
 234 92 234 92 234 76 c 2,32,-1
 234 16 l 2,33,34
 234 0 234 0 219 0 c 2,35,-1
 193 0 l 2,36,37
 177 0 177 0 177 16 c 2,26,-1
EndSplineSet
Substitution2: "'smcp' Lowercase to Small Capitals lookup 1 subtable" question.smcp
EndChar

StartChar: at
Encoding: 64 64 35
Width: 858
GlyphClass: 2
Flags: W
LayerCount: 2
Fore
SplineSet
80 0 m 2,0,-1
 80 348 l 2,1,2
 80 423 80 423 117 465 c 0,3,4
 133 483 133 483 167 497.5 c 128,-1,5
 201 512 201 512 248 512 c 2,6,-1
 453 512 l 2,7,8
 516 512 516 512 561 479.5 c 128,-1,9
 606 447 606 447 606 372 c 2,10,-1
 606 0 l 1,11,-1
 577 0 l 1,12,-1
 567 64 l 1,13,-1
 554 56 l 1,14,15
 436 -9 436 -9 355 -9 c 0,16,17
 302 -9 302 -9 265.5 24 c 128,-1,18
 229 57 229 57 230 108 c 1,19,-1
 230 161 l 2,20,21
 230 222 230 222 264 258 c 128,-1,22
 298 294 298 294 359 294 c 2,23,-1
 566 294 l 1,24,25
 566 332 566 332 566 351 c 128,-1,26
 566 370 566 370 566 370 c 2,27,28
 566 471 566 471 450 471 c 2,29,-1
 248 471 l 2,30,31
 121 471 121 471 121 348 c 2,32,-1
 121 0 l 2,33,34
 121 -74 121 -74 158.5 -105 c 128,-1,35
 196 -136 196 -136 248 -136 c 2,36,-1
 577 -136 l 2,37,38
 648 -136 648 -136 680.5 -102.5 c 128,-1,39
 713 -69 713 -69 713 0 c 2,40,-1
 713 512 l 2,41,42
 713 580 713 580 677.5 619.5 c 128,-1,43
 642 659 642 659 577 659 c 2,44,-1
 183 659 l 1,45,-1
 183 684 l 1,46,47
 260 700 260 700 432 700 c 0,48,49
 451 700 451 700 471 700 c 2,50,-1
 577 700 l 1,51,52
 659 698 659 698 706.5 650.5 c 128,-1,53
 754 603 754 603 754 512 c 2,54,-1
 754 0 l 2,55,56
 754 -178 754 -178 577 -178 c 2,57,-1
 248 -178 l 2,58,59
 170 -178 170 -178 125 -132 c 128,-1,60
 80 -86 80 -86 80 0 c 2,0,-1
367 32 m 0,61,62
 440 32 440 32 566 92 c 1,63,-1
 566 267 l 1,64,-1
 364 255 l 1,65,66
 271 248 271 248 271 159 c 1,67,68
 270 158 270 158 270 136.5 c 128,-1,69
 270 115 270 115 271 114 c 1,70,71
 271 78 271 78 297 55 c 128,-1,72
 323 32 323 32 365 32 c 0,73,74
 366 32 366 32 367 32 c 0,61,62
EndSplineSet
Substitution2: "'case' Case-Sensitive Forms lookup 18 subtable" at.alt
Substitution2: "'smcp' Lowercase to Small Capitals lookup 1 subtable" at.smcp
EndChar

StartChar: A
Encoding: 65 65 36
Width: 662
GlyphClass: 2
Flags: W
LayerCount: 2
Fore
SplineSet
56 0 m 1,0,-1
 328 732 l 1,1,-1
 375 732 l 1,2,-1
 636 0 l 1,3,-1
 589 0 l 1,4,-1
 507 236 l 1,5,-1
 188 236 l 1,6,-1
 104 0 l 1,7,-1
 56 0 l 1,0,-1
203 277 m 1,8,-1
 492 277 l 1,9,-1
 351 678 l 1,10,-1
 203 277 l 1,8,-1
EndSplineSet
Substitution2: "'c2sc' Capitals to Small Capitals in Latin lookup 2 subtable" a.smcp
EndChar

StartChar: B
Encoding: 66 66 37
Width: 597
GlyphClass: 2
Flags: W
LayerCount: 2
Fore
SplineSet
98 0 m 1,0,-1
 98 732 l 1,1,-1
 361 732 l 2,2,3
 463 732 463 732 507 681 c 128,-1,4
 551 630 551 630 551 556 c 128,-1,5
 551 482 551 482 518.5 437 c 128,-1,6
 486 392 486 392 435 383 c 1,7,8
 477 373 477 373 516 327 c 128,-1,9
 555 281 555 281 555 204 c 0,10,11
 555 120 555 120 516 64 c 0,12,13
 471 0 471 0 361 0 c 2,14,-1
 98 0 l 1,0,-1
140 42 m 1,15,-1
 361 42 l 2,16,17
 514 42 514 42 514 206 c 0,18,19
 514 272 514 272 471 317 c 128,-1,20
 428 362 428 362 364 362 c 0,21,22
 362 362 362 362 361 362 c 2,23,-1
 140 362 l 1,24,-1
 140 42 l 1,15,-1
140 404 m 1,25,-1
 361 404 l 2,26,27
 428 404 428 404 468 442 c 1,28,29
 510 480 510 480 510 554 c 0,30,31
 510 691 510 691 361 691 c 2,32,-1
 140 691 l 1,33,-1
 140 404 l 1,25,-1
EndSplineSet
Substitution2: "'c2sc' Capitals to Small Capitals in Latin lookup 2 subtable" b.smcp
EndChar

StartChar: C
Encoding: 67 67 38
Width: 572
GlyphClass: 2
Flags: W
LayerCount: 2
Fore
SplineSet
68 368 m 0,0,1
 68 598 68 598 138 676 c 0,2,3
 196 740 196 740 311 740 c 0,4,5
 406 740 406 740 535 716 c 1,6,-1
 535 686 l 1,7,8
 519 687 519 687 506 688.5 c 128,-1,9
 493 690 493 690 475.5 691 c 128,-1,10
 458 692 458 692 437.5 693.5 c 128,-1,11
 417 695 417 695 396 696 c 0,12,13
 361 699 361 699 299 699 c 128,-1,14
 237 699 237 699 195 672 c 0,15,16
 109 615 109 615 109 366 c 0,17,18
 109 35 109 35 312 35 c 0,19,20
 405 35 405 35 502 42 c 1,21,-1
 535 45 l 1,22,-1
 535 16 l 1,23,24
 417 -6 417 -6 311 -6 c 0,25,26
 68 -6 68 -6 68 368 c 0,0,1
EndSplineSet
Substitution2: "'c2sc' Capitals to Small Capitals in Latin lookup 2 subtable" c.smcp
EndChar

StartChar: D
Encoding: 68 68 39
Width: 666
GlyphClass: 2
Flags: W
LayerCount: 2
Fore
SplineSet
98 0 m 1,0,-1
 98 732 l 1,1,-1
 358 732 l 2,2,3
 423 732 423 732 471.5 707.5 c 128,-1,4
 520 683 520 683 547 646 c 128,-1,5
 574 609 574 609 590 557 c 0,6,7
 617 473 617 473 617 385 c 128,-1,8
 617 297 617 297 602.5 235.5 c 128,-1,9
 588 174 588 174 558.5 120 c 128,-1,10
 529 66 529 66 477 33 c 128,-1,11
 425 0 425 0 358 0 c 2,12,-1
 98 0 l 1,0,-1
139 42 m 1,13,-1
 358 42 l 2,14,15
 431 42 431 42 482 92 c 0,16,17
 576 184 576 184 576 364 c 0,18,19
 576 691 576 691 358 691 c 2,20,-1
 139 691 l 1,21,-1
 139 42 l 1,13,-1
EndSplineSet
Substitution2: "'c2sc' Capitals to Small Capitals in Latin lookup 2 subtable" d.smcp
EndChar

StartChar: E
Encoding: 69 69 40
Width: 576
GlyphClass: 2
Flags: W
LayerCount: 2
Fore
SplineSet
98 123 m 2,0,-1
 98 602 l 2,1,2
 98 671 98 671 133 701.5 c 128,-1,3
 168 732 168 732 218 732 c 0,4,5
 221 732 221 732 224 732 c 2,6,-1
 528 720 l 1,7,-1
 528 691 l 1,8,-1
 224 691 l 2,9,10
 139 691 139 691 139 602 c 2,11,-1
 139 384 l 1,12,-1
 488 377 l 1,13,-1
 488 348 l 1,14,-1
 139 341 l 1,15,-1
 139 123 l 2,16,17
 139 66 139 66 170 50 c 0,18,19
 195 38 195 38 234 38 c 2,20,-1
 528 38 l 1,21,-1
 528 9 l 1,22,-1
 234 -3 l 2,23,24
 228 -3 228 -3 215 -3 c 128,-1,25
 202 -3 202 -3 182.5 0.5 c 128,-1,26
 163 4 163 4 142 16 c 0,27,28
 98 41 98 41 98 123 c 2,0,-1
EndSplineSet
Substitution2: "'c2sc' Capitals to Small Capitals in Latin lookup 2 subtable" e.smcp
EndChar

StartChar: F
Encoding: 70 70 41
Width: 576
GlyphClass: 2
Flags: W
LayerCount: 2
Fore
SplineSet
98 0 m 1,0,-1
 98 602 l 2,1,2
 98 671 98 671 133 701.5 c 128,-1,3
 168 732 168 732 218 732 c 0,4,5
 221 732 221 732 224 732 c 2,6,-1
 528 720 l 1,7,-1
 528 691 l 1,8,-1
 224 691 l 2,9,10
 139 691 139 691 139 602 c 2,11,-1
 139 384 l 1,12,-1
 488 377 l 1,13,-1
 488 348 l 1,14,-1
 139 341 l 1,15,-1
 139 0 l 1,16,-1
 98 0 l 1,0,-1
EndSplineSet
Substitution2: "'c2sc' Capitals to Small Capitals in Latin lookup 2 subtable" f.smcp
EndChar

StartChar: G
Encoding: 71 71 42
Width: 617
GlyphClass: 2
Flags: W
LayerCount: 2
Fore
SplineSet
71.5 250 m 128,-1,1
 68 299 68 299 68 368.5 c 128,-1,2
 68 438 68 438 72 486.5 c 128,-1,3
 76 535 76 535 89.5 586 c 128,-1,4
 103 637 103 637 126.5 668.5 c 128,-1,5
 150 700 150 700 191.5 720 c 128,-1,6
 233 740 233 740 281.5 740 c 128,-1,7
 330 740 330 740 409.5 731.5 c 128,-1,8
 489 723 489 723 542 713 c 1,9,-1
 542 680 l 1,10,11
 541 680 541 680 523.5 682 c 128,-1,12
 506 684 506 684 478.5 687 c 128,-1,13
 451 690 451 690 420 692 c 0,14,15
 338 699 338 699 291.5 699 c 128,-1,16
 245 699 245 699 212.5 684.5 c 128,-1,17
 180 670 180 670 160 644 c 128,-1,18
 140 618 140 618 128 576 c 1,19,20
 109 503 109 503 109 368 c 0,21,22
 109 184 109 184 148.5 110.5 c 128,-1,23
 188 37 188 37 296 36 c 0,24,25
 330 36 330 36 385.5 48 c 128,-1,26
 441 60 441 60 479 72 c 2,27,-1
 517 84 l 1,28,-1
 517 347 l 1,29,-1
 319 347 l 1,30,-1
 319 373 l 1,31,32
 377 389 377 389 490 389 c 0,33,34
 522 389 522 389 558 386 c 1,35,-1
 558 0 l 1,36,-1
 530 0 l 1,37,-1
 519 52 l 1,38,39
 485 33 485 33 420.5 14 c 128,-1,40
 356 -5 356 -5 296 -5 c 0,41,42
 293 -5 293 -5 290 -5 c 0,43,44
 234 -5 234 -5 192 14.5 c 128,-1,45
 150 34 150 34 126 65 c 128,-1,46
 102 96 102 96 88.5 148.5 c 128,-1,0
 75 201 75 201 71.5 250 c 128,-1,1
EndSplineSet
Substitution2: "'c2sc' Capitals to Small Capitals in Latin lookup 2 subtable" g.smcp
EndChar

StartChar: H
Encoding: 72 72 43
Width: 655
GlyphClass: 2
Flags: W
LayerCount: 2
Fore
SplineSet
98 0 m 1,0,-1
 98 732 l 1,1,-1
 139 732 l 1,2,-1
 139 374 l 1,3,-1
 549 374 l 1,4,-1
 549 732 l 1,5,-1
 590 732 l 1,6,-1
 590 0 l 1,7,-1
 549 0 l 1,8,-1
 549 334 l 1,9,-1
 139 334 l 1,10,-1
 139 0 l 1,11,-1
 98 0 l 1,0,-1
EndSplineSet
Substitution2: "'c2sc' Capitals to Small Capitals in Latin lookup 2 subtable" h.smcp
EndChar

StartChar: I
Encoding: 73 73 44
Width: 204
GlyphClass: 2
Flags: W
LayerCount: 2
Fore
SplineSet
98 0 m 1,0,-1
 98 732 l 1,1,-1
 139 732 l 1,2,-1
 139 0 l 1,3,-1
 98 0 l 1,0,-1
EndSplineSet
Substitution2: "'c2sc' Capitals to Small Capitals in Latin lookup 2 subtable" i.smcp
EndChar

StartChar: J
Encoding: 74 74 45
Width: 352
GlyphClass: 2
Flags: W
LayerCount: 2
Fore
SplineSet
47 49 m 1,0,1
 100 33 100 33 122 33 c 128,-1,2
 144 33 144 33 163 34 c 128,-1,3
 182 35 182 35 200.5 47 c 128,-1,4
 219 59 219 59 232.5 89 c 128,-1,5
 246 119 246 119 246 165 c 2,6,-1
 246 732 l 1,7,-1
 287 732 l 1,8,-1
 287 165 l 2,9,10
 287 55 287 55 235 18 c 0,11,12
 201 -6 201 -6 146 -6 c 0,13,14
 84 -6 84 -6 43 21 c 1,15,-1
 47 49 l 1,0,1
EndSplineSet
Substitution2: "'c2sc' Capitals to Small Capitals in Latin lookup 2 subtable" j.smcp
EndChar

StartChar: K
Encoding: 75 75 46
Width: 592
GlyphClass: 2
Flags: W
LayerCount: 2
Fore
SplineSet
98 0 m 1,0,-1
 98 732 l 1,1,-1
 139 732 l 1,2,-1
 139 388 l 1,3,-1
 268 388 l 1,4,-1
 505 732 l 1,5,-1
 555 732 l 1,6,-1
 305 367 l 1,7,-1
 555 0 l 1,8,-1
 504 0 l 1,9,-1
 267 346 l 1,10,-1
 140 346 l 1,11,-1
 140 0 l 1,12,-1
 98 0 l 1,0,-1
EndSplineSet
Substitution2: "'c2sc' Capitals to Small Capitals in Latin lookup 2 subtable" k.smcp
EndChar

StartChar: L
Encoding: 76 76 47
Width: 558
GlyphClass: 2
Flags: W
LayerCount: 2
Fore
SplineSet
98 126 m 2,0,-1
 98 732 l 1,1,-1
 139 732 l 1,2,-1
 139 126 l 2,3,4
 139 69 139 69 170 54 c 0,5,6
 195 41 195 41 234 41 c 2,7,-1
 521 41 l 1,8,-1
 521 0 l 1,9,-1
 234 0 l 2,10,11
 177 0 177 0 142 20 c 0,12,13
 98 45 98 45 98 126 c 2,0,-1
EndSplineSet
Substitution2: "'c2sc' Capitals to Small Capitals in Latin lookup 2 subtable" l.smcp
EndChar

StartChar: M
Encoding: 77 77 48
Width: 798
GlyphClass: 2
Flags: W
LayerCount: 2
Fore
SplineSet
68 0 m 1,0,-1
 137 732 l 1,1,-1
 196 732 l 1,2,-1
 403 69 l 1,3,-1
 605 732 l 1,4,-1
 664 732 l 1,5,-1
 739 0 l 1,6,-1
 698 0 l 1,7,-1
 629 667 l 1,8,-1
 425 0 l 1,9,-1
 381 0 l 1,10,-1
 173 667 l 1,11,-1
 109 0 l 1,12,-1
 68 0 l 1,0,-1
EndSplineSet
AlternateSubs2: "'salt' Stylistic Alternatives in Latin lookup 16 subtable" M.salt
Substitution2: "'c2sc' Capitals to Small Capitals in Latin lookup 2 subtable" m.smcp
EndChar

StartChar: N
Encoding: 78 78 49
Width: 670
GlyphClass: 2
Flags: W
LayerCount: 2
Fore
SplineSet
98 0 m 1,0,-1
 98 732 l 1,1,-1
 141 732 l 1,2,-1
 564 77 l 1,3,-1
 564 732 l 1,4,-1
 605 732 l 1,5,-1
 605 0 l 1,6,-1
 564 0 l 1,7,-1
 139 655 l 1,8,-1
 139 0 l 1,9,-1
 98 0 l 1,0,-1
EndSplineSet
AlternateSubs2: "'salt' Stylistic Alternatives in Latin lookup 16 subtable" N.salt
Substitution2: "'c2sc' Capitals to Small Capitals in Latin lookup 2 subtable" n.smcp
EndChar

StartChar: O
Encoding: 79 79 50
Width: 675
GlyphClass: 2
Flags: W
LayerCount: 2
Fore
SplineSet
87.5 218.5 m 128,-1,1
 80 279 80 279 80 370.5 c 128,-1,2
 80 462 80 462 93 531.5 c 128,-1,3
 106 601 106 601 126.5 641.5 c 128,-1,4
 147 682 147 682 184.5 703.5 c 128,-1,5
 222 725 222 725 259 731 c 128,-1,6
 296 737 296 737 349 737 c 128,-1,7
 402 737 402 737 434.5 733 c 128,-1,8
 467 729 467 729 501 716 c 128,-1,9
 535 703 535 703 555.5 677.5 c 128,-1,10
 576 652 576 652 594 611 c 0,11,12
 626 535 626 535 626 361 c 0,13,14
 626 179 626 179 583 93 c 0,15,16
 563 53 563 53 527 31.5 c 128,-1,17
 491 10 491 10 452 3 c 128,-1,18
 413 -4 413 -4 358.5 -4 c 128,-1,19
 304 -4 304 -4 271 0 c 128,-1,20
 238 4 238 4 203.5 16.5 c 128,-1,21
 169 29 169 29 149 53.5 c 128,-1,22
 129 78 129 78 112 118 c 128,-1,0
 95 158 95 158 87.5 218.5 c 128,-1,1
125 468.5 m 128,-1,24
 121 421 121 421 121 337.5 c 128,-1,25
 121 254 121 254 132.5 190.5 c 128,-1,26
 144 127 144 127 174 92.5 c 128,-1,27
 204 58 204 58 244 47.5 c 128,-1,28
 284 37 284 37 352.5 37 c 128,-1,29
 421 37 421 37 461 48.5 c 128,-1,30
 501 60 501 60 531 94 c 128,-1,31
 561 128 561 128 573 192 c 128,-1,32
 585 256 585 256 585 355.5 c 128,-1,33
 585 455 585 455 574.5 517.5 c 128,-1,34
 564 580 564 580 548 615.5 c 128,-1,35
 532 651 532 651 500 669 c 128,-1,36
 468 687 468 687 437.5 691.5 c 128,-1,37
 407 696 407 696 364.5 696 c 128,-1,38
 322 696 322 696 302.5 695 c 128,-1,39
 283 694 283 694 257.5 689.5 c 128,-1,40
 232 685 232 685 217 675.5 c 128,-1,41
 202 666 202 666 184.5 650 c 128,-1,42
 167 634 167 634 157 609 c 128,-1,43
 147 584 147 584 138 550 c 128,-1,23
 129 516 129 516 125 468.5 c 128,-1,24
EndSplineSet
Substitution2: "'c2sc' Capitals to Small Capitals in Latin lookup 2 subtable" o.smcp
EndChar

StartChar: P
Encoding: 80 80 51
Width: 582
GlyphClass: 2
Flags: W
LayerCount: 2
Fore
SplineSet
74 0 m 1,0,-1
 74 732 l 1,1,-1
 358 732 l 2,2,3
 425 732 425 732 475 698 c 1,4,5
 534 656 534 656 534 528 c 0,6,7
 534 469 534 469 522 427 c 128,-1,8
 510 385 510 385 494 363.5 c 128,-1,9
 478 342 478 342 451 330 c 128,-1,10
 424 318 424 318 405 316 c 128,-1,11
 386 314 386 314 356.5 314 c 128,-1,12
 327 314 327 314 223 320 c 128,-1,13
 119 326 119 326 115 328 c 1,14,-1
 115 0 l 1,15,-1
 74 0 l 1,0,-1
115 356 m 1,16,-1
 358 356 l 2,17,18
 421 356 421 356 456.5 390.5 c 128,-1,19
 492 425 492 425 492 523 c 0,20,21
 492 525 492 525 492 528 c 0,22,23
 492 631 492 631 447 664 c 0,24,25
 412 690 412 690 358 690 c 2,26,-1
 115 690 l 1,27,-1
 115 356 l 1,16,-1
EndSplineSet
Substitution2: "'c2sc' Capitals to Small Capitals in Latin lookup 2 subtable" p.smcp
EndChar

StartChar: Q
Encoding: 81 81 52
Width: 675
GlyphClass: 2
Flags: W
LayerCount: 2
Fore
SplineSet
87 218 m 128,-1,1
 80 278 80 278 80 356 c 128,-1,2
 80 434 80 434 86.5 490 c 128,-1,3
 93 546 93 546 104 585.5 c 128,-1,4
 115 625 115 625 134 653 c 128,-1,5
 153 681 153 681 173 697 c 128,-1,6
 193 713 193 713 224 722 c 0,7,8
 276 737 276 737 344 737 c 128,-1,9
 412 737 412 737 449 731 c 128,-1,10
 486 725 486 725 523 703.5 c 128,-1,11
 560 682 560 682 580 642 c 0,12,13
 626 552 626 552 626 361 c 0,14,15
 626 181 626 181 582 93 c 0,16,17
 562 53 562 53 526 31.5 c 128,-1,18
 490 10 490 10 451 3 c 128,-1,19
 412 -4 412 -4 357.5 -4 c 128,-1,20
 303 -4 303 -4 270 0 c 128,-1,21
 237 4 237 4 203 16.5 c 128,-1,22
 169 29 169 29 148.5 53.5 c 128,-1,23
 128 78 128 78 111 118 c 128,-1,0
 94 158 94 158 87 218 c 128,-1,1
127 481.5 m 128,-1,25
 121 429 121 429 121 341.5 c 128,-1,26
 121 254 121 254 132 190.5 c 128,-1,27
 143 127 143 127 173 92.5 c 128,-1,28
 203 58 203 58 243 47.5 c 128,-1,29
 283 37 283 37 345 37 c 128,-1,30
 407 37 407 37 441.5 44 c 128,-1,31
 476 51 476 51 506 70.5 c 128,-1,32
 536 90 536 90 552 126 c 0,33,34
 585 202 585 202 585 361 c 0,35,36
 585 523 585 523 558 588 c 0,37,38
 543 625 543 625 526.5 647 c 128,-1,39
 510 669 510 669 480 679.5 c 128,-1,40
 450 690 450 690 423.5 693 c 128,-1,41
 397 696 397 696 356.5 696 c 128,-1,42
 316 696 316 696 294.5 694.5 c 128,-1,43
 273 693 273 693 245 686 c 128,-1,44
 217 679 217 679 201 666 c 128,-1,45
 185 653 185 653 167.5 629 c 128,-1,46
 150 605 150 605 141.5 569.5 c 128,-1,24
 133 534 133 534 127 481.5 c 128,-1,25
538 -124 m 1,47,48
 509 -135 509 -135 477.5 -135 c 128,-1,49
 446 -135 446 -135 417.5 -125 c 128,-1,50
 389 -115 389 -115 366.5 -91 c 128,-1,51
 344 -67 344 -67 337 -33 c 1,52,-1
 364 -33 l 1,53,54
 383 -66 383 -66 413 -80 c 128,-1,55
 443 -94 443 -94 472 -94 c 128,-1,56
 501 -94 501 -94 538 -81 c 1,57,-1
 538 -124 l 1,47,48
EndSplineSet
Substitution2: "'c2sc' Capitals to Small Capitals in Latin lookup 2 subtable" q.smcp
EndChar

StartChar: R
Encoding: 82 82 53
Width: 580
GlyphClass: 2
Flags: W
LayerCount: 2
Fore
SplineSet
74 0 m 1,0,-1
 74 732 l 1,1,-1
 362 732 l 2,2,3
 457 732 457 732 499 674 c 1,4,5
 536 621 536 621 536 525 c 0,6,7
 536 377 536 377 464 336 c 0,8,9
 432 318 432 318 388 316 c 1,10,-1
 546 0 l 1,11,-1
 503 0 l 1,12,-1
 343 315 l 1,13,14
 122 321 122 321 115 326 c 1,15,-1
 115 0 l 1,16,-1
 74 0 l 1,0,-1
115 358 m 1,17,-1
 362 358 l 2,18,19
 392 358 392 358 412 363 c 128,-1,20
 432 368 432 368 452 384 c 0,21,22
 494 416 494 416 494 520 c 128,-1,23
 494 624 494 624 458 657 c 128,-1,24
 422 690 422 690 362 690 c 2,25,-1
 115 690 l 1,26,-1
 115 358 l 1,17,-1
EndSplineSet
Substitution2: "'c2sc' Capitals to Small Capitals in Latin lookup 2 subtable" r.smcp
EndChar

StartChar: S
Encoding: 83 83 54
Width: 585
GlyphClass: 2
Flags: W
LayerCount: 2
Fore
SplineSet
80 494 m 2,0,-1
 80 560 l 2,1,2
 80 661 80 661 130.5 699.5 c 128,-1,3
 181 738 181 738 276 738 c 128,-1,4
 371 738 371 738 506 717 c 1,5,-1
 506 688 l 1,6,-1
 275 697 l 2,7,8
 268 697 268 697 261 697 c 0,9,10
 195 697 195 697 158 669 c 128,-1,11
 121 641 121 641 121 560 c 2,12,-1
 121 494 l 2,13,14
 121 424 121 424 153 402 c 128,-1,15
 185 380 185 380 253 380 c 2,16,-1
 376 380 l 2,17,18
 467 380 467 380 501.5 338 c 128,-1,19
 536 296 536 296 536 224 c 2,20,-1
 536 156 l 2,21,22
 536 55 536 55 474 20 c 1,23,24
 422 -8 422 -8 340 -8 c 0,25,26
 301 -8 301 -8 217 -2 c 128,-1,27
 133 4 133 4 100 10 c 1,28,-1
 100 41 l 1,29,30
 186 33 186 33 278.5 33 c 128,-1,31
 371 33 371 33 395.5 37.5 c 128,-1,32
 420 42 420 42 444 54 c 0,33,34
 495 80 495 80 495 156 c 2,35,-1
 495 224 l 2,36,37
 495 282 495 282 467.5 310 c 128,-1,38
 440 338 440 338 376 338 c 2,39,-1
 255 338 l 2,40,41
 143 338 143 338 108 387 c 0,42,43
 91 411 91 411 85.5 435 c 128,-1,44
 80 459 80 459 80 494 c 2,0,-1
EndSplineSet
Substitution2: "'c2sc' Capitals to Small Capitals in Latin lookup 2 subtable" s.smcp
EndChar

StartChar: T
Encoding: 84 84 55
Width: 595
GlyphClass: 2
Flags: W
LayerCount: 2
Fore
SplineSet
46 691 m 1,0,-1
 46 732 l 1,1,-1
 561 732 l 1,2,-1
 561 691 l 1,3,-1
 321 691 l 1,4,-1
 321 0 l 1,5,-1
 280 0 l 1,6,-1
 280 691 l 1,7,-1
 46 691 l 1,0,-1
EndSplineSet
Substitution2: "'c2sc' Capitals to Small Capitals in Latin lookup 2 subtable" t.smcp
EndChar

StartChar: U
Encoding: 85 85 56
Width: 680
GlyphClass: 2
Flags: W
LayerCount: 2
Fore
SplineSet
98 320 m 2,0,-1
 98 732 l 1,1,-1
 139 732 l 1,2,-1
 139 320 l 2,3,4
 139 217 139 217 153 156.5 c 128,-1,5
 167 96 167 96 203 71 c 128,-1,6
 239 46 239 46 267.5 41 c 128,-1,7
 296 36 296 36 359 36 c 2,8,-1
 360 36 l 2,9,10
 475 36 475 36 511 76 c 0,11,12
 556 126 556 126 567 204 c 0,13,14
 574 254 574 254 574 320 c 2,15,-1
 574 732 l 1,16,-1
 616 732 l 1,17,-1
 616 320 l 2,18,19
 616 162 616 162 576 92 c 0,20,21
 562 68 562 68 549.5 51.5 c 128,-1,22
 537 35 537 35 516 24 c 128,-1,23
 495 13 495 13 480.5 7.5 c 128,-1,24
 466 2 466 2 441 -1 c 0,25,26
 408 -5 408 -5 383 -5 c 128,-1,27
 358 -5 358 -5 341 -5 c 128,-1,28
 324 -5 324 -5 309.5 -4.5 c 128,-1,29
 295 -4 295 -4 268.5 -1.5 c 128,-1,30
 242 1 242 1 228 6.5 c 128,-1,31
 214 12 214 12 193 23.5 c 128,-1,32
 172 35 172 35 160.5 51 c 128,-1,33
 149 67 149 67 135 91.5 c 128,-1,34
 121 116 121 116 114 148 c 0,35,36
 98 229 98 229 98 320 c 2,0,-1
EndSplineSet
Substitution2: "'c2sc' Capitals to Small Capitals in Latin lookup 2 subtable" u.smcp
EndChar

StartChar: V
Encoding: 86 86 57
Width: 662
GlyphClass: 2
Flags: W
LayerCount: 2
Fore
SplineSet
56 732 m 1,0,-1
 100 732 l 1,1,-1
 340 56 l 1,2,-1
 591 732 l 1,3,-1
 636 732 l 1,4,-1
 363 0 l 1,5,-1
 316 0 l 1,6,-1
 56 732 l 1,0,-1
EndSplineSet
Substitution2: "'c2sc' Capitals to Small Capitals in Latin lookup 2 subtable" v.smcp
EndChar

StartChar: W
Encoding: 87 87 58
Width: 967
GlyphClass: 2
Flags: W
LayerCount: 2
Fore
SplineSet
56 732 m 1,0,-1
 100 732 l 1,1,-1
 340 60 l 1,2,-1
 563 732 l 1,3,-1
 609 732 l 1,4,-1
 518 454 l 1,5,-1
 670 58 l 1,6,-1
 898 732 l 1,7,-1
 941 732 l 1,8,-1
 695 0 l 1,9,-1
 648 0 l 1,10,-1
 496 389 l 1,11,-1
 363 0 l 1,12,-1
 316 0 l 1,13,-1
 56 732 l 1,0,-1
EndSplineSet
Substitution2: "'c2sc' Capitals to Small Capitals in Latin lookup 2 subtable" w.smcp
EndChar

StartChar: X
Encoding: 88 88 59
Width: 575
GlyphClass: 2
Flags: W
LayerCount: 2
Fore
SplineSet
56 732 m 1,0,-1
 104 732 l 1,1,-1
 301 401 l 1,2,-1
 501 732 l 1,3,-1
 549 732 l 1,4,-1
 328 366 l 1,5,-1
 544 0 l 1,6,-1
 496 0 l 1,7,-1
 301 327 l 1,8,-1
 107 0 l 1,9,-1
 59 0 l 1,10,-1
 274 366 l 1,11,-1
 56 732 l 1,0,-1
EndSplineSet
AlternateSubs2: "'salt' Stylistic Alternatives in Latin lookup 16 subtable" X.salt
Substitution2: "'c2sc' Capitals to Small Capitals in Latin lookup 2 subtable" x.smcp
EndChar

StartChar: Y
Encoding: 89 89 60
Width: 622
GlyphClass: 2
Flags: W
LayerCount: 2
Fore
SplineSet
336 0 m 1,0,-1
 295 0 l 1,1,-1
 295 260 l 1,2,-1
 56 732 l 1,3,-1
 101 732 l 1,4,-1
 316 310 l 1,5,-1
 550 732 l 1,6,-1
 596 732 l 1,7,-1
 336 260 l 1,8,-1
 336 0 l 1,0,-1
EndSplineSet
Substitution2: "'c2sc' Capitals to Small Capitals in Latin lookup 2 subtable" y.smcp
EndChar

StartChar: Z
Encoding: 90 90 61
Width: 553
GlyphClass: 2
Flags: W
LayerCount: 2
Fore
SplineSet
43 0 m 1,0,-1
 43 41 l 1,1,-1
 463 691 l 1,2,-1
 43 691 l 1,3,-1
 43 732 l 1,4,-1
 516 732 l 1,5,-1
 516 691 l 1,6,-1
 96 41 l 1,7,-1
 516 41 l 1,8,-1
 516 0 l 1,9,-1
 43 0 l 1,0,-1
EndSplineSet
Substitution2: "'c2sc' Capitals to Small Capitals in Latin lookup 2 subtable" z.smcp
EndChar

StartChar: bracketleft
Encoding: 91 91 62
Width: 324
GlyphClass: 2
Flags: W
LayerCount: 2
Fore
SplineSet
105 -38 m 2,0,-1
 105 670 l 2,1,2
 105 728 105 728 127 778 c 0,3,4
 140 807 140 807 169 824.5 c 128,-1,5
 198 842 198 842 241 842 c 2,6,-1
 301 842 l 1,7,-1
 301 801 l 1,8,-1
 241 801 l 2,9,10
 197 801 197 801 171.5 768 c 128,-1,11
 146 735 146 735 146 670 c 2,12,-1
 146 -38 l 2,13,14
 146 -97 146 -97 169.5 -133 c 128,-1,15
 193 -169 193 -169 241 -169 c 2,16,-1
 301 -169 l 1,17,-1
 301 -210 l 1,18,-1
 241 -210 l 2,19,20
 198 -210 198 -210 169 -192.5 c 128,-1,21
 140 -175 140 -175 127 -146 c 0,22,23
 105 -96 105 -96 105 -38 c 2,0,-1
EndSplineSet
EndChar

StartChar: backslash
Encoding: 92 92 63
Width: 369
GlyphClass: 2
Flags: W
LayerCount: 2
Fore
SplineSet
25 770 m 1,0,-1
 64 770 l 1,1,-1
 345 -72 l 1,2,-1
 306 -72 l 1,3,-1
 25 770 l 1,0,-1
EndSplineSet
EndChar

StartChar: bracketright
Encoding: 93 93 64
Width: 324
GlyphClass: 2
Flags: W
LayerCount: 2
Fore
SplineSet
25 -169 m 1,0,-1
 85 -169 l 2,1,2
 133 -169 133 -169 156.5 -133 c 128,-1,3
 180 -97 180 -97 180 -38 c 2,4,-1
 180 670 l 2,5,6
 180 735 180 735 154.5 768 c 128,-1,7
 129 801 129 801 85 801 c 2,8,-1
 25 801 l 1,9,-1
 25 842 l 1,10,-1
 85 842 l 2,11,12
 128 842 128 842 157 824.5 c 128,-1,13
 186 807 186 807 199 778 c 0,14,15
 221 728 221 728 221 670 c 2,16,-1
 221 -38 l 2,17,18
 221 -96 221 -96 199 -146 c 0,19,20
 186 -175 186 -175 157 -192.5 c 128,-1,21
 128 -210 128 -210 85 -210 c 2,22,-1
 25 -210 l 1,23,-1
 25 -169 l 1,0,-1
EndSplineSet
EndChar

StartChar: asciicircum
Encoding: 94 94 65
Width: 401
GlyphClass: 2
Flags: W
LayerCount: 2
Fore
SplineSet
62 531 m 1,0,-1
 189 661 l 1,1,-1
 226 661 l 1,2,-1
 341 531 l 1,3,-1
 305 531 l 1,4,-1
 207 631 l 1,5,-1
 98 531 l 1,6,-1
 62 531 l 1,0,-1
EndSplineSet
EndChar

StartChar: underscore
Encoding: 95 95 66
Width: 663
GlyphClass: 2
Flags: W
LayerCount: 2
Fore
SplineSet
25 -1 m 1,0,-1
 25 40 l 1,1,-1
 639 40 l 1,2,-1
 639 -1 l 1,3,-1
 25 -1 l 1,0,-1
EndSplineSet
EndChar

StartChar: grave
Encoding: 96 96 67
Width: 214
GlyphClass: 2
Flags: W
LayerCount: 2
Fore
SplineSet
25 664 m 1,0,-1
 74 664 l 1,1,-1
 190 531 l 1,2,-1
 158 531 l 1,3,-1
 25 664 l 1,0,-1
EndSplineSet
Substitution2: "'smcp' Lowercase to Small Capitals lookup 1 subtable" grave.smcp
EndChar

StartChar: a
Encoding: 97 97 68
Width: 519
GlyphClass: 2
Flags: W
LayerCount: 2
Fore
SplineSet
66 510 m 1,0,1
 185 541 185 541 308 541 c 0,2,3
 373 541 373 541 415.5 503 c 128,-1,4
 458 465 458 465 458 387 c 2,5,-1
 458 0 l 1,6,-1
 430 0 l 1,7,-1
 417 64 l 1,8,-1
 402 57 l 1,9,10
 306 14 306 14 257.5 4 c 128,-1,11
 209 -6 209 -6 182 -6 c 0,12,13
 125 -6 125 -6 87 29 c 128,-1,14
 49 64 49 64 49 126 c 2,15,-1
 49 187 l 2,16,17
 49 249 49 249 84.5 284.5 c 128,-1,18
 120 320 120 320 182 320 c 0,19,20
 300 320 300 320 358.5 320 c 128,-1,21
 417 320 417 320 417 320 c 1,22,23
 418 353 418 353 418 369.5 c 128,-1,24
 418 386 418 386 417 387 c 1,25,26
 417 501 417 501 304 502 c 0,27,28
 300 502 300 502 296 502 c 0,29,30
 215 502 215 502 66 483 c 1,31,-1
 66 510 l 1,0,1
90 131 m 2,32,33
 90 81 90 81 117 58.5 c 128,-1,34
 144 36 144 36 181 35.5 c 128,-1,35
 218 35 218 35 276.5 49 c 128,-1,36
 335 63 335 63 376 78 c 2,37,-1
 417 92 l 1,38,-1
 417 291 l 1,39,-1
 182 279 l 2,40,41
 90 275 90 275 90 185 c 2,42,-1
 90 131 l 2,32,33
EndSplineSet
Substitution2: "'sups' Superscript lookup 17 subtable" a.superior
AlternateSubs2: "'salt' Stylistic Alternatives in Latin lookup 16 subtable" a.salt
Substitution2: "'smcp' Lowercase to Small Capitals lookup 1 subtable" a.smcp
EndChar

StartChar: b
Encoding: 98 98 69
Width: 552
GlyphClass: 2
Flags: W
LayerCount: 2
Fore
SplineSet
74 0 m 1,0,-1
 74 785 l 1,1,-1
 113 785 l 1,2,-1
 113 499 l 1,3,4
 158 517 158 517 215.5 528 c 128,-1,5
 273 539 273 539 310 539 c 0,6,7
 491 539 491 539 491 263 c 0,8,9
 491 162 491 162 455 84 c 0,10,11
 436 42 436 42 399 18 c 128,-1,12
 362 -6 362 -6 312.5 -6 c 128,-1,13
 263 -6 263 -6 200 17 c 128,-1,14
 137 40 137 40 114 59 c 1,15,-1
 100 0 l 1,16,-1
 74 0 l 1,0,-1
310 35 m 0,17,18
 372 35 372 35 411 92 c 128,-1,19
 450 149 450 149 450 272.5 c 128,-1,20
 450 396 450 396 412.5 447 c 128,-1,21
 375 498 375 498 310 498 c 0,22,23
 225 498 225 498 114 469 c 1,24,-1
 114 87 l 1,25,26
 224 35 224 35 310 35 c 0,17,18
EndSplineSet
Substitution2: "'sups' Superscript lookup 17 subtable" b.superior
AlternateSubs2: "'salt' Stylistic Alternatives in Latin lookup 16 subtable" b.salt
Substitution2: "'smcp' Lowercase to Small Capitals lookup 1 subtable" b.smcp
EndChar

StartChar: c
Encoding: 99 99 70
Width: 500
GlyphClass: 2
Flags: W
LayerCount: 2
Fore
SplineSet
62 266 m 128,-1,1
 62 350 62 350 74 405.5 c 128,-1,2
 86 461 86 461 111 488.5 c 128,-1,3
 136 516 136 516 165 526 c 128,-1,4
 194 536 194 536 258.5 536 c 128,-1,5
 323 536 323 536 444 510 c 1,6,-1
 444 482 l 1,7,8
 325 495 325 495 263.5 495 c 128,-1,9
 202 495 202 495 180.5 487.5 c 128,-1,10
 159 480 159 480 140 456 c 0,11,12
 103 411 103 411 103 262 c 0,13,14
 103 171 103 171 120.5 120 c 128,-1,15
 138 69 138 69 165 52.5 c 128,-1,16
 192 36 192 36 234 36 c 0,17,18
 318 36 318 36 418 50 c 1,19,-1
 452 54 l 1,20,-1
 452 24 l 1,21,22
 355 -4 355 -4 236 -5 c 0,23,24
 195 -5 195 -5 166.5 5 c 128,-1,25
 138 15 138 15 112.5 42.5 c 128,-1,26
 87 70 87 70 74.5 126 c 128,-1,0
 62 182 62 182 62 266 c 128,-1,1
EndSplineSet
Substitution2: "'sups' Superscript lookup 17 subtable" c.superior
Substitution2: "'smcp' Lowercase to Small Capitals lookup 1 subtable" c.smcp
EndChar

StartChar: d
Encoding: 100 100 71
Width: 552
GlyphClass: 2
Flags: W
LayerCount: 2
Fore
SplineSet
62 263 m 0,0,1
 62 539 62 539 243 539 c 0,2,3
 280 539 280 539 337.5 528 c 128,-1,4
 395 517 395 517 440 499 c 1,5,-1
 440 785 l 1,6,-1
 479 785 l 1,7,-1
 479 0 l 1,8,-1
 452 0 l 1,9,-1
 439 59 l 1,10,11
 416 40 416 40 353 17 c 128,-1,12
 290 -6 290 -6 240.5 -6 c 128,-1,13
 191 -6 191 -6 154 18 c 128,-1,14
 117 42 117 42 98 84 c 0,15,16
 62 162 62 162 62 263 c 0,0,1
140 447.5 m 128,-1,18
 103 397 103 397 103 271.5 c 128,-1,19
 103 146 103 146 141.5 90.5 c 128,-1,20
 180 35 180 35 243 35 c 0,21,22
 329 35 329 35 439 87 c 1,23,-1
 439 469 l 1,24,25
 328 498 328 498 243 498 c 0,26,17
 177 498 177 498 140 447.5 c 128,-1,18
EndSplineSet
Substitution2: "'sups' Superscript lookup 17 subtable" d.superior
AlternateSubs2: "'salt' Stylistic Alternatives in Latin lookup 16 subtable" d.salt
Substitution2: "'smcp' Lowercase to Small Capitals lookup 1 subtable" d.smcp
EndChar

StartChar: e
Encoding: 101 101 72
Width: 525
GlyphClass: 2
Flags: W
LayerCount: 2
Fore
SplineSet
62 268 m 0,0,1
 62 356 62 356 73 409 c 128,-1,2
 84 462 84 462 111.5 490 c 128,-1,3
 139 518 139 518 175 526.5 c 128,-1,4
 211 535 211 535 260 535 c 128,-1,5
 309 535 309 535 331.5 533 c 128,-1,6
 354 531 354 531 380 525 c 128,-1,7
 406 519 406 519 421.5 506.5 c 128,-1,8
 437 494 437 494 450 474 c 0,9,10
 476 436 476 436 476 347 c 0,11,12
 476 290 476 290 442.5 266 c 128,-1,13
 409 242 409 242 340 242 c 2,14,-1
 103 242 l 1,15,16
 103 157 103 157 120 110.5 c 128,-1,17
 137 64 137 64 163.5 50 c 128,-1,18
 190 36 190 36 236 36 c 0,19,20
 350 36 350 36 466 53 c 1,21,-1
 466 23 l 1,22,23
 368 -5 368 -5 252 -5 c 0,24,25
 244 -5 244 -5 236 -5 c 0,26,27
 136 -4 136 -4 99 55.5 c 128,-1,28
 62 115 62 115 62 268 c 0,0,1
103 282 m 1,29,-1
 340 282 l 2,30,31
 386 282 386 282 410.5 295 c 128,-1,32
 435 308 435 308 435 352.5 c 128,-1,33
 435 397 435 397 427 426.5 c 128,-1,34
 419 456 419 456 397 471 c 128,-1,35
 375 486 375 486 348.5 490 c 128,-1,36
 322 494 322 494 271 494 c 128,-1,37
 220 494 220 494 191.5 488 c 128,-1,38
 163 482 163 482 140.5 460 c 128,-1,39
 118 438 118 438 110.5 396.5 c 128,-1,40
 103 355 103 355 103 282 c 1,29,-1
EndSplineSet
Substitution2: "'sups' Superscript lookup 17 subtable" e.superior
Substitution2: "'smcp' Lowercase to Small Capitals lookup 1 subtable" e.smcp
EndChar

StartChar: f
Encoding: 102 102 73
Width: 389
GlyphClass: 2
Flags: W
LayerCount: 2
Fore
SplineSet
25 490 m 1,0,-1
 25 519 l 1,1,-1
 115 531 l 1,2,-1
 115 630 l 2,3,4
 115 713 115 713 138 748 c 1,5,6
 165 786 165 786 218 786 c 0,7,8
 315 786 315 786 365 771 c 1,9,-1
 365 745 l 1,10,-1
 229 746 l 2,11,12
 183 746 183 746 169.5 718 c 128,-1,13
 156 690 156 690 156 630 c 2,14,-1
 156 531 l 1,15,-1
 324 531 l 1,16,-1
 324 490 l 1,17,-1
 156 490 l 1,18,-1
 156 0 l 1,19,-1
 115 0 l 1,20,-1
 115 490 l 1,21,-1
 25 490 l 1,0,-1
EndSplineSet
Substitution2: "'sups' Superscript lookup 17 subtable" f.superior
AlternateSubs2: "'salt' Stylistic Alternatives in Latin lookup 16 subtable" f.salt
Substitution2: "'smcp' Lowercase to Small Capitals lookup 1 subtable" f.smcp
EndChar

StartChar: g
Encoding: 103 103 74
Width: 566
GlyphClass: 2
Flags: W
LayerCount: 2
Fore
SplineSet
72 159 m 0,0,1
 97 188 97 188 135 191 c 1,2,3
 58 227 58 227 58 344 c 0,4,5
 58 441 58 441 100 487 c 128,-1,6
 142 533 142 533 230 533 c 2,7,-1
 542 533 l 1,8,-1
 542 505 l 1,9,-1
 441 492 l 1,10,11
 478 456 478 456 487 407 c 0,12,13
 492 379 492 379 492 351 c 128,-1,14
 492 323 492 323 488.5 302 c 128,-1,15
 485 281 485 281 474.5 255.5 c 128,-1,16
 464 230 464 230 446.5 210.5 c 128,-1,17
 429 191 429 191 398.5 178 c 128,-1,18
 368 165 368 165 327 165 c 2,19,-1
 171 165 l 2,20,21
 125 165 125 165 107 143 c 0,22,23
 98 132 98 132 98 112.5 c 128,-1,24
 98 93 98 93 119.5 80.5 c 128,-1,25
 141 68 141 68 165 68 c 2,26,-1
 373 68 l 2,27,28
 440 68 440 68 476.5 31.5 c 128,-1,29
 513 -5 513 -5 513 -66 c 2,30,-1
 513 -123 l 2,31,32
 513 -270 513 -270 363 -270 c 2,33,-1
 213 -270 l 2,34,35
 115 -270 115 -270 76 -200 c 0,36,37
 56 -165 56 -165 56 -116 c 2,38,-1
 56 -25 l 1,39,-1
 77 67 l 1,40,41
 59 84 59 84 59 113.5 c 128,-1,42
 59 143 59 143 72 159 c 0,0,1
167 28 m 2,43,44
 125 28 125 28 97 50 c 1,45,-1
 97 -116 l 2,46,47
 97 -151 97 -151 109 -175 c 128,-1,48
 121 -199 121 -199 141 -210 c 0,49,50
 176 -230 176 -230 213 -230 c 2,51,-1
 363 -230 l 2,52,53
 473 -230 473 -230 473 -123 c 2,54,-1
 473 -68 l 2,55,56
 473 28 473 28 369 28 c 2,57,-1
 167 28 l 2,43,44
130 242 m 128,-1,59
 162 206 162 206 223 206 c 2,60,-1
 324 206 l 2,61,62
 421 206 421 206 445 295 c 1,63,64
 452 317 452 317 452 342 c 0,65,66
 452 416 452 416 425 454 c 128,-1,67
 398 492 398 492 352 492 c 2,68,-1
 223 492 l 2,69,70
 150 492 150 492 123 449 c 0,71,72
 98 411 98 411 98 344.5 c 128,-1,58
 98 278 98 278 130 242 c 128,-1,59
EndSplineSet
Substitution2: "'sups' Superscript lookup 17 subtable" g.superior
AlternateSubs2: "'salt' Stylistic Alternatives in Latin lookup 16 subtable" g.salt
Substitution2: "'smcp' Lowercase to Small Capitals lookup 1 subtable" g.smcp
EndChar

StartChar: h
Encoding: 104 104 75
Width: 549
GlyphClass: 2
Flags: W
LayerCount: 2
Fore
SplineSet
74 0 m 1,0,-1
 74 784 l 1,1,-1
 115 784 l 1,2,-1
 115 469 l 1,3,4
 228 540 228 540 324 540 c 0,5,6
 400 540 400 540 444 490 c 128,-1,7
 488 440 488 440 488 370 c 2,8,-1
 488 0 l 1,9,-1
 447 0 l 1,10,-1
 447 370 l 2,11,12
 447 429 447 429 414 464 c 128,-1,13
 381 499 381 499 323 499 c 128,-1,14
 265 499 265 499 221.5 485.5 c 128,-1,15
 178 472 178 472 115 439 c 1,16,-1
 115 0 l 1,17,-1
 74 0 l 1,0,-1
EndSplineSet
Substitution2: "'sups' Superscript lookup 17 subtable" h.superior
Substitution2: "'smcp' Lowercase to Small Capitals lookup 1 subtable" h.smcp
EndChar

StartChar: i
Encoding: 105 105 76
Width: 179
GlyphClass: 2
Flags: W
LayerCount: 2
Fore
SplineSet
62 620 m 2,0,-1
 62 680 l 2,1,2
 62 696 62 696 78 696 c 2,3,-1
 102 696 l 2,4,5
 117 696 117 696 117 680 c 2,6,-1
 117 620 l 2,7,8
 117 605 117 605 102 605 c 2,9,-1
 78 605 l 2,10,11
 62 605 62 605 62 620 c 2,0,-1
68 0 m 1,12,-1
 68 531 l 1,13,-1
 109 531 l 1,14,-1
 109 0 l 1,15,-1
 68 0 l 1,12,-1
EndSplineSet
Substitution2: "'sups' Superscript lookup 17 subtable" i.superior
Substitution2: "'smcp' Lowercase to Small Capitals lookup 1 subtable" i.smcp
EndChar

StartChar: j
Encoding: 106 106 77
Width: 203
GlyphClass: 2
Flags: W
LayerCount: 2
Fore
SplineSet
74 620 m 2,0,-1
 74 680 l 2,1,2
 74 696 74 696 90 696 c 2,3,-1
 114 696 l 2,4,5
 130 696 130 696 130 680 c 2,6,-1
 130 620 l 2,7,8
 130 605 130 605 114 605 c 2,9,-1
 90 605 l 2,10,11
 74 605 74 605 74 620 c 2,0,-1
82 -270 m 1,12,-1
 82 531 l 1,13,-1
 123 531 l 1,14,-1
 123 -4 l 2,15,16
 123 -20 123 -20 123 -35 c 0,17,18
 123 -179 123 -179 106 -270 c 1,19,-1
 82 -270 l 1,12,-1
EndSplineSet
Substitution2: "'sups' Superscript lookup 17 subtable" j.superior
Substitution2: "'smcp' Lowercase to Small Capitals lookup 1 subtable" j.smcp
EndChar

StartChar: k
Encoding: 107 107 78
Width: 498
GlyphClass: 2
Flags: W
LayerCount: 2
Fore
SplineSet
74 0 m 1,0,-1
 74 782 l 1,1,-1
 115 782 l 1,2,-1
 115 326 l 1,3,-1
 168 326 l 1,4,-1
 414 531 l 1,5,-1
 474 531 l 1,6,-1
 208 304 l 1,7,-1
 473 0 l 1,8,-1
 419 0 l 1,9,-1
 168 284 l 1,10,-1
 115 284 l 1,11,-1
 115 0 l 1,12,-1
 74 0 l 1,0,-1
EndSplineSet
Substitution2: "'sups' Superscript lookup 17 subtable" k.superior
Substitution2: "'smcp' Lowercase to Small Capitals lookup 1 subtable" k.smcp
EndChar

StartChar: l
Encoding: 108 108 79
Width: 298
GlyphClass: 2
Flags: W
LayerCount: 2
Fore
SplineSet
74 189 m 2,0,-1
 74 783 l 1,1,-1
 115 783 l 1,2,-1
 115 189 l 2,3,4
 115 94 115 94 144 66 c 0,5,6
 158 53 158 53 168.5 48.5 c 128,-1,7
 179 44 179 44 223 35.5 c 128,-1,8
 267 27 267 27 274 27 c 1,9,-1
 274 0 l 1,10,-1
 200 0 l 2,11,12
 137 0 137 0 105.5 45 c 128,-1,13
 74 90 74 90 74 189 c 2,0,-1
EndSplineSet
Substitution2: "'sups' Superscript lookup 17 subtable" l.superior
Substitution2: "'smcp' Lowercase to Small Capitals lookup 1 subtable" l.smcp
EndChar

StartChar: m
Encoding: 109 109 80
Width: 919
GlyphClass: 2
Flags: W
LayerCount: 2
Fore
SplineSet
74 0 m 1,0,-1
 74 531 l 1,1,-1
 101 531 l 1,2,-1
 115 468 l 1,3,4
 228 539 228 539 322 539 c 0,5,6
 371 539 371 539 409 517 c 128,-1,7
 447 495 447 495 466 458 c 1,8,9
 509 491 509 491 572.5 515 c 128,-1,10
 636 539 636 539 702.5 539 c 128,-1,11
 769 539 769 539 814 490 c 128,-1,12
 859 441 859 441 859 369 c 2,13,-1
 859 0 l 1,14,-1
 818 0 l 1,15,-1
 818 369 l 2,16,17
 818 424 818 424 784.5 461 c 128,-1,18
 751 498 751 498 695 498 c 0,19,20
 587 498 587 498 475 433 c 1,21,22
 486 408 486 408 486 369 c 2,23,-1
 486 0 l 1,24,-1
 445 0 l 1,25,-1
 445 369 l 2,26,27
 445 424 445 424 411.5 461 c 128,-1,28
 378 498 378 498 320.5 498 c 128,-1,29
 263 498 263 498 220 484.5 c 128,-1,30
 177 471 177 471 115 439 c 1,31,-1
 115 0 l 1,32,-1
 74 0 l 1,0,-1
EndSplineSet
Substitution2: "'sups' Superscript lookup 17 subtable" m.superior
AlternateSubs2: "'salt' Stylistic Alternatives in Latin lookup 16 subtable" m.salt
Substitution2: "'smcp' Lowercase to Small Capitals lookup 1 subtable" m.smcp
EndChar

StartChar: n
Encoding: 110 110 81
Width: 549
GlyphClass: 2
Flags: W
LayerCount: 2
Fore
SplineSet
74 0 m 1,0,-1
 74 531 l 1,1,-1
 101 531 l 1,2,-1
 115 469 l 1,3,4
 228 540 228 540 324 540 c 0,5,6
 400 540 400 540 444 490 c 128,-1,7
 488 440 488 440 488 370 c 2,8,-1
 488 0 l 1,9,-1
 447 0 l 1,10,-1
 447 370 l 2,11,12
 447 427 447 427 413.5 463 c 128,-1,13
 380 499 380 499 322.5 499 c 128,-1,14
 265 499 265 499 221.5 485.5 c 128,-1,15
 178 472 178 472 115 439 c 1,16,-1
 115 0 l 1,17,-1
 74 0 l 1,0,-1
EndSplineSet
Substitution2: "'sups' Superscript lookup 17 subtable" n.superior
AlternateSubs2: "'salt' Stylistic Alternatives in Latin lookup 16 subtable" n.salt
Substitution2: "'smcp' Lowercase to Small Capitals lookup 1 subtable" n.smcp
EndChar

StartChar: o
Encoding: 111 111 82
Width: 571
GlyphClass: 2
Flags: W
LayerCount: 2
Fore
SplineSet
108.5 53.5 m 128,-1,1
 62 112 62 112 62 265 c 128,-1,2
 62 418 62 418 111 477 c 128,-1,3
 160 536 160 536 286.5 536 c 128,-1,4
 413 536 413 536 461.5 472.5 c 128,-1,5
 510 409 510 409 510 260 c 128,-1,6
 510 111 510 111 461.5 53 c 128,-1,7
 413 -5 413 -5 284 -5 c 128,-1,0
 155 -5 155 -5 108.5 53.5 c 128,-1,1
114 386.5 m 128,-1,9
 103 338 103 338 103 261.5 c 128,-1,10
 103 185 103 185 114 139.5 c 128,-1,11
 125 94 125 94 150.5 72 c 128,-1,12
 176 50 176 50 205.5 43 c 128,-1,13
 235 36 235 36 285 36 c 128,-1,14
 335 36 335 36 365.5 43.5 c 128,-1,15
 396 51 396 51 422 74 c 0,16,17
 469 117 469 117 469 258 c 0,18,19
 469 410 469 410 422 455 c 0,20,21
 396 479 396 479 365.5 487 c 128,-1,22
 335 495 335 495 285 495 c 128,-1,23
 235 495 235 495 206 488.5 c 128,-1,24
 177 482 177 482 151 458.5 c 128,-1,8
 125 435 125 435 114 386.5 c 128,-1,9
EndSplineSet
Substitution2: "'sups' Superscript lookup 17 subtable" o.superior
Substitution2: "'smcp' Lowercase to Small Capitals lookup 1 subtable" o.smcp
EndChar

StartChar: p
Encoding: 112 112 83
Width: 552
GlyphClass: 2
Flags: W
LayerCount: 2
Fore
SplineSet
74 -269 m 1,0,-1
 74 531 l 1,1,-1
 100 531 l 1,2,-1
 114 472 l 1,3,4
 137 491 137 491 200 514 c 128,-1,5
 263 537 263 537 312.5 537 c 128,-1,6
 362 537 362 537 399 513 c 128,-1,7
 436 489 436 489 455 448 c 0,8,9
 491 369 491 369 491 268 c 0,10,11
 491 -8 491 -8 310 -8 c 0,12,13
 273 -8 273 -8 216 3 c 128,-1,14
 159 14 159 14 114 32 c 1,15,-1
 114 -269 l 1,16,-1
 74 -269 l 1,0,-1
310 33 m 0,17,18
 375 33 375 33 412.5 84 c 128,-1,19
 450 135 450 135 450 258.5 c 128,-1,20
 450 382 450 382 411 439 c 128,-1,21
 372 496 372 496 310 496 c 0,22,23
 224 496 224 496 114 444 c 1,24,-1
 114 62 l 1,25,26
 225 33 225 33 310 33 c 0,17,18
EndSplineSet
Substitution2: "'sups' Superscript lookup 17 subtable" p.superior
AlternateSubs2: "'salt' Stylistic Alternatives in Latin lookup 16 subtable" p.salt
Substitution2: "'smcp' Lowercase to Small Capitals lookup 1 subtable" p.smcp
EndChar

StartChar: q
Encoding: 113 113 84
Width: 556
GlyphClass: 2
Flags: W
LayerCount: 2
Fore
SplineSet
108 467 m 128,-1,1
 154 537 154 537 246 537 c 0,2,3
 374 537 374 537 484 521 c 1,4,-1
 484 -270 l 1,5,-1
 443 -270 l 1,6,-1
 443 29 l 1,7,8
 398 11 398 11 341 0.5 c 128,-1,9
 284 -10 284 -10 237 -10 c 128,-1,10
 190 -10 190 -10 153 10.5 c 128,-1,11
 116 31 116 31 96 70 c 0,12,13
 62 140 62 140 62 268.5 c 128,-1,0
 62 397 62 397 108 467 c 128,-1,1
103 268 m 0,14,15
 103 158 103 158 129 99 c 0,16,17
 159 31 159 31 243.5 31 c 128,-1,18
 328 31 328 31 443 60 c 1,19,-1
 443 496 l 1,20,-1
 246 496 l 2,21,22
 103 496 103 496 103 268 c 0,14,15
EndSplineSet
Substitution2: "'sups' Superscript lookup 17 subtable" q.superior
Substitution2: "'smcp' Lowercase to Small Capitals lookup 1 subtable" q.smcp
EndChar

StartChar: r
Encoding: 114 114 85
Width: 424
GlyphClass: 2
Flags: W
LayerCount: 2
Fore
SplineSet
74 0 m 1,0,-1
 74 531 l 1,1,-1
 100 531 l 1,2,-1
 115 464 l 1,3,4
 159 489 159 489 180.5 500 c 128,-1,5
 202 511 202 511 244 524 c 128,-1,6
 286 537 286 537 333.5 537 c 128,-1,7
 381 537 381 537 400 529 c 1,8,-1
 400 489 l 1,9,10
 365 496 365 496 336.5 496 c 128,-1,11
 308 496 308 496 292 494.5 c 128,-1,12
 276 493 276 493 259 489 c 128,-1,13
 242 485 242 485 231.5 482 c 128,-1,14
 221 479 221 479 202.5 471 c 128,-1,15
 184 463 184 463 176 460 c 0,16,17
 123 434 123 434 115 430 c 1,18,-1
 115 0 l 1,19,-1
 74 0 l 1,0,-1
EndSplineSet
Substitution2: "'sups' Superscript lookup 17 subtable" r.superior
AlternateSubs2: "'salt' Stylistic Alternatives in Latin lookup 16 subtable" r.salt
Substitution2: "'smcp' Lowercase to Small Capitals lookup 1 subtable" r.smcp
EndChar

StartChar: s
Encoding: 115 115 86
Width: 504
GlyphClass: 2
Flags: W
LayerCount: 2
Fore
SplineSet
49 361 m 2,0,-1
 49 407 l 2,1,2
 49 471 49 471 81 503.5 c 128,-1,3
 113 536 113 536 187 536 c 0,4,5
 314 536 314 536 428 525 c 1,6,-1
 428 496 l 1,7,-1
 187 496 l 2,8,9
 132 496 132 496 111 475 c 128,-1,10
 90 454 90 454 90 407 c 2,11,-1
 90 361 l 2,12,13
 90 307 90 307 116 295 c 0,14,15
 131 288 131 288 144.5 286.5 c 128,-1,16
 158 285 158 285 187 285 c 2,17,-1
 325 285 l 2,18,19
 385 285 385 285 420 253 c 128,-1,20
 455 221 455 221 455 165 c 2,21,-1
 455 116 l 2,22,23
 455 38 455 38 414 14 c 1,24,25
 379 -5 379 -5 334.5 -5 c 128,-1,26
 290 -5 290 -5 195.5 0 c 128,-1,27
 101 5 101 5 71 8 c 1,28,-1
 71 36 l 1,29,-1
 325 36 l 2,30,31
 374 36 374 36 392 52 c 0,32,33
 414 73 414 73 414 116 c 2,34,-1
 414 165 l 2,35,36
 414 200 414 200 391.5 222 c 128,-1,37
 369 244 369 244 325 244 c 2,38,-1
 187 244 l 2,39,40
 110 244 110 244 79.5 266 c 128,-1,41
 49 288 49 288 49 361 c 2,0,-1
EndSplineSet
Substitution2: "'sups' Superscript lookup 17 subtable" s.superior
Substitution2: "'smcp' Lowercase to Small Capitals lookup 1 subtable" s.smcp
EndChar

StartChar: t
Encoding: 116 116 87
Width: 359
GlyphClass: 2
Flags: W
LayerCount: 2
Fore
SplineSet
25 491 m 1,0,-1
 25 521 l 1,1,-1
 114 532 l 1,2,-1
 125 680 l 1,3,-1
 155 680 l 1,4,-1
 155 532 l 1,5,-1
 323 532 l 1,6,-1
 323 491 l 1,7,-1
 155 491 l 1,8,-1
 155 189 l 2,9,10
 155 94 155 94 184 66 c 0,11,12
 198 53 198 53 208.5 48.5 c 128,-1,13
 219 44 219 44 263 35.5 c 128,-1,14
 307 27 307 27 314 27 c 1,15,-1
 314 0 l 1,16,-1
 240 0 l 2,17,18
 177 0 177 0 145.5 45 c 128,-1,19
 114 90 114 90 114 189 c 2,20,-1
 114 491 l 1,21,-1
 25 491 l 1,0,-1
EndSplineSet
Substitution2: "'sups' Superscript lookup 17 subtable" t.superior
AlternateSubs2: "'salt' Stylistic Alternatives in Latin lookup 16 subtable" t.salt
Substitution2: "'smcp' Lowercase to Small Capitals lookup 1 subtable" t.smcp
EndChar

StartChar: u
Encoding: 117 117 88
Width: 549
GlyphClass: 2
Flags: W
LayerCount: 2
Fore
SplineSet
62 162 m 2,0,-1
 62 532 l 1,1,-1
 103 532 l 1,2,-1
 103 162 l 2,3,4
 103 105 103 105 136.5 69 c 128,-1,5
 170 33 170 33 228 33 c 128,-1,6
 286 33 286 33 329.5 46.5 c 128,-1,7
 373 60 373 60 435 92 c 1,8,-1
 435 532 l 1,9,-1
 476 532 l 1,10,-1
 476 1 l 1,11,-1
 449 1 l 1,12,-1
 435 63 l 1,13,14
 322 -8 322 -8 226 -8 c 0,15,16
 150 -8 150 -8 106 42 c 128,-1,17
 62 92 62 92 62 162 c 2,0,-1
EndSplineSet
Substitution2: "'sups' Superscript lookup 17 subtable" u.superior
AlternateSubs2: "'salt' Stylistic Alternatives in Latin lookup 16 subtable" u.salt
Substitution2: "'smcp' Lowercase to Small Capitals lookup 1 subtable" u.smcp
EndChar

StartChar: v
Encoding: 118 118 89
Width: 525
GlyphClass: 2
Flags: W
LayerCount: 2
Fore
SplineSet
25 531 m 1,0,-1
 68 531 l 1,1,-1
 261 59 l 1,2,-1
 457 531 l 1,3,-1
 501 531 l 1,4,-1
 282 0 l 1,5,-1
 240 0 l 1,6,-1
 25 531 l 1,0,-1
EndSplineSet
Substitution2: "'sups' Superscript lookup 17 subtable" v.superior
Substitution2: "'smcp' Lowercase to Small Capitals lookup 1 subtable" v.smcp
EndChar

StartChar: w
Encoding: 119 119 90
Width: 785
GlyphClass: 2
Flags: W
LayerCount: 2
Fore
SplineSet
25 531 m 1,0,-1
 69 531 l 1,1,-1
 251 57 l 1,2,-1
 424 531 l 1,3,-1
 467 531 l 1,4,-1
 400 342 l 1,5,-1
 529 57 l 1,6,-1
 718 531 l 1,7,-1
 761 531 l 1,8,-1
 552 0 l 1,9,-1
 509 0 l 1,10,-1
 380 289 l 1,11,-1
 274 0 l 1,12,-1
 230 0 l 1,13,-1
 25 531 l 1,0,-1
EndSplineSet
Substitution2: "'sups' Superscript lookup 17 subtable" w.superior
Substitution2: "'smcp' Lowercase to Small Capitals lookup 1 subtable" w.smcp
EndChar

StartChar: x
Encoding: 120 120 91
Width: 494
GlyphClass: 2
Flags: W
LayerCount: 2
Fore
SplineSet
29 0 m 1,0,-1
 221 266 l 1,1,-1
 29 531 l 1,2,-1
 82 531 l 1,3,-1
 247 301 l 1,4,-1
 413 531 l 1,5,-1
 466 531 l 1,6,-1
 273 265 l 1,7,-1
 463 0 l 1,8,-1
 413 0 l 1,9,-1
 247 229 l 1,10,-1
 82 0 l 1,11,-1
 29 0 l 1,0,-1
EndSplineSet
Substitution2: "'sups' Superscript lookup 17 subtable" x.superior
AlternateSubs2: "'salt' Stylistic Alternatives in Latin lookup 16 subtable" x.salt
Substitution2: "'smcp' Lowercase to Small Capitals lookup 1 subtable" x.smcp
EndChar

StartChar: y
Encoding: 121 121 92
Width: 537
GlyphClass: 2
Flags: W
LayerCount: 2
Fore
SplineSet
26 531 m 1,0,-1
 70 531 l 1,1,-1
 212 116 l 1,2,3
 238 44 238 44 290 42 c 1,4,-1
 301 43 l 1,5,-1
 466 531 l 1,6,-1
 510 531 l 1,7,-1
 277 -168 l 1,8,-1
 221 -270 l 1,9,-1
 197 -270 l 1,10,-1
 287 0 l 1,11,12
 202 4 202 4 169 110 c 1,13,-1
 26 531 l 1,0,-1
EndSplineSet
Substitution2: "'sups' Superscript lookup 17 subtable" y.superior
Substitution2: "'smcp' Lowercase to Small Capitals lookup 1 subtable" y.smcp
EndChar

StartChar: z
Encoding: 122 122 93
Width: 468
GlyphClass: 2
Flags: W
LayerCount: 2
Fore
SplineSet
37 490 m 1,0,-1
 37 531 l 1,1,-1
 433 531 l 1,2,-1
 433 490 l 1,3,-1
 105 42 l 1,4,-1
 433 42 l 1,5,-1
 433 1 l 1,6,-1
 52 1 l 1,7,-1
 52 42 l 1,8,-1
 380 490 l 1,9,-1
 37 490 l 1,0,-1
EndSplineSet
Substitution2: "'sups' Superscript lookup 17 subtable" z.superior
Substitution2: "'smcp' Lowercase to Small Capitals lookup 1 subtable" z.smcp
EndChar

StartChar: braceleft
Encoding: 123 123 94
Width: 309
GlyphClass: 2
Flags: W
LayerCount: 2
Fore
SplineSet
115 420 m 2,0,-1
 115 656 l 2,1,2
 115 738 115 738 154 790 c 128,-1,3
 193 842 193 842 285 842 c 1,4,-1
 285 801 l 1,5,6
 221 801 221 801 188.5 768 c 128,-1,7
 156 735 156 735 156 656 c 2,8,-1
 156 420 l 2,9,10
 156 385 156 385 132.5 362.5 c 128,-1,11
 109 340 109 340 74 334 c 1,12,13
 108 329 108 329 131.5 305.5 c 128,-1,14
 155 282 155 282 155 251 c 2,15,-1
 155 -38 l 2,16,17
 155 -109 155 -109 187 -139 c 128,-1,18
 219 -169 219 -169 281 -169 c 0,19,20
 283 -169 283 -169 285 -169 c 1,21,-1
 285 -210 l 1,22,23
 179 -210 179 -210 143 -152 c 0,24,25
 114 -106 114 -106 114 -38 c 2,26,-1
 114 247 l 2,27,28
 114 279 114 279 87.5 296 c 128,-1,29
 61 313 61 313 32 313 c 0,30,31
 28 313 28 313 25 313 c 1,32,-1
 25 354 l 1,33,34
 115 362 115 362 115 420 c 2,0,-1
EndSplineSet
EndChar

StartChar: bar
Encoding: 124 124 95
Width: 250
GlyphClass: 2
Flags: W
LayerCount: 2
Fore
SplineSet
106 -72 m 1,0,-1
 106 770 l 1,1,-1
 147 770 l 1,2,-1
 147 -72 l 1,3,-1
 106 -72 l 1,0,-1
EndSplineSet
EndChar

StartChar: braceright
Encoding: 125 125 96
Width: 309
GlyphClass: 2
Flags: W
LayerCount: 2
Fore
SplineSet
29 -169 m 0,0,1
 91 -169 91 -169 123 -139 c 128,-1,2
 155 -109 155 -109 155 -38 c 2,3,-1
 155 251 l 2,4,5
 155 282 155 282 178.5 305.5 c 128,-1,6
 202 329 202 329 236 334 c 1,7,8
 201 340 201 340 177.5 362.5 c 128,-1,9
 154 385 154 385 154 420 c 2,10,-1
 154 656 l 2,11,12
 154 735 154 735 121.5 768 c 128,-1,13
 89 801 89 801 25 801 c 1,14,-1
 25 842 l 1,15,16
 117 842 117 842 156 790 c 128,-1,17
 195 738 195 738 195 656 c 2,18,-1
 195 420 l 2,19,20
 195 362 195 362 285 354 c 1,21,-1
 285 313 l 1,22,23
 282 313 282 313 278 313 c 0,24,25
 249 313 249 313 222.5 296 c 128,-1,26
 196 279 196 279 196 247 c 2,27,-1
 196 -38 l 2,28,29
 196 -161 196 -161 114 -195 c 0,30,31
 78 -210 78 -210 25 -210 c 1,32,-1
 25 -169 l 1,33,34
 27 -169 27 -169 29 -169 c 0,0,1
EndSplineSet
EndChar

StartChar: asciitilde
Encoding: 126 126 97
Width: 461
GlyphClass: 2
Flags: W
LayerCount: 2
Fore
SplineSet
233.5 603 m 128,-1,1
 274 573 274 573 287 573 c 128,-1,2
 300 573 300 573 310 575.5 c 128,-1,3
 320 578 320 578 327.5 581.5 c 128,-1,4
 335 585 335 585 345.5 591 c 128,-1,5
 356 597 356 597 360.5 601 c 128,-1,6
 365 605 365 605 375.5 612.5 c 128,-1,7
 386 620 386 620 388 622 c 1,8,-1
 400 603 l 1,9,10
 398 601 398 601 390.5 594 c 128,-1,11
 383 587 383 587 381 584.5 c 128,-1,12
 379 582 379 582 372 575.5 c 128,-1,13
 365 569 365 569 361.5 567 c 128,-1,14
 358 565 358 565 351 559.5 c 128,-1,15
 344 554 344 554 340 552 c 2,16,-1
 329 546 l 1,17,18
 312 538 312 538 290 538 c 128,-1,19
 268 538 268 538 228 568 c 128,-1,20
 188 598 188 598 173 598 c 128,-1,21
 158 598 158 598 144 593.5 c 128,-1,22
 130 589 130 589 122 584.5 c 128,-1,23
 114 580 114 580 96.5 568.5 c 128,-1,24
 79 557 79 557 72 553 c 1,25,-1
 62 572 l 1,26,27
 72 582 72 582 91 597 c 128,-1,28
 110 612 110 612 114 614.5 c 128,-1,29
 118 617 118 617 127 622 c 128,-1,30
 136 627 136 627 142 628 c 0,31,32
 160 633 160 633 176.5 633 c 128,-1,0
 193 633 193 633 233.5 603 c 128,-1,1
EndSplineSet
EndChar

StartChar: exclamdown
Encoding: 161 161 98
Width: 267
GlyphClass: 2
Flags: W
LayerCount: 2
Fore
SplineSet
102 386 m 2,0,-1
 102 446 l 2,1,2
 102 460 102 460 118 460 c 2,3,-1
 142 460 l 2,4,5
 158 460 158 460 158 445 c 2,6,-1
 158 387 l 2,7,8
 158 369 158 369 142 369 c 2,9,-1
 118 369 l 2,10,11
 102 369 102 369 102 386 c 2,0,-1
108 -270 m 1,12,-1
 114 264 l 1,13,-1
 147 264 l 1,14,-1
 153 -270 l 1,15,-1
 108 -270 l 1,12,-1
EndSplineSet
Substitution2: "'case' Case-Sensitive Forms lookup 18 subtable" exclamdown.alt
Substitution2: "'smcp' Lowercase to Small Capitals lookup 1 subtable" exclamdown.smcp
EndChar

StartChar: cent
Encoding: 162 162 99
Width: 488
GlyphClass: 2
Flags: W
LayerCount: 2
Fore
SplineSet
58.5 144.5 m 128,-1,1
 49 195 49 195 49 274 c 128,-1,2
 49 353 49 353 62 409.5 c 128,-1,3
 75 466 75 466 102.5 493 c 128,-1,4
 130 520 130 520 160 528.5 c 128,-1,5
 190 537 190 537 213 537 c 128,-1,6
 236 537 236 537 241 537 c 1,7,-1
 241 623 l 1,8,-1
 273 623 l 1,9,-1
 273 534 l 1,10,11
 359 527 359 527 432 510 c 1,12,-1
 432 482 l 1,13,14
 313 496 313 496 251.5 496 c 128,-1,15
 190 496 190 496 168.5 488 c 128,-1,16
 147 480 147 480 128 457 c 0,17,18
 90 413 90 413 90 262 c 0,19,20
 90 125 90 125 127 78 c 0,21,22
 146 54 146 54 168.5 44.5 c 128,-1,23
 191 35 191 35 228 35 c 0,24,25
 305 35 305 35 406 48 c 1,26,-1
 439 53 l 1,27,-1
 439 23 l 1,28,29
 358 -1 358 -1 273 -4 c 1,30,-1
 273 -87 l 1,31,-1
 241 -87 l 1,32,-1
 241 -6 l 1,33,34
 203 -6 203 -6 176.5 -1.5 c 128,-1,35
 150 3 150 3 124 19.5 c 128,-1,36
 98 36 98 36 83 65 c 128,-1,0
 68 94 68 94 58.5 144.5 c 128,-1,1
EndSplineSet
EndChar

StartChar: sterling
Encoding: 163 163 100
Width: 599
GlyphClass: 2
Flags: W
LayerCount: 2
Fore
SplineSet
62 0 m 1,0,-1
 62 29 l 1,1,-1
 134 41 l 1,2,-1
 134 343 l 1,3,-1
 62 343 l 1,4,-1
 62 368 l 1,5,-1
 134 379 l 1,6,-1
 134 505 l 2,7,8
 134 635 134 635 183 684 c 0,9,10
 214 715 214 715 250 722 c 0,11,12
 302 732 302 732 344 732 c 0,13,14
 399 732 399 732 506 724 c 1,15,-1
 538 721 l 1,16,-1
 538 692 l 1,17,-1
 364 692 l 2,18,19
 284 692 284 692 250 679 c 128,-1,20
 216 666 216 666 204 646 c 0,21,22
 175 599 175 599 175 505 c 2,23,-1
 175 379 l 1,24,-1
 458 368 l 1,25,-1
 458 343 l 1,26,-1
 175 343 l 1,27,-1
 175 41 l 1,28,-1
 536 41 l 1,29,-1
 536 0 l 1,30,-1
 62 0 l 1,0,-1
EndSplineSet
Substitution2: "'smcp' Lowercase to Small Capitals lookup 1 subtable" sterling.smcp
EndChar

StartChar: currency
Encoding: 164 164 101
Width: 463
GlyphClass: 2
Flags: W
LayerCount: 2
Fore
SplineSet
127 437 m 1,0,1
 172 476 172 476 232 476 c 128,-1,2
 292 476 292 476 336 438 c 1,3,-1
 382 483 l 1,4,-1
 399 463 l 1,5,-1
 354 419 l 1,6,7
 393 375 393 375 393 315 c 128,-1,8
 393 255 393 255 356 207 c 1,9,-1
 399 164 l 1,10,-1
 379 146 l 1,11,-1
 338 188 l 1,12,13
 292 144 292 144 231 144 c 128,-1,14
 170 144 170 144 123 189 c 1,15,-1
 82 147 l 1,16,-1
 64 166 l 1,17,-1
 105 208 l 1,18,19
 69 253 69 253 69 313.5 c 128,-1,20
 69 374 69 374 109 419 c 1,21,-1
 63 464 l 1,22,-1
 82 482 l 1,23,-1
 127 437 l 1,0,1
137.5 407 m 128,-1,25
 98 368 98 368 98 312.5 c 128,-1,26
 98 257 98 257 136.5 215.5 c 128,-1,27
 175 174 175 174 231 174 c 128,-1,28
 287 174 287 174 325.5 215.5 c 128,-1,29
 364 257 364 257 364 313 c 128,-1,30
 364 369 364 369 325.5 407.5 c 128,-1,31
 287 446 287 446 232 446 c 128,-1,24
 177 446 177 446 137.5 407 c 128,-1,25
EndSplineSet
EndChar

StartChar: yen
Encoding: 165 165 102
Width: 589
GlyphClass: 2
Flags: W
LayerCount: 2
Fore
SplineSet
504 321 m 1,0,-1
 504 292 l 1,1,-1
 305 292 l 1,2,-1
 305 212 l 1,3,-1
 504 212 l 1,4,-1
 504 183 l 1,5,-1
 305 183 l 1,6,-1
 305 0 l 1,7,-1
 264 0 l 1,8,-1
 264 183 l 1,9,-1
 77 183 l 1,10,-1
 77 212 l 1,11,-1
 264 212 l 1,12,-1
 264 292 l 1,13,-1
 77 292 l 1,14,-1
 77 321 l 1,15,-1
 263 321 l 1,16,-1
 25 732 l 1,17,-1
 71 732 l 1,18,-1
 285 362 l 1,19,-1
 516 732 l 1,20,-1
 565 732 l 1,21,-1
 306 321 l 1,22,-1
 504 321 l 1,0,-1
EndSplineSet
Substitution2: "'smcp' Lowercase to Small Capitals lookup 1 subtable" yen.smcp
EndChar

StartChar: brokenbar
Encoding: 166 166 103
Width: 252
GlyphClass: 2
Flags: W
LayerCount: 2
Fore
SplineSet
106 -72 m 1,0,-1
 106 256 l 1,1,-1
 147 256 l 1,2,-1
 147 -72 l 1,3,-1
 106 -72 l 1,0,-1
106 429 m 1,4,-1
 106 770 l 1,5,-1
 147 770 l 1,6,-1
 147 429 l 1,7,-1
 106 429 l 1,4,-1
EndSplineSet
EndChar

StartChar: section
Encoding: 167 167 104
Width: 556
GlyphClass: 2
Flags: W
LayerCount: 2
Fore
SplineSet
68 353 m 2,0,-1
 68 415 l 2,1,2
 68 497 68 497 119 508 c 1,3,4
 68 520 68 520 68 590 c 2,5,-1
 68 660 l 2,6,7
 68 727 68 727 105 755.5 c 128,-1,8
 142 784 142 784 187.5 784 c 128,-1,9
 233 784 233 784 327.5 779 c 128,-1,10
 422 774 422 774 452 771 c 1,11,-1
 452 743 l 1,12,-1
 198 743 l 2,13,14
 109 743 109 743 109 660 c 2,15,-1
 109 590 l 2,16,17
 109 552 109 552 130.5 539 c 128,-1,18
 152 526 152 526 198 526 c 2,19,-1
 357 526 l 2,20,21
 438 526 438 526 464.5 500.5 c 128,-1,22
 491 475 491 475 490 416 c 1,23,-1
 490 354 l 2,24,25
 490 270 490 270 441 265 c 1,26,27
 471 259 471 259 480 237.5 c 128,-1,28
 489 216 489 216 489 183 c 2,29,-1
 489 110 l 2,30,31
 489 32 489 32 444 10 c 0,32,33
 407 -8 407 -8 361.5 -8 c 128,-1,34
 316 -8 316 -8 225.5 -3 c 128,-1,35
 135 2 135 2 105 5 c 1,36,-1
 105 33 l 1,37,-1
 351 33 l 2,38,39
 399 33 399 33 423.5 49.5 c 128,-1,40
 448 66 448 66 448 110 c 2,41,-1
 448 183 l 2,42,43
 448 223 448 223 431.5 234.5 c 128,-1,44
 415 246 415 246 357 246 c 2,45,-1
 198 246 l 2,46,47
 162 246 162 246 143 248.5 c 128,-1,48
 124 251 124 251 104 261 c 0,49,50
 68 279 68 279 68 353 c 2,0,-1
109 353 m 2,51,52
 109 308 109 308 126 298 c 128,-1,53
 143 288 143 288 198 288 c 2,54,-1
 357 288 l 2,55,56
 419 288 419 288 433.5 299.5 c 128,-1,57
 448 311 448 311 448 354 c 2,58,-1
 448 416 l 2,59,60
 448 458 448 458 431 472 c 128,-1,61
 414 486 414 486 357 486 c 2,62,-1
 198 486 l 2,63,64
 145 486 145 486 127 474.5 c 128,-1,65
 109 463 109 463 109 414 c 2,66,-1
 109 353 l 2,51,52
EndSplineSet
EndChar

StartChar: dieresis
Encoding: 168 168 105
Width: 434
GlyphClass: 2
Flags: W
LayerCount: 2
Fore
SplineSet
62 582 m 128,-1,1
 62 594 62 594 70 602 c 128,-1,2
 78 610 78 610 90 610 c 128,-1,3
 102 610 102 610 110.5 602 c 128,-1,4
 119 594 119 594 119 582 c 128,-1,5
 119 570 119 570 110.5 561.5 c 128,-1,6
 102 553 102 553 90 553 c 128,-1,7
 78 553 78 553 70 561.5 c 128,-1,0
 62 570 62 570 62 582 c 128,-1,1
316 582 m 128,-1,9
 316 594 316 594 324.5 602 c 128,-1,10
 333 610 333 610 345 610 c 128,-1,11
 357 610 357 610 365.5 602 c 128,-1,12
 374 594 374 594 374 582 c 128,-1,13
 374 570 374 570 365.5 561.5 c 128,-1,14
 357 553 357 553 345 553 c 128,-1,15
 333 553 333 553 324.5 561.5 c 128,-1,8
 316 570 316 570 316 582 c 128,-1,9
EndSplineSet
Substitution2: "'smcp' Lowercase to Small Capitals lookup 1 subtable" dieresis.smcp
EndChar

StartChar: copyright
Encoding: 169 169 106
Width: 845
GlyphClass: 2
Flags: W
LayerCount: 2
Fore
SplineSet
74.5 278 m 128,-1,1
 68 324 68 324 68 380 c 128,-1,2
 68 436 68 436 78.5 495 c 128,-1,3
 89 554 89 554 113.5 610 c 128,-1,4
 138 666 138 666 187 699 c 128,-1,5
 236 732 236 732 304 732 c 2,6,-1
 565 732 l 2,7,8
 778 732 778 732 778 368 c 0,9,10
 778 151 778 151 686 53 c 0,11,12
 637 0 637 0 565 0 c 2,13,-1
 304 0 l 2,14,15
 251 0 251 0 209 25.5 c 128,-1,16
 167 51 167 51 141.5 90.5 c 128,-1,17
 116 130 116 130 98.5 181 c 128,-1,0
 81 232 81 232 74.5 278 c 128,-1,1
304 31 m 2,18,-1
 565 31 l 2,19,20
 644 31 644 31 695.5 119.5 c 128,-1,21
 747 208 747 208 747 368 c 0,22,23
 747 504 747 504 710 596 c 1,24,25
 691 646 691 646 654 673.5 c 128,-1,26
 617 701 617 701 565 701 c 2,27,-1
 304 701 l 2,28,29
 221 701 221 701 164 633 c 0,30,31
 101 557 101 557 99 368 c 1,32,33
 99 242 99 242 148 143 c 0,34,35
 172 93 172 93 212.5 62 c 128,-1,36
 253 31 253 31 304 31 c 2,18,-1
282.5 194.5 m 128,-1,38
 244 242 244 242 244 360.5 c 128,-1,39
 244 479 244 479 283 531 c 128,-1,40
 322 583 322 583 391 583 c 128,-1,41
 460 583 460 583 566 564 c 1,42,-1
 566 540 l 1,43,44
 482 552 482 552 388 552 c 0,45,46
 275 552 275 552 275 362 c 0,47,48
 275 273 275 273 301 225.5 c 128,-1,49
 327 178 327 178 388 178 c 0,50,51
 496 178 496 178 572 194 c 1,52,-1
 572 170 l 1,53,54
 490 147 490 147 388 147 c 0,55,37
 321 147 321 147 282.5 194.5 c 128,-1,38
EndSplineSet
EndChar

StartChar: ordfeminine
Encoding: 170 170 107
Width: 361
GlyphClass: 3
Flags: W
LayerCount: 2
Fore
SplineSet
37 283 m 1,0,-1
 37 311 l 1,1,-1
 325 311 l 1,2,-1
 325 283 l 1,3,-1
 37 283 l 1,0,-1
49 717 m 1,4,5
 137 739 137 739 198 739 c 0,6,7
 323 739 323 739 323 636 c 2,8,-1
 323 378 l 1,9,-1
 303 378 l 1,10,-1
 291 427 l 1,11,-1
 280 422 l 1,12,13
 190 374 190 374 143 374 c 128,-1,14
 96 374 96 374 66.5 397.5 c 128,-1,15
 37 421 37 421 37 463 c 2,16,-1
 37 509 l 2,17,18
 37 550 37 550 64 574.5 c 128,-1,19
 91 599 91 599 137 599 c 0,20,21
 214 598 214 598 252.5 598 c 128,-1,22
 291 598 291 598 291 599 c 0,23,24
 292 614 292 614 292 622 c 128,-1,25
 292 630 292 630 291 631 c 1,26,27
 291 709 291 709 199 709 c 0,28,29
 139 709 139 709 49 696 c 1,30,-1
 49 717 l 1,4,5
69 469 m 2,31,32
 69 406 69 406 143 406 c 0,33,34
 170 406 170 406 207 416.5 c 128,-1,35
 244 427 244 427 268 438 c 2,36,-1
 291 448 l 1,37,-1
 291 577 l 1,38,-1
 143 571 l 2,39,40
 69 569 69 569 69 503 c 2,41,-1
 69 469 l 2,31,32
EndSplineSet
Substitution2: "'smcp' Lowercase to Small Capitals lookup 1 subtable" ordfeminine.smcp
Ligature2: "'ordn' Ordinals lookup 0 subtable" a
EndChar

StartChar: guillemotleft
Encoding: 171 171 108
Width: 548
GlyphClass: 2
Flags: W
LayerCount: 2
Fore
SplineSet
62 354 m 1,0,-1
 267 558 l 1,1,-1
 296 529 l 1,2,-1
 119 354 l 1,3,-1
 302 175 l 1,4,-1
 272 145 l 1,5,-1
 62 354 l 1,0,-1
247 354 m 1,6,-1
 453 558 l 1,7,-1
 481 529 l 1,8,-1
 304 354 l 1,9,-1
 486 175 l 1,10,-1
 457 145 l 1,11,-1
 247 354 l 1,6,-1
EndSplineSet
EndChar

StartChar: logicalnot
Encoding: 172 172 109
Width: 530
GlyphClass: 2
Flags: W
LayerCount: 2
Fore
SplineSet
62 272 m 1,0,-1
 62 314 l 1,1,-1
 468 314 l 1,2,-1
 468 159 l 1,3,-1
 427 159 l 1,4,-1
 427 272 l 1,5,-1
 62 272 l 1,0,-1
EndSplineSet
EndChar

StartChar: uni00AD
Encoding: 173 173 110
Width: 363
GlyphClass: 2
Flags: W
LayerCount: 2
Fore
SplineSet
25 270 m 1,0,-1
 25 310 l 1,1,-1
 339 310 l 1,2,-1
 339 270 l 1,3,-1
 25 270 l 1,0,-1
EndSplineSet
Substitution2: "'case' Case-Sensitive Forms lookup 18 subtable" uni00AD.alt
Substitution2: "'c2sc' Capitals to Small Capitals in Latin lookup 2 subtable" uni00AD.smcp
Substitution2: "'smcp' Lowercase to Small Capitals lookup 1 subtable" uni00AD.smcp
EndChar

StartChar: registered
Encoding: 174 174 111
Width: 845
GlyphClass: 2
Flags: W
LayerCount: 2
Fore
SplineSet
74.5 278 m 128,-1,1
 68 324 68 324 68 380 c 128,-1,2
 68 436 68 436 78.5 495 c 128,-1,3
 89 554 89 554 113.5 610 c 128,-1,4
 138 666 138 666 187 699 c 128,-1,5
 236 732 236 732 304 732 c 2,6,-1
 565 732 l 2,7,8
 778 732 778 732 778 368 c 0,9,10
 778 151 778 151 686 53 c 0,11,12
 637 0 637 0 565 0 c 2,13,-1
 304 0 l 2,14,15
 251 0 251 0 209 25.5 c 128,-1,16
 167 51 167 51 141.5 90.5 c 128,-1,17
 116 130 116 130 98.5 181 c 128,-1,0
 81 232 81 232 74.5 278 c 128,-1,1
304 31 m 2,18,-1
 565 31 l 2,19,20
 644 31 644 31 695.5 119.5 c 128,-1,21
 747 208 747 208 747 368 c 0,22,23
 747 504 747 504 710 596 c 1,24,25
 691 646 691 646 654 673.5 c 128,-1,26
 617 701 617 701 565 701 c 2,27,-1
 304 701 l 2,28,29
 221 701 221 701 164 633 c 0,30,31
 101 557 101 557 99 368 c 1,32,33
 99 242 99 242 148 143 c 0,34,35
 172 93 172 93 212.5 62 c 128,-1,36
 253 31 253 31 304 31 c 2,18,-1
277 153 m 1,37,-1
 277 580 l 1,38,-1
 454 580 l 2,39,40
 512 580 512 580 546.5 553 c 128,-1,41
 581 526 581 526 581 453 c 0,42,43
 581 391 581 391 556 367 c 0,44,45
 546 358 546 358 540.5 353.5 c 128,-1,46
 535 349 535 349 522.5 345.5 c 128,-1,47
 510 342 510 342 506 342 c 0,48,49
 478 338 478 338 475 338 c 1,50,-1
 580 153 l 1,51,-1
 544 153 l 1,52,-1
 440 338 l 1,53,-1
 308 345 l 1,54,-1
 308 153 l 1,55,-1
 277 153 l 1,37,-1
308 366 m 1,56,-1
 460 366 l 2,57,58
 510 366 510 366 530 383 c 128,-1,59
 550 400 550 400 550 453 c 128,-1,60
 550 506 550 506 526.5 527.5 c 128,-1,61
 503 549 503 549 460 549 c 2,62,-1
 308 549 l 1,63,-1
 308 366 l 1,56,-1
EndSplineSet
EndChar

StartChar: macron
Encoding: 175 175 112
Width: 388
GlyphClass: 2
Flags: W
LayerCount: 2
Fore
SplineSet
62 531 m 1,0,-1
 62 562 l 1,1,-1
 327 562 l 1,2,-1
 327 531 l 1,3,-1
 62 531 l 1,0,-1
EndSplineSet
Substitution2: "'smcp' Lowercase to Small Capitals lookup 1 subtable" macron.smcp
EndChar

StartChar: degree
Encoding: 176 176 113
Width: 326
GlyphClass: 2
Flags: W
LayerCount: 2
Fore
SplineSet
62 632 m 128,-1,1
 62 675 62 675 92 705 c 128,-1,2
 122 735 122 735 164 735 c 128,-1,3
 206 735 206 735 235 705 c 128,-1,4
 264 675 264 675 264 632 c 128,-1,5
 264 589 264 589 235 559.5 c 128,-1,6
 206 530 206 530 164 530 c 128,-1,7
 122 530 122 530 92 559.5 c 128,-1,0
 62 589 62 589 62 632 c 128,-1,1
109.5 686.5 m 128,-1,9
 87 664 87 664 87 632.5 c 128,-1,10
 87 601 87 601 109.5 578.5 c 128,-1,11
 132 556 132 556 163.5 556 c 128,-1,12
 195 556 195 556 217 578 c 128,-1,13
 239 600 239 600 239 632 c 128,-1,14
 239 664 239 664 217 686.5 c 128,-1,15
 195 709 195 709 163.5 709 c 128,-1,8
 132 709 132 709 109.5 686.5 c 128,-1,9
EndSplineSet
Substitution2: "'smcp' Lowercase to Small Capitals lookup 1 subtable" degree.smcp
EndChar

StartChar: plusminus
Encoding: 177 177 114
Width: 532
GlyphClass: 2
Flags: W
LayerCount: 2
Fore
SplineSet
69 120 m 1,0,-1
 69 161 l 1,1,-1
 465 161 l 1,2,-1
 465 120 l 1,3,-1
 69 120 l 1,0,-1
69 403 m 1,4,-1
 69 444 l 1,5,-1
 246 444 l 1,6,-1
 246 621 l 1,7,-1
 287 621 l 1,8,-1
 287 444 l 1,9,-1
 465 444 l 1,10,-1
 465 403 l 1,11,-1
 287 403 l 1,12,-1
 287 225 l 1,13,-1
 246 225 l 1,14,-1
 246 403 l 1,15,-1
 69 403 l 1,4,-1
EndSplineSet
EndChar

StartChar: twosuperior
Encoding: 178 178 115
Width: 402
GlyphClass: 2
Flags: W
LayerCount: 2
Fore
SplineSet
39 822 m 2,0,1
 37 822 37 822 37 828 c 128,-1,2
 37 834 37 834 39 845 c 1,3,4
 122 855 122 855 222 855 c 0,5,6
 352 855 352 855 352 719 c 0,7,8
 352 678 352 678 324 633 c 1,9,10
 295 584 295 584 267 555 c 128,-1,11
 239 526 239 526 222.5 509.5 c 128,-1,12
 206 493 206 493 184 474 c 128,-1,13
 162 455 162 455 150 444 c 0,14,15
 106 408 106 408 102 406 c 1,16,-1
 351 406 l 1,17,-1
 351 373 l 1,18,-1
 42 373 l 1,19,-1
 42 402 l 1,20,21
 44 404 44 404 77 430 c 128,-1,22
 110 456 110 456 127 470 c 128,-1,23
 144 484 144 484 177.5 513.5 c 128,-1,24
 211 543 211 543 231 565 c 128,-1,25
 251 587 251 587 274 615 c 0,26,27
 317 669 317 669 317 718.5 c 128,-1,28
 317 768 317 768 295 795 c 128,-1,29
 273 822 273 822 214 822 c 2,30,-1
 39 822 l 2,0,1
EndSplineSet
EndChar

StartChar: threesuperior
Encoding: 179 179 116
Width: 426
GlyphClass: 2
Flags: W
LayerCount: 2
Fore
SplineSet
37 817 m 1,0,-1
 37 839 l 1,1,2
 79 850 79 850 232 850 c 0,3,4
 293 850 293 850 323 818.5 c 128,-1,5
 353 787 353 787 353 738 c 2,6,-1
 353 703 l 2,7,8
 353 667 353 667 329 642.5 c 128,-1,9
 305 618 305 618 282 613 c 1,10,11
 306 605 306 605 329.5 579.5 c 128,-1,12
 353 554 353 554 353 516 c 2,13,-1
 353 488 l 2,14,15
 353 430 353 430 325 399.5 c 128,-1,16
 297 369 297 369 227 369 c 0,17,18
 88 369 88 369 41 382 c 1,19,-1
 41 402 l 1,20,-1
 219 402 l 2,21,22
 274 402 274 402 297 421.5 c 128,-1,23
 320 441 320 441 320 492 c 2,24,-1
 320 515 l 2,25,26
 320 555 320 555 291 576 c 128,-1,27
 262 597 262 597 223 598 c 2,28,-1
 81 602 l 1,29,-1
 81 625 l 1,30,-1
 223 630 l 2,31,32
 266 632 266 632 293.5 652 c 128,-1,33
 321 672 321 672 321 706 c 2,34,-1
 321 737 l 2,35,36
 321 817 321 817 228 817 c 2,37,-1
 37 817 l 1,0,-1
EndSplineSet
EndChar

StartChar: acute
Encoding: 180 180 117
Width: 214
GlyphClass: 2
Flags: W
LayerCount: 2
Fore
SplineSet
25 531 m 1,0,-1
 141 664 l 1,1,-1
 190 664 l 1,2,-1
 57 531 l 1,3,-1
 25 531 l 1,0,-1
EndSplineSet
Substitution2: "'smcp' Lowercase to Small Capitals lookup 1 subtable" acute.smcp
EndChar

StartChar: uni00B5
Encoding: 181 181 118
Width: 611
GlyphClass: 2
Flags: W
LayerCount: 2
Fore
SplineSet
111 -270 m 1,0,-1
 111 532 l 1,1,-1
 152 532 l 1,2,-1
 152 162 l 2,3,4
 152 105 152 105 185.5 69 c 128,-1,5
 219 33 219 33 277 33 c 128,-1,6
 335 33 335 33 378.5 46.5 c 128,-1,7
 422 60 422 60 484 92 c 1,8,-1
 484 532 l 1,9,-1
 525 532 l 1,10,-1
 525 1 l 1,11,-1
 498 1 l 1,12,-1
 484 63 l 1,13,14
 371 -8 371 -8 282.5 -8 c 128,-1,15
 194 -8 194 -8 152 51 c 1,16,-1
 152 -270 l 1,17,-1
 111 -270 l 1,0,-1
EndSplineSet
EndChar

StartChar: paragraph
Encoding: 182 182 119
Width: 575
GlyphClass: 2
Flags: W
LayerCount: 2
Fore
SplineSet
49 499 m 2,0,-1
 49 592 l 2,1,2
 49 659 49 659 95.5 695.5 c 128,-1,3
 142 732 142 732 205 732 c 2,4,-1
 550 732 l 1,5,-1
 550 689 l 1,6,-1
 481 689 l 1,7,-1
 481 0 l 1,8,-1
 440 0 l 1,9,-1
 440 691 l 1,10,-1
 300 691 l 1,11,-1
 300 -270 l 1,12,-1
 259 -270 l 1,13,-1
 259 367 l 1,14,15
 238 355 238 355 209 355 c 0,16,17
 207 355 207 355 205 355 c 0,18,19
 131 355 131 355 90 396 c 128,-1,20
 49 437 49 437 49 499 c 2,0,-1
90 501 m 2,21,22
 90 469 90 469 103.5 446 c 128,-1,23
 117 423 117 423 138 413 c 0,24,25
 172 396 172 396 205 396 c 2,26,-1
 259 396 l 1,27,-1
 259 691 l 1,28,-1
 205 691 l 2,29,30
 149 691 149 691 119.5 662 c 128,-1,31
 90 633 90 633 90 590 c 2,32,-1
 90 501 l 2,21,22
EndSplineSet
EndChar

StartChar: periodcentered
Encoding: 183 183 120
Width: 266
GlyphClass: 2
Flags: W
LayerCount: 2
Fore
SplineSet
105 369 m 2,0,-1
 105 396 l 2,1,2
 105 412 105 412 121 412 c 2,3,-1
 146 412 l 2,4,5
 163 412 163 412 163 396 c 2,6,-1
 163 369 l 2,7,8
 163 353 163 353 146 353 c 2,9,-1
 121 353 l 2,10,11
 105 353 105 353 105 369 c 2,0,-1
EndSplineSet
Substitution2: "'smcp' Lowercase to Small Capitals lookup 1 subtable" periodcentered.smcp
EndChar

StartChar: cedilla
Encoding: 184 184 121
Width: 261
GlyphClass: 2
Flags: W
LayerCount: 2
Fore
SplineSet
166 -44 m 0,0,1
 166 -41 166 -41 166 -37 c 1,2,-1
 200 -37 l 1,3,4
 200 -115 200 -115 179.5 -144 c 128,-1,5
 159 -173 159 -173 99 -173 c 2,6,-1
 62 -173 l 1,7,-1
 62 -156 l 1,8,-1
 101 -147 l 1,9,10
 137 -140 137 -140 151.5 -119 c 128,-1,11
 166 -98 166 -98 166 -44 c 0,0,1
EndSplineSet
EndChar

StartChar: onesuperior
Encoding: 185 185 122
Width: 260
GlyphClass: 2
Flags: W
LayerCount: 2
Fore
SplineSet
181 849 m 1,0,-1
 181 373 l 1,1,-1
 148 373 l 1,2,-1
 148 814 l 1,3,-1
 20 771 l 1,4,-1
 20 794 l 1,5,-1
 148 849 l 1,6,-1
 181 849 l 1,0,-1
EndSplineSet
EndChar

StartChar: ordmasculine
Encoding: 186 186 123
Width: 384
GlyphClass: 3
Flags: W
LayerCount: 2
Fore
SplineSet
69 412 m 128,-1,1
 37 451 37 451 37 555 c 128,-1,2
 37 659 37 659 68 698 c 128,-1,3
 99 737 99 737 192.5 737 c 128,-1,4
 286 737 286 737 316.5 698 c 128,-1,5
 347 659 347 659 347 554.5 c 128,-1,6
 347 450 347 450 316 411.5 c 128,-1,7
 285 373 285 373 193 373 c 128,-1,0
 101 373 101 373 69 412 c 128,-1,1
48 284 m 1,8,-1
 48 312 l 1,9,-1
 337 312 l 1,10,-1
 337 284 l 1,11,-1
 48 284 l 1,8,-1
81 652.5 m 128,-1,13
 68 619 68 619 68 540 c 128,-1,14
 68 461 68 461 94.5 433 c 128,-1,15
 121 405 121 405 192.5 405 c 128,-1,16
 264 405 264 405 289 431 c 0,17,18
 315 458 315 458 315 553 c 128,-1,19
 315 648 315 648 291 676.5 c 128,-1,20
 267 705 267 705 204.5 705 c 128,-1,21
 142 705 142 705 118 695.5 c 128,-1,12
 94 686 94 686 81 652.5 c 128,-1,13
EndSplineSet
Substitution2: "'smcp' Lowercase to Small Capitals lookup 1 subtable" ordmasculine.smcp
Ligature2: "'ordn' Ordinals lookup 0 subtable" o
EndChar

StartChar: guillemotright
Encoding: 187 187 124
Width: 548
GlyphClass: 2
Flags: W
LayerCount: 2
Fore
SplineSet
62 175 m 1,0,-1
 244 354 l 1,1,-1
 68 529 l 1,2,-1
 96 558 l 1,3,-1
 302 354 l 1,4,-1
 91 145 l 1,5,-1
 62 175 l 1,0,-1
247 175 m 1,6,-1
 429 354 l 1,7,-1
 252 529 l 1,8,-1
 282 558 l 1,9,-1
 486 354 l 1,10,-1
 276 145 l 1,11,-1
 247 175 l 1,6,-1
EndSplineSet
EndChar

StartChar: onequarter
Encoding: 188 188 125
Width: 885
GlyphClass: 3
Flags: W
LayerCount: 2
Fore
SplineSet
181 732 m 1,0,-1
 181 256 l 1,1,-1
 148 256 l 1,2,-1
 148 697 l 1,3,-1
 20 654 l 1,4,-1
 20 677 l 1,5,-1
 148 732 l 1,6,-1
 181 732 l 1,0,-1
215 0 m 1,7,-1
 588 757 l 1,8,-1
 622 757 l 1,9,-1
 249 0 l 1,10,-1
 215 0 l 1,7,-1
768 185 m 1,11,-1
 768 306 l 1,12,-1
 784 354 l 1,13,-1
 801 354 l 1,14,-1
 801 185 l 1,15,-1
 860 185 l 1,16,-1
 860 162 l 1,17,-1
 801 151 l 1,18,-1
 801 0 l 1,19,-1
 768 0 l 1,20,-1
 768 151 l 1,21,-1
 496 151 l 1,22,-1
 486 165 l 1,23,-1
 683 475 l 1,24,-1
 720 475 l 1,25,-1
 537 185 l 1,26,-1
 768 185 l 1,11,-1
EndSplineSet
Ligature2: "'frac' Diagonal Fractions lookup 7 subtable" one slash four
Ligature2: "'frac' Diagonal Fractions lookup 7 subtable" one fraction four
EndChar

StartChar: onehalf
Encoding: 189 189 126
Width: 954
GlyphClass: 3
Flags: W
LayerCount: 2
Fore
SplineSet
181 732 m 1,0,-1
 181 256 l 1,1,-1
 148 256 l 1,2,-1
 148 697 l 1,3,-1
 20 654 l 1,4,-1
 20 677 l 1,5,-1
 148 732 l 1,6,-1
 181 732 l 1,0,-1
204 0 m 1,7,-1
 578 757 l 1,8,-1
 612 757 l 1,9,-1
 238 0 l 1,10,-1
 204 0 l 1,7,-1
592 450 m 2,11,12
 590 450 590 450 590 456 c 128,-1,13
 590 462 590 462 592 473 c 1,14,15
 674 483 674 483 775 483 c 0,16,17
 905 483 905 483 905 347 c 0,18,19
 905 306 905 306 878 261 c 0,20,21
 848 212 848 212 820 183 c 128,-1,22
 792 154 792 154 775.5 137.5 c 128,-1,23
 759 121 759 121 737 102 c 128,-1,24
 715 83 715 83 702 72 c 0,25,26
 659 36 659 36 655 34 c 1,27,-1
 904 34 l 1,28,-1
 904 1 l 1,29,-1
 595 1 l 1,30,-1
 595 30 l 1,31,32
 597 32 597 32 630 58 c 128,-1,33
 663 84 663 84 680 98 c 128,-1,34
 697 112 697 112 730.5 141.5 c 128,-1,35
 764 171 764 171 784 193 c 128,-1,36
 804 215 804 215 826 243 c 0,37,38
 870 297 870 297 870 346.5 c 128,-1,39
 870 396 870 396 848 423 c 128,-1,40
 826 450 826 450 767 450 c 2,41,-1
 592 450 l 2,11,12
EndSplineSet
Ligature2: "'frac' Diagonal Fractions lookup 7 subtable" one slash two
Ligature2: "'frac' Diagonal Fractions lookup 7 subtable" one fraction two
EndChar

StartChar: threequarters
Encoding: 190 190 127
Width: 1007
GlyphClass: 3
Flags: W
LayerCount: 2
Fore
SplineSet
37 700 m 1,0,-1
 37 722 l 1,1,2
 79 733 79 733 232 733 c 0,3,4
 293 733 293 733 323 701.5 c 128,-1,5
 353 670 353 670 353 621 c 2,6,-1
 353 586 l 2,7,8
 353 550 353 550 329 525.5 c 128,-1,9
 305 501 305 501 282 496 c 1,10,11
 306 488 306 488 329.5 462.5 c 128,-1,12
 353 437 353 437 353 399 c 2,13,-1
 353 371 l 2,14,15
 353 313 353 313 325 282.5 c 128,-1,16
 297 252 297 252 227 252 c 0,17,18
 88 252 88 252 41 265 c 1,19,-1
 41 285 l 1,20,-1
 219 285 l 2,21,22
 274 285 274 285 297 304.5 c 128,-1,23
 320 324 320 324 320 375 c 2,24,-1
 320 398 l 2,25,26
 320 438 320 438 291 459 c 128,-1,27
 262 480 262 480 223 481 c 2,28,-1
 81 485 l 1,29,-1
 81 508 l 1,30,-1
 223 513 l 2,31,32
 266 515 266 515 293.5 535 c 128,-1,33
 321 555 321 555 321 589 c 2,34,-1
 321 620 l 2,35,36
 321 700 321 700 228 700 c 2,37,-1
 37 700 l 1,0,-1
326 0 m 1,38,-1
 699 757 l 1,39,-1
 733 757 l 1,40,-1
 360 0 l 1,41,-1
 326 0 l 1,38,-1
853 184 m 1,42,-1
 853 307 l 1,43,-1
 867 355 l 1,44,-1
 884 355 l 1,45,-1
 884 184 l 1,46,-1
 944 184 l 1,47,-1
 944 163 l 1,48,-1
 884 151 l 1,49,-1
 884 1 l 1,50,-1
 853 1 l 1,51,-1
 853 151 l 1,52,-1
 580 151 l 1,53,-1
 570 166 l 1,54,-1
 766 475 l 1,55,-1
 802 475 l 1,56,-1
 619 184 l 1,57,-1
 853 184 l 1,42,-1
EndSplineSet
Ligature2: "'frac' Diagonal Fractions lookup 7 subtable" three slash four
Ligature2: "'frac' Diagonal Fractions lookup 7 subtable" three fraction four
EndChar

StartChar: questiondown
Encoding: 191 191 128
Width: 534
GlyphClass: 2
Flags: W
LayerCount: 2
Fore
SplineSet
239 178 m 0,0,1
 270 178 270 178 307 174 c 1,2,-1
 307 276 l 1,3,-1
 350 276 l 1,4,-1
 350 140 l 1,5,6
 291 140 291 140 232 140 c 0,7,8
 95 138 95 138 94 17 c 1,9,-1
 94 -84 l 2,10,11
 94 -158 94 -158 130.5 -192.5 c 128,-1,12
 167 -227 167 -227 247 -227 c 0,13,14
 250 -227 250 -227 252 -227 c 2,15,-1
 510 -227 l 1,16,-1
 510 -255 l 1,17,18
 396 -268 396 -268 332 -268 c 128,-1,19
 268 -268 268 -268 257 -268 c 128,-1,20
 246 -268 246 -268 244 -268 c 0,21,22
 135 -268 135 -268 92 -220 c 128,-1,23
 49 -172 49 -172 49 -83 c 2,24,-1
 49 19 l 1,25,26
 48 114 48 114 113 152 c 0,27,28
 159 178 159 178 239 178 c 0,0,1
300 395 m 2,29,-1
 300 454 l 2,30,31
 300 470 300 470 316 470 c 2,32,-1
 340 470 l 2,33,34
 356 470 356 470 356 455 c 2,35,-1
 356 395 l 2,36,37
 356 379 356 379 341 379 c 2,38,-1
 314 379 l 1,39,40
 300 380 300 380 300 395 c 2,29,-1
EndSplineSet
Substitution2: "'case' Case-Sensitive Forms lookup 18 subtable" questiondown.alt
Substitution2: "'smcp' Lowercase to Small Capitals lookup 1 subtable" questiondown.smcp
EndChar

StartChar: Agrave
Encoding: 192 192 129
Width: 662
GlyphClass: 2
Flags: W
LayerCount: 2
Fore
SplineSet
203 930 m 1,0,-1
 252 930 l 1,1,-1
 368 797 l 1,2,-1
 336 797 l 1,3,-1
 203 930 l 1,0,-1
56 0 m 1,4,-1
 328 732 l 1,5,-1
 375 732 l 1,6,-1
 636 0 l 1,7,-1
 589 0 l 1,8,-1
 507 236 l 1,9,-1
 188 236 l 1,10,-1
 104 0 l 1,11,-1
 56 0 l 1,4,-1
203 277 m 1,12,-1
 492 277 l 1,13,-1
 351 678 l 1,14,-1
 203 277 l 1,12,-1
EndSplineSet
Substitution2: "'c2sc' Capitals to Small Capitals in Latin lookup 2 subtable" agrave.smcp
EndChar

StartChar: Aacute
Encoding: 193 193 130
Width: 662
GlyphClass: 2
Flags: W
LayerCount: 2
Fore
SplineSet
336 797 m 1,0,-1
 452 930 l 1,1,-1
 501 930 l 1,2,-1
 368 797 l 1,3,-1
 336 797 l 1,0,-1
56 0 m 1,4,-1
 328 732 l 1,5,-1
 375 732 l 1,6,-1
 636 0 l 1,7,-1
 589 0 l 1,8,-1
 507 236 l 1,9,-1
 188 236 l 1,10,-1
 104 0 l 1,11,-1
 56 0 l 1,4,-1
203 277 m 1,12,-1
 492 277 l 1,13,-1
 351 678 l 1,14,-1
 203 277 l 1,12,-1
EndSplineSet
Substitution2: "'c2sc' Capitals to Small Capitals in Latin lookup 2 subtable" aacute.smcp
EndChar

StartChar: Acircumflex
Encoding: 194 194 131
Width: 662
GlyphClass: 2
Flags: W
LayerCount: 2
Fore
SplineSet
212 797 m 1,0,-1
 339 927 l 1,1,-1
 376 927 l 1,2,-1
 491 797 l 1,3,-1
 455 797 l 1,4,-1
 357 897 l 1,5,-1
 248 797 l 1,6,-1
 212 797 l 1,0,-1
56 0 m 1,7,-1
 328 732 l 1,8,-1
 375 732 l 1,9,-1
 636 0 l 1,10,-1
 589 0 l 1,11,-1
 507 236 l 1,12,-1
 188 236 l 1,13,-1
 104 0 l 1,14,-1
 56 0 l 1,7,-1
203 277 m 1,15,-1
 492 277 l 1,16,-1
 351 678 l 1,17,-1
 203 277 l 1,15,-1
EndSplineSet
Substitution2: "'c2sc' Capitals to Small Capitals in Latin lookup 2 subtable" acircumflex.smcp
EndChar

StartChar: Atilde
Encoding: 195 195 132
Width: 662
GlyphClass: 2
Flags: W
LayerCount: 2
Fore
SplineSet
357.5 860.5 m 128,-1,1
 399 831 399 831 410 831 c 128,-1,2
 421 831 421 831 430.5 833.5 c 128,-1,3
 440 836 440 836 447 839 c 128,-1,4
 454 842 454 842 464.5 848 c 128,-1,5
 475 854 475 854 480 858 c 0,6,7
 500 874 500 874 509 878 c 1,8,-1
 521 859 l 1,9,10
 497 837 497 837 486 828 c 128,-1,11
 475 819 475 819 453 808 c 128,-1,12
 431 797 431 797 409 797.5 c 128,-1,13
 387 798 387 798 347.5 827.5 c 128,-1,14
 308 857 308 857 293 857 c 128,-1,15
 278 857 278 857 264 852.5 c 128,-1,16
 250 848 250 848 242 843.5 c 128,-1,17
 234 839 234 839 217.5 828 c 128,-1,18
 201 817 201 817 193 812 c 1,19,-1
 183 831 l 1,20,21
 207 851 207 851 220 862 c 0,22,23
 257 891 257 891 293 891 c 1,24,0
 316 890 316 890 357.5 860.5 c 128,-1,1
56 0 m 1,25,-1
 328 732 l 1,26,-1
 375 732 l 1,27,-1
 636 0 l 1,28,-1
 589 0 l 1,29,-1
 507 236 l 1,30,-1
 188 236 l 1,31,-1
 104 0 l 1,32,-1
 56 0 l 1,25,-1
203 277 m 1,33,-1
 492 277 l 1,34,-1
 351 678 l 1,35,-1
 203 277 l 1,33,-1
EndSplineSet
Substitution2: "'c2sc' Capitals to Small Capitals in Latin lookup 2 subtable" atilde.smcp
EndChar

StartChar: Adieresis
Encoding: 196 196 133
Width: 662
GlyphClass: 2
Flags: W
LayerCount: 2
Fore
SplineSet
196 826 m 128,-1,1
 196 838 196 838 204 846 c 128,-1,2
 212 854 212 854 224 854 c 128,-1,3
 236 854 236 854 244.5 846 c 128,-1,4
 253 838 253 838 253 826 c 128,-1,5
 253 814 253 814 244.5 805.5 c 128,-1,6
 236 797 236 797 224 797 c 128,-1,7
 212 797 212 797 204 805.5 c 128,-1,0
 196 814 196 814 196 826 c 128,-1,1
450 826 m 128,-1,9
 450 838 450 838 458.5 846 c 128,-1,10
 467 854 467 854 479 854 c 128,-1,11
 491 854 491 854 499.5 846 c 128,-1,12
 508 838 508 838 508 826 c 128,-1,13
 508 814 508 814 499.5 805.5 c 128,-1,14
 491 797 491 797 479 797 c 128,-1,15
 467 797 467 797 458.5 805.5 c 128,-1,8
 450 814 450 814 450 826 c 128,-1,9
56 0 m 1,16,-1
 328 732 l 1,17,-1
 375 732 l 1,18,-1
 636 0 l 1,19,-1
 589 0 l 1,20,-1
 507 236 l 1,21,-1
 188 236 l 1,22,-1
 104 0 l 1,23,-1
 56 0 l 1,16,-1
203 277 m 1,24,-1
 492 277 l 1,25,-1
 351 678 l 1,26,-1
 203 277 l 1,24,-1
EndSplineSet
Substitution2: "'c2sc' Capitals to Small Capitals in Latin lookup 2 subtable" adieresis.smcp
EndChar

StartChar: Aring
Encoding: 197 197 134
Width: 662
GlyphClass: 2
Flags: W
LayerCount: 2
Fore
SplineSet
251 832 m 128,-1,1
 251 789 251 789 281 759.5 c 128,-1,2
 311 730 311 730 353 730 c 128,-1,3
 395 730 395 730 424 759.5 c 128,-1,4
 453 789 453 789 453 832 c 128,-1,5
 453 875 453 875 424 905 c 128,-1,6
 395 935 395 935 353 935 c 128,-1,7
 311 935 311 935 281 905 c 128,-1,0
 251 875 251 875 251 832 c 128,-1,1
299 886.5 m 128,-1,9
 322 909 322 909 353 909 c 128,-1,10
 384 909 384 909 406 886.5 c 128,-1,11
 428 864 428 864 428 832 c 128,-1,12
 428 800 428 800 406 778 c 128,-1,13
 384 756 384 756 352.5 756 c 128,-1,14
 321 756 321 756 298.5 778.5 c 128,-1,15
 276 801 276 801 276 832.5 c 128,-1,8
 276 864 276 864 299 886.5 c 128,-1,9
56 0 m 1,16,-1
 328 732 l 1,17,-1
 375 732 l 1,18,-1
 636 0 l 1,19,-1
 589 0 l 1,20,-1
 507 236 l 1,21,-1
 188 236 l 1,22,-1
 104 0 l 1,23,-1
 56 0 l 1,16,-1
203 277 m 1,24,-1
 492 277 l 1,25,-1
 351 678 l 1,26,-1
 203 277 l 1,24,-1
EndSplineSet
Substitution2: "'c2sc' Capitals to Small Capitals in Latin lookup 2 subtable" aring.smcp
EndChar

StartChar: AE
Encoding: 198 198 135
Width: 928
GlyphClass: 2
Flags: W
LayerCount: 2
Fore
SplineSet
584 732 m 0,0,1
 589 732 589 732 594 732 c 2,2,-1
 880 720 l 1,3,-1
 880 691 l 1,4,-1
 594 691 l 2,5,6
 540 691 540 691 527 676 c 0,7,8
 521 669 521 669 517.5 666 c 128,-1,9
 514 663 514 663 512.5 651.5 c 128,-1,10
 511 640 511 640 510.5 636.5 c 128,-1,11
 510 633 510 633 510 616 c 2,12,-1
 510 382 l 1,13,-1
 840 376 l 1,14,-1
 840 346 l 1,15,-1
 510 340 l 1,16,-1
 510 122 l 2,17,18
 510 65 510 65 541 50 c 0,19,20
 566 39 566 39 605 39 c 2,21,-1
 880 39 l 1,22,-1
 880 9 l 1,23,-1
 605 -4 l 2,24,25
 599 -4 599 -4 593 -4 c 0,26,27
 541 -4 541 -4 505 20.5 c 128,-1,28
 469 45 469 45 469 121 c 2,29,-1
 469 244 l 1,30,-1
 227 244 l 1,31,-1
 84 0 l 1,32,-1
 37 0 l 1,33,-1
 386 595 l 2,34,35
 435 680 435 680 475 706 c 128,-1,36
 515 732 515 732 584 732 c 0,0,1
469 284 m 1,37,-1
 469 655 l 1,38,-1
 250 284 l 1,39,-1
 469 284 l 1,37,-1
EndSplineSet
EndChar

StartChar: Ccedilla
Encoding: 199 199 136
Width: 572
GlyphClass: 2
Flags: W
LayerCount: 2
Fore
SplineSet
319 -43 m 0,0,1
 319 -40 319 -40 319 -36 c 1,2,-1
 353 -36 l 1,3,4
 353 -114 353 -114 332.5 -143 c 128,-1,5
 312 -172 312 -172 252 -172 c 2,6,-1
 215 -172 l 1,7,-1
 215 -155 l 1,8,-1
 254 -146 l 1,9,10
 290 -139 290 -139 304.5 -118 c 128,-1,11
 319 -97 319 -97 319 -43 c 0,0,1
68 368 m 0,12,13
 68 598 68 598 138 676 c 0,14,15
 196 740 196 740 311 740 c 0,16,17
 406 740 406 740 535 716 c 1,18,-1
 535 686 l 1,19,20
 519 687 519 687 506 688.5 c 128,-1,21
 493 690 493 690 475.5 691 c 128,-1,22
 458 692 458 692 437.5 693.5 c 128,-1,23
 417 695 417 695 396 696 c 0,24,25
 361 699 361 699 299 699 c 128,-1,26
 237 699 237 699 195 672 c 0,27,28
 109 615 109 615 109 366 c 0,29,30
 109 35 109 35 312 35 c 0,31,32
 405 35 405 35 502 42 c 1,33,-1
 535 45 l 1,34,-1
 535 16 l 1,35,36
 417 -6 417 -6 311 -6 c 0,37,38
 68 -6 68 -6 68 368 c 0,12,13
EndSplineSet
Substitution2: "'c2sc' Capitals to Small Capitals in Latin lookup 2 subtable" ccedilla.smcp
EndChar

StartChar: Egrave
Encoding: 200 200 137
Width: 576
GlyphClass: 2
Flags: W
LayerCount: 2
Fore
SplineSet
192 925 m 1,0,-1
 241 925 l 1,1,-1
 357 792 l 1,2,-1
 325 792 l 1,3,-1
 192 925 l 1,0,-1
98 123 m 2,4,-1
 98 602 l 2,5,6
 98 671 98 671 133 701.5 c 128,-1,7
 168 732 168 732 218 732 c 0,8,9
 221 732 221 732 224 732 c 2,10,-1
 528 720 l 1,11,-1
 528 691 l 1,12,-1
 224 691 l 2,13,14
 139 691 139 691 139 602 c 2,15,-1
 139 384 l 1,16,-1
 488 377 l 1,17,-1
 488 348 l 1,18,-1
 139 341 l 1,19,-1
 139 123 l 2,20,21
 139 66 139 66 170 50 c 0,22,23
 195 38 195 38 234 38 c 2,24,-1
 528 38 l 1,25,-1
 528 9 l 1,26,-1
 234 -3 l 2,27,28
 228 -3 228 -3 215 -3 c 128,-1,29
 202 -3 202 -3 182.5 0.5 c 128,-1,30
 163 4 163 4 142 16 c 0,31,32
 98 41 98 41 98 123 c 2,4,-1
EndSplineSet
Substitution2: "'c2sc' Capitals to Small Capitals in Latin lookup 2 subtable" egrave.smcp
EndChar

StartChar: Eacute
Encoding: 201 201 138
Width: 576
GlyphClass: 2
Flags: W
LayerCount: 2
Fore
SplineSet
317 792 m 1,0,-1
 433 925 l 1,1,-1
 482 925 l 1,2,-1
 349 792 l 1,3,-1
 317 792 l 1,0,-1
98 123 m 2,4,-1
 98 602 l 2,5,6
 98 671 98 671 133 701.5 c 128,-1,7
 168 732 168 732 218 732 c 0,8,9
 221 732 221 732 224 732 c 2,10,-1
 528 720 l 1,11,-1
 528 691 l 1,12,-1
 224 691 l 2,13,14
 139 691 139 691 139 602 c 2,15,-1
 139 384 l 1,16,-1
 488 377 l 1,17,-1
 488 348 l 1,18,-1
 139 341 l 1,19,-1
 139 123 l 2,20,21
 139 66 139 66 170 50 c 0,22,23
 195 38 195 38 234 38 c 2,24,-1
 528 38 l 1,25,-1
 528 9 l 1,26,-1
 234 -3 l 2,27,28
 228 -3 228 -3 215 -3 c 128,-1,29
 202 -3 202 -3 182.5 0.5 c 128,-1,30
 163 4 163 4 142 16 c 0,31,32
 98 41 98 41 98 123 c 2,4,-1
EndSplineSet
Substitution2: "'c2sc' Capitals to Small Capitals in Latin lookup 2 subtable" eacute.smcp
EndChar

StartChar: Ecircumflex
Encoding: 202 202 139
Width: 576
GlyphClass: 2
Flags: W
LayerCount: 2
Fore
SplineSet
190 797 m 1,0,-1
 317 927 l 1,1,-1
 354 927 l 1,2,-1
 469 797 l 1,3,-1
 433 797 l 1,4,-1
 335 897 l 1,5,-1
 226 797 l 1,6,-1
 190 797 l 1,0,-1
98 123 m 2,7,-1
 98 602 l 2,8,9
 98 671 98 671 133 701.5 c 128,-1,10
 168 732 168 732 218 732 c 0,11,12
 221 732 221 732 224 732 c 2,13,-1
 528 720 l 1,14,-1
 528 691 l 1,15,-1
 224 691 l 2,16,17
 139 691 139 691 139 602 c 2,18,-1
 139 384 l 1,19,-1
 488 377 l 1,20,-1
 488 348 l 1,21,-1
 139 341 l 1,22,-1
 139 123 l 2,23,24
 139 66 139 66 170 50 c 0,25,26
 195 38 195 38 234 38 c 2,27,-1
 528 38 l 1,28,-1
 528 9 l 1,29,-1
 234 -3 l 2,30,31
 228 -3 228 -3 215 -3 c 128,-1,32
 202 -3 202 -3 182.5 0.5 c 128,-1,33
 163 4 163 4 142 16 c 0,34,35
 98 41 98 41 98 123 c 2,7,-1
EndSplineSet
Substitution2: "'c2sc' Capitals to Small Capitals in Latin lookup 2 subtable" ecircumflex.smcp
EndChar

StartChar: Edieresis
Encoding: 203 203 140
Width: 576
GlyphClass: 2
Flags: W
LayerCount: 2
Fore
SplineSet
166 843 m 128,-1,1
 166 855 166 855 174 863 c 128,-1,2
 182 871 182 871 194 871 c 128,-1,3
 206 871 206 871 214.5 863 c 128,-1,4
 223 855 223 855 223 843 c 128,-1,5
 223 831 223 831 214.5 822.5 c 128,-1,6
 206 814 206 814 194 814 c 128,-1,7
 182 814 182 814 174 822.5 c 128,-1,0
 166 831 166 831 166 843 c 128,-1,1
420 843 m 128,-1,9
 420 855 420 855 428.5 863 c 128,-1,10
 437 871 437 871 449 871 c 128,-1,11
 461 871 461 871 469.5 863 c 128,-1,12
 478 855 478 855 478 843 c 128,-1,13
 478 831 478 831 469.5 822.5 c 128,-1,14
 461 814 461 814 449 814 c 128,-1,15
 437 814 437 814 428.5 822.5 c 128,-1,8
 420 831 420 831 420 843 c 128,-1,9
98 123 m 2,16,-1
 98 602 l 2,17,18
 98 671 98 671 133 701.5 c 128,-1,19
 168 732 168 732 218 732 c 0,20,21
 221 732 221 732 224 732 c 2,22,-1
 528 720 l 1,23,-1
 528 691 l 1,24,-1
 224 691 l 2,25,26
 139 691 139 691 139 602 c 2,27,-1
 139 384 l 1,28,-1
 488 377 l 1,29,-1
 488 348 l 1,30,-1
 139 341 l 1,31,-1
 139 123 l 2,32,33
 139 66 139 66 170 50 c 0,34,35
 195 38 195 38 234 38 c 2,36,-1
 528 38 l 1,37,-1
 528 9 l 1,38,-1
 234 -3 l 2,39,40
 228 -3 228 -3 215 -3 c 128,-1,41
 202 -3 202 -3 182.5 0.5 c 128,-1,42
 163 4 163 4 142 16 c 0,43,44
 98 41 98 41 98 123 c 2,16,-1
EndSplineSet
Substitution2: "'c2sc' Capitals to Small Capitals in Latin lookup 2 subtable" edieresis.smcp
EndChar

StartChar: Igrave
Encoding: 204 204 141
Width: 204
GlyphClass: 2
Flags: W
LayerCount: 2
Fore
SplineSet
-30 930 m 1,0,-1
 19 930 l 1,1,-1
 135 797 l 1,2,-1
 103 797 l 1,3,-1
 -30 930 l 1,0,-1
98 0 m 1,4,-1
 98 732 l 1,5,-1
 139 732 l 1,6,-1
 139 0 l 1,7,-1
 98 0 l 1,4,-1
EndSplineSet
Substitution2: "'c2sc' Capitals to Small Capitals in Latin lookup 2 subtable" igrave.smcp
EndChar

StartChar: Iacute
Encoding: 205 205 142
Width: 204
GlyphClass: 2
Flags: W
LayerCount: 2
Fore
SplineSet
103 797 m 1,0,-1
 219 930 l 1,1,-1
 268 930 l 1,2,-1
 135 797 l 1,3,-1
 103 797 l 1,0,-1
98 0 m 1,4,-1
 98 732 l 1,5,-1
 139 732 l 1,6,-1
 139 0 l 1,7,-1
 98 0 l 1,4,-1
EndSplineSet
Substitution2: "'c2sc' Capitals to Small Capitals in Latin lookup 2 subtable" iacute.smcp
EndChar

StartChar: Icircumflex
Encoding: 206 206 143
Width: 204
GlyphClass: 2
Flags: W
LayerCount: 2
Fore
SplineSet
-20 797 m 1,0,-1
 107 927 l 1,1,-1
 144 927 l 1,2,-1
 259 797 l 1,3,-1
 223 797 l 1,4,-1
 125 897 l 1,5,-1
 16 797 l 1,6,-1
 -20 797 l 1,0,-1
98 0 m 1,7,-1
 98 732 l 1,8,-1
 139 732 l 1,9,-1
 139 0 l 1,10,-1
 98 0 l 1,7,-1
EndSplineSet
Substitution2: "'c2sc' Capitals to Small Capitals in Latin lookup 2 subtable" icircumflex.smcp
EndChar

StartChar: Idieresis
Encoding: 207 207 144
Width: 204
GlyphClass: 2
Flags: W
LayerCount: 2
Fore
SplineSet
-37 826 m 128,-1,1
 -37 838 -37 838 -29 846 c 128,-1,2
 -21 854 -21 854 -9 854 c 128,-1,3
 3 854 3 854 11.5 846 c 128,-1,4
 20 838 20 838 20 826 c 128,-1,5
 20 814 20 814 11.5 805.5 c 128,-1,6
 3 797 3 797 -9 797 c 128,-1,7
 -21 797 -21 797 -29 805.5 c 128,-1,0
 -37 814 -37 814 -37 826 c 128,-1,1
217 826 m 128,-1,9
 217 838 217 838 225.5 846 c 128,-1,10
 234 854 234 854 246 854 c 128,-1,11
 258 854 258 854 266.5 846 c 128,-1,12
 275 838 275 838 275 826 c 128,-1,13
 275 814 275 814 266.5 805.5 c 128,-1,14
 258 797 258 797 246 797 c 128,-1,15
 234 797 234 797 225.5 805.5 c 128,-1,8
 217 814 217 814 217 826 c 128,-1,9
98 0 m 1,16,-1
 98 732 l 1,17,-1
 139 732 l 1,18,-1
 139 0 l 1,19,-1
 98 0 l 1,16,-1
EndSplineSet
Substitution2: "'c2sc' Capitals to Small Capitals in Latin lookup 2 subtable" idieresis.smcp
EndChar

StartChar: Eth
Encoding: 208 208 145
Width: 666
GlyphClass: 2
Flags: W
LayerCount: 2
Fore
SplineSet
33 359 m 1,0,-1
 33 387 l 1,1,-1
 98 387 l 1,2,-1
 98 732 l 1,3,-1
 352 732 l 2,4,5
 417 732 417 732 465.5 707.5 c 128,-1,6
 514 683 514 683 541 646 c 128,-1,7
 568 609 568 609 584 557 c 0,8,9
 611 473 611 473 611 385 c 128,-1,10
 611 297 611 297 596.5 235.5 c 128,-1,11
 582 174 582 174 552.5 120 c 128,-1,12
 523 66 523 66 471 33 c 128,-1,13
 419 0 419 0 352 0 c 2,14,-1
 98 0 l 1,15,-1
 98 359 l 1,16,-1
 33 359 l 1,0,-1
139 42 m 1,17,-1
 352 42 l 2,18,19
 408 42 408 42 451 71 c 128,-1,20
 494 100 494 100 519 148 c 0,21,22
 569 242 569 242 569 364 c 0,23,24
 569 529 569 529 512.5 609 c 128,-1,25
 456 689 456 689 352 689 c 2,26,-1
 139 689 l 1,27,-1
 139 387 l 1,28,-1
 292 387 l 1,29,-1
 292 359 l 1,30,-1
 139 359 l 1,31,-1
 139 42 l 1,17,-1
EndSplineSet
Substitution2: "'c2sc' Capitals to Small Capitals in Latin lookup 2 subtable" eth.smcp
EndChar

StartChar: Ntilde
Encoding: 209 209 146
Width: 670
GlyphClass: 2
Flags: W
LayerCount: 2
Fore
SplineSet
357.5 860.5 m 128,-1,1
 399 831 399 831 410 831 c 128,-1,2
 421 831 421 831 430.5 833.5 c 128,-1,3
 440 836 440 836 447 839 c 128,-1,4
 454 842 454 842 464.5 848 c 128,-1,5
 475 854 475 854 480 858 c 0,6,7
 500 874 500 874 509 878 c 1,8,-1
 521 859 l 1,9,10
 497 837 497 837 486 828 c 128,-1,11
 475 819 475 819 453 808 c 128,-1,12
 431 797 431 797 409 797.5 c 128,-1,13
 387 798 387 798 347.5 827.5 c 128,-1,14
 308 857 308 857 293 857 c 128,-1,15
 278 857 278 857 264 852.5 c 128,-1,16
 250 848 250 848 242 843.5 c 128,-1,17
 234 839 234 839 217.5 828 c 128,-1,18
 201 817 201 817 193 812 c 1,19,-1
 183 831 l 1,20,21
 207 851 207 851 220 862 c 0,22,23
 257 891 257 891 293 891 c 1,24,0
 316 890 316 890 357.5 860.5 c 128,-1,1
98 0 m 1,25,-1
 98 732 l 1,26,-1
 141 732 l 1,27,-1
 564 77 l 1,28,-1
 564 732 l 1,29,-1
 605 732 l 1,30,-1
 605 0 l 1,31,-1
 564 0 l 1,32,-1
 139 655 l 1,33,-1
 139 0 l 1,34,-1
 98 0 l 1,25,-1
EndSplineSet
AlternateSubs2: "'salt' Stylistic Alternatives in Latin lookup 16 subtable" Ntilde.salt
Substitution2: "'c2sc' Capitals to Small Capitals in Latin lookup 2 subtable" ntilde.smcp
EndChar

StartChar: Ograve
Encoding: 210 210 147
Width: 675
GlyphClass: 2
Flags: W
LayerCount: 2
Fore
SplineSet
205 930 m 1,0,-1
 254 930 l 1,1,-1
 370 797 l 1,2,-1
 338 797 l 1,3,-1
 205 930 l 1,0,-1
87.5 218.5 m 128,-1,5
 80 279 80 279 80 370.5 c 128,-1,6
 80 462 80 462 93 531.5 c 128,-1,7
 106 601 106 601 126.5 641.5 c 128,-1,8
 147 682 147 682 184.5 703.5 c 128,-1,9
 222 725 222 725 259 731 c 128,-1,10
 296 737 296 737 349 737 c 128,-1,11
 402 737 402 737 434.5 733 c 128,-1,12
 467 729 467 729 501 716 c 128,-1,13
 535 703 535 703 555.5 677.5 c 128,-1,14
 576 652 576 652 594 611 c 0,15,16
 626 535 626 535 626 361 c 0,17,18
 626 179 626 179 583 93 c 0,19,20
 563 53 563 53 527 31.5 c 128,-1,21
 491 10 491 10 452 3 c 128,-1,22
 413 -4 413 -4 358.5 -4 c 128,-1,23
 304 -4 304 -4 271 0 c 128,-1,24
 238 4 238 4 203.5 16.5 c 128,-1,25
 169 29 169 29 149 53.5 c 128,-1,26
 129 78 129 78 112 118 c 128,-1,4
 95 158 95 158 87.5 218.5 c 128,-1,5
125 468.5 m 128,-1,28
 121 421 121 421 121 337.5 c 128,-1,29
 121 254 121 254 132.5 190.5 c 128,-1,30
 144 127 144 127 174 92.5 c 128,-1,31
 204 58 204 58 244 47.5 c 128,-1,32
 284 37 284 37 352.5 37 c 128,-1,33
 421 37 421 37 461 48.5 c 128,-1,34
 501 60 501 60 531 94 c 128,-1,35
 561 128 561 128 573 192 c 128,-1,36
 585 256 585 256 585 355.5 c 128,-1,37
 585 455 585 455 574.5 517.5 c 128,-1,38
 564 580 564 580 548 615.5 c 128,-1,39
 532 651 532 651 500 669 c 128,-1,40
 468 687 468 687 437.5 691.5 c 128,-1,41
 407 696 407 696 364.5 696 c 128,-1,42
 322 696 322 696 302.5 695 c 128,-1,43
 283 694 283 694 257.5 689.5 c 128,-1,44
 232 685 232 685 217 675.5 c 128,-1,45
 202 666 202 666 184.5 650 c 128,-1,46
 167 634 167 634 157 609 c 128,-1,47
 147 584 147 584 138 550 c 128,-1,27
 129 516 129 516 125 468.5 c 128,-1,28
EndSplineSet
Substitution2: "'c2sc' Capitals to Small Capitals in Latin lookup 2 subtable" ograve.smcp
EndChar

StartChar: Oacute
Encoding: 211 211 148
Width: 675
GlyphClass: 2
Flags: W
LayerCount: 2
Fore
SplineSet
338 797 m 1,0,-1
 454 930 l 1,1,-1
 503 930 l 1,2,-1
 370 797 l 1,3,-1
 338 797 l 1,0,-1
87.5 218.5 m 128,-1,5
 80 279 80 279 80 370.5 c 128,-1,6
 80 462 80 462 93 531.5 c 128,-1,7
 106 601 106 601 126.5 641.5 c 128,-1,8
 147 682 147 682 184.5 703.5 c 128,-1,9
 222 725 222 725 259 731 c 128,-1,10
 296 737 296 737 349 737 c 128,-1,11
 402 737 402 737 434.5 733 c 128,-1,12
 467 729 467 729 501 716 c 128,-1,13
 535 703 535 703 555.5 677.5 c 128,-1,14
 576 652 576 652 594 611 c 0,15,16
 626 535 626 535 626 361 c 0,17,18
 626 179 626 179 583 93 c 0,19,20
 563 53 563 53 527 31.5 c 128,-1,21
 491 10 491 10 452 3 c 128,-1,22
 413 -4 413 -4 358.5 -4 c 128,-1,23
 304 -4 304 -4 271 0 c 128,-1,24
 238 4 238 4 203.5 16.5 c 128,-1,25
 169 29 169 29 149 53.5 c 128,-1,26
 129 78 129 78 112 118 c 128,-1,4
 95 158 95 158 87.5 218.5 c 128,-1,5
125 468.5 m 128,-1,28
 121 421 121 421 121 337.5 c 128,-1,29
 121 254 121 254 132.5 190.5 c 128,-1,30
 144 127 144 127 174 92.5 c 128,-1,31
 204 58 204 58 244 47.5 c 128,-1,32
 284 37 284 37 352.5 37 c 128,-1,33
 421 37 421 37 461 48.5 c 128,-1,34
 501 60 501 60 531 94 c 128,-1,35
 561 128 561 128 573 192 c 128,-1,36
 585 256 585 256 585 355.5 c 128,-1,37
 585 455 585 455 574.5 517.5 c 128,-1,38
 564 580 564 580 548 615.5 c 128,-1,39
 532 651 532 651 500 669 c 128,-1,40
 468 687 468 687 437.5 691.5 c 128,-1,41
 407 696 407 696 364.5 696 c 128,-1,42
 322 696 322 696 302.5 695 c 128,-1,43
 283 694 283 694 257.5 689.5 c 128,-1,44
 232 685 232 685 217 675.5 c 128,-1,45
 202 666 202 666 184.5 650 c 128,-1,46
 167 634 167 634 157 609 c 128,-1,47
 147 584 147 584 138 550 c 128,-1,27
 129 516 129 516 125 468.5 c 128,-1,28
EndSplineSet
Substitution2: "'c2sc' Capitals to Small Capitals in Latin lookup 2 subtable" oacute.smcp
EndChar

StartChar: Ocircumflex
Encoding: 212 212 149
Width: 675
GlyphClass: 2
Flags: W
LayerCount: 2
Fore
SplineSet
214 797 m 1,0,-1
 341 927 l 1,1,-1
 378 927 l 1,2,-1
 493 797 l 1,3,-1
 457 797 l 1,4,-1
 359 897 l 1,5,-1
 250 797 l 1,6,-1
 214 797 l 1,0,-1
87.5 218.5 m 128,-1,8
 80 279 80 279 80 370.5 c 128,-1,9
 80 462 80 462 93 531.5 c 128,-1,10
 106 601 106 601 126.5 641.5 c 128,-1,11
 147 682 147 682 184.5 703.5 c 128,-1,12
 222 725 222 725 259 731 c 128,-1,13
 296 737 296 737 349 737 c 128,-1,14
 402 737 402 737 434.5 733 c 128,-1,15
 467 729 467 729 501 716 c 128,-1,16
 535 703 535 703 555.5 677.5 c 128,-1,17
 576 652 576 652 594 611 c 0,18,19
 626 535 626 535 626 361 c 0,20,21
 626 179 626 179 583 93 c 0,22,23
 563 53 563 53 527 31.5 c 128,-1,24
 491 10 491 10 452 3 c 128,-1,25
 413 -4 413 -4 358.5 -4 c 128,-1,26
 304 -4 304 -4 271 0 c 128,-1,27
 238 4 238 4 203.5 16.5 c 128,-1,28
 169 29 169 29 149 53.5 c 128,-1,29
 129 78 129 78 112 118 c 128,-1,7
 95 158 95 158 87.5 218.5 c 128,-1,8
125 468.5 m 128,-1,31
 121 421 121 421 121 337.5 c 128,-1,32
 121 254 121 254 132.5 190.5 c 128,-1,33
 144 127 144 127 174 92.5 c 128,-1,34
 204 58 204 58 244 47.5 c 128,-1,35
 284 37 284 37 352.5 37 c 128,-1,36
 421 37 421 37 461 48.5 c 128,-1,37
 501 60 501 60 531 94 c 128,-1,38
 561 128 561 128 573 192 c 128,-1,39
 585 256 585 256 585 355.5 c 128,-1,40
 585 455 585 455 574.5 517.5 c 128,-1,41
 564 580 564 580 548 615.5 c 128,-1,42
 532 651 532 651 500 669 c 128,-1,43
 468 687 468 687 437.5 691.5 c 128,-1,44
 407 696 407 696 364.5 696 c 128,-1,45
 322 696 322 696 302.5 695 c 128,-1,46
 283 694 283 694 257.5 689.5 c 128,-1,47
 232 685 232 685 217 675.5 c 128,-1,48
 202 666 202 666 184.5 650 c 128,-1,49
 167 634 167 634 157 609 c 128,-1,50
 147 584 147 584 138 550 c 128,-1,30
 129 516 129 516 125 468.5 c 128,-1,31
EndSplineSet
Substitution2: "'c2sc' Capitals to Small Capitals in Latin lookup 2 subtable" ocircumflex.smcp
EndChar

StartChar: Otilde
Encoding: 213 213 150
Width: 675
GlyphClass: 2
Flags: W
LayerCount: 2
Fore
SplineSet
359.5 860.5 m 128,-1,1
 401 831 401 831 412 831 c 128,-1,2
 423 831 423 831 432.5 833.5 c 128,-1,3
 442 836 442 836 449 839 c 128,-1,4
 456 842 456 842 466.5 848 c 128,-1,5
 477 854 477 854 482 858 c 0,6,7
 502 874 502 874 511 878 c 1,8,-1
 523 859 l 1,9,10
 499 837 499 837 488 828 c 128,-1,11
 477 819 477 819 455 808 c 128,-1,12
 433 797 433 797 411 797.5 c 128,-1,13
 389 798 389 798 349.5 827.5 c 128,-1,14
 310 857 310 857 295 857 c 128,-1,15
 280 857 280 857 266 852.5 c 128,-1,16
 252 848 252 848 244 843.5 c 128,-1,17
 236 839 236 839 219.5 828 c 128,-1,18
 203 817 203 817 195 812 c 1,19,-1
 185 831 l 1,20,21
 209 851 209 851 222 862 c 0,22,23
 259 891 259 891 295 891 c 1,24,0
 318 890 318 890 359.5 860.5 c 128,-1,1
87.5 218.5 m 128,-1,26
 80 279 80 279 80 370.5 c 128,-1,27
 80 462 80 462 93 531.5 c 128,-1,28
 106 601 106 601 126.5 641.5 c 128,-1,29
 147 682 147 682 184.5 703.5 c 128,-1,30
 222 725 222 725 259 731 c 128,-1,31
 296 737 296 737 349 737 c 128,-1,32
 402 737 402 737 434.5 733 c 128,-1,33
 467 729 467 729 501 716 c 128,-1,34
 535 703 535 703 555.5 677.5 c 128,-1,35
 576 652 576 652 594 611 c 0,36,37
 626 535 626 535 626 361 c 0,38,39
 626 179 626 179 583 93 c 0,40,41
 563 53 563 53 527 31.5 c 128,-1,42
 491 10 491 10 452 3 c 128,-1,43
 413 -4 413 -4 358.5 -4 c 128,-1,44
 304 -4 304 -4 271 0 c 128,-1,45
 238 4 238 4 203.5 16.5 c 128,-1,46
 169 29 169 29 149 53.5 c 128,-1,47
 129 78 129 78 112 118 c 128,-1,25
 95 158 95 158 87.5 218.5 c 128,-1,26
125 468.5 m 128,-1,49
 121 421 121 421 121 337.5 c 128,-1,50
 121 254 121 254 132.5 190.5 c 128,-1,51
 144 127 144 127 174 92.5 c 128,-1,52
 204 58 204 58 244 47.5 c 128,-1,53
 284 37 284 37 352.5 37 c 128,-1,54
 421 37 421 37 461 48.5 c 128,-1,55
 501 60 501 60 531 94 c 128,-1,56
 561 128 561 128 573 192 c 128,-1,57
 585 256 585 256 585 355.5 c 128,-1,58
 585 455 585 455 574.5 517.5 c 128,-1,59
 564 580 564 580 548 615.5 c 128,-1,60
 532 651 532 651 500 669 c 128,-1,61
 468 687 468 687 437.5 691.5 c 128,-1,62
 407 696 407 696 364.5 696 c 128,-1,63
 322 696 322 696 302.5 695 c 128,-1,64
 283 694 283 694 257.5 689.5 c 128,-1,65
 232 685 232 685 217 675.5 c 128,-1,66
 202 666 202 666 184.5 650 c 128,-1,67
 167 634 167 634 157 609 c 128,-1,68
 147 584 147 584 138 550 c 128,-1,48
 129 516 129 516 125 468.5 c 128,-1,49
EndSplineSet
Substitution2: "'c2sc' Capitals to Small Capitals in Latin lookup 2 subtable" otilde.smcp
EndChar

StartChar: Odieresis
Encoding: 214 214 151
Width: 675
GlyphClass: 2
Flags: W
LayerCount: 2
Fore
SplineSet
198 826 m 128,-1,1
 198 838 198 838 206 846 c 128,-1,2
 214 854 214 854 226 854 c 128,-1,3
 238 854 238 854 246.5 846 c 128,-1,4
 255 838 255 838 255 826 c 128,-1,5
 255 814 255 814 246.5 805.5 c 128,-1,6
 238 797 238 797 226 797 c 128,-1,7
 214 797 214 797 206 805.5 c 128,-1,0
 198 814 198 814 198 826 c 128,-1,1
452 826 m 128,-1,9
 452 838 452 838 460.5 846 c 128,-1,10
 469 854 469 854 481 854 c 128,-1,11
 493 854 493 854 501.5 846 c 128,-1,12
 510 838 510 838 510 826 c 128,-1,13
 510 814 510 814 501.5 805.5 c 128,-1,14
 493 797 493 797 481 797 c 128,-1,15
 469 797 469 797 460.5 805.5 c 128,-1,8
 452 814 452 814 452 826 c 128,-1,9
87.5 218.5 m 128,-1,17
 80 279 80 279 80 370.5 c 128,-1,18
 80 462 80 462 93 531.5 c 128,-1,19
 106 601 106 601 126.5 641.5 c 128,-1,20
 147 682 147 682 184.5 703.5 c 128,-1,21
 222 725 222 725 259 731 c 128,-1,22
 296 737 296 737 349 737 c 128,-1,23
 402 737 402 737 434.5 733 c 128,-1,24
 467 729 467 729 501 716 c 128,-1,25
 535 703 535 703 555.5 677.5 c 128,-1,26
 576 652 576 652 594 611 c 0,27,28
 626 535 626 535 626 361 c 0,29,30
 626 179 626 179 583 93 c 0,31,32
 563 53 563 53 527 31.5 c 128,-1,33
 491 10 491 10 452 3 c 128,-1,34
 413 -4 413 -4 358.5 -4 c 128,-1,35
 304 -4 304 -4 271 0 c 128,-1,36
 238 4 238 4 203.5 16.5 c 128,-1,37
 169 29 169 29 149 53.5 c 128,-1,38
 129 78 129 78 112 118 c 128,-1,16
 95 158 95 158 87.5 218.5 c 128,-1,17
125 468.5 m 128,-1,40
 121 421 121 421 121 337.5 c 128,-1,41
 121 254 121 254 132.5 190.5 c 128,-1,42
 144 127 144 127 174 92.5 c 128,-1,43
 204 58 204 58 244 47.5 c 128,-1,44
 284 37 284 37 352.5 37 c 128,-1,45
 421 37 421 37 461 48.5 c 128,-1,46
 501 60 501 60 531 94 c 128,-1,47
 561 128 561 128 573 192 c 128,-1,48
 585 256 585 256 585 355.5 c 128,-1,49
 585 455 585 455 574.5 517.5 c 128,-1,50
 564 580 564 580 548 615.5 c 128,-1,51
 532 651 532 651 500 669 c 128,-1,52
 468 687 468 687 437.5 691.5 c 128,-1,53
 407 696 407 696 364.5 696 c 128,-1,54
 322 696 322 696 302.5 695 c 128,-1,55
 283 694 283 694 257.5 689.5 c 128,-1,56
 232 685 232 685 217 675.5 c 128,-1,57
 202 666 202 666 184.5 650 c 128,-1,58
 167 634 167 634 157 609 c 128,-1,59
 147 584 147 584 138 550 c 128,-1,39
 129 516 129 516 125 468.5 c 128,-1,40
EndSplineSet
Substitution2: "'c2sc' Capitals to Small Capitals in Latin lookup 2 subtable" odieresis.smcp
EndChar

StartChar: multiply
Encoding: 215 215 152
Width: 444
GlyphClass: 2
Flags: W
LayerCount: 2
Fore
SplineSet
69 230 m 1,0,-1
 195 356 l 1,1,-1
 69 481 l 1,2,-1
 98 511 l 1,3,-1
 224 385 l 1,4,-1
 350 511 l 1,5,-1
 379 482 l 1,6,-1
 253 356 l 1,7,-1
 378 230 l 1,8,-1
 349 201 l 1,9,-1
 224 327 l 1,10,-1
 98 201 l 1,11,-1
 69 230 l 1,0,-1
EndSplineSet
EndChar

StartChar: Oslash
Encoding: 216 216 153
Width: 675
GlyphClass: 2
Flags: W
LayerCount: 2
Fore
SplineSet
134 653 m 0,0,1
 153 681 153 681 173 697 c 128,-1,2
 193 713 193 713 224 722 c 0,3,4
 276 737 276 737 348.5 737 c 128,-1,5
 421 737 421 737 466 727 c 128,-1,6
 511 717 511 717 543 688 c 1,7,-1
 571 732 l 1,8,-1
 604 732 l 1,9,-1
 563 668 l 1,10,11
 626 587 626 587 626 361 c 0,12,13
 626 181 626 181 582 93 c 0,14,15
 562 53 562 53 526 31.5 c 128,-1,16
 490 10 490 10 451 3 c 128,-1,17
 412 -4 412 -4 347.5 -4 c 128,-1,18
 283 -4 283 -4 237.5 5.5 c 128,-1,19
 192 15 192 15 161 43 c 1,20,-1
 133 0 l 1,21,-1
 101 0 l 1,22,-1
 141 63 l 1,23,24
 80 142 80 142 80 357.5 c 128,-1,25
 80 573 80 573 134 653 c 0,0,1
121 361 m 0,26,27
 121 170 121 170 167 102 c 1,28,-1
 520 653 l 1,29,30
 493 680 493 680 454.5 688 c 128,-1,31
 416 696 416 696 366 696 c 128,-1,32
 316 696 316 696 294.5 694.5 c 128,-1,33
 273 693 273 693 245 686 c 128,-1,34
 217 679 217 679 201 666 c 128,-1,35
 185 653 185 653 167.5 629 c 128,-1,36
 150 605 150 605 142 570 c 0,37,38
 121 484 121 484 121 361 c 0,26,27
353 37 m 0,39,40
 407 37 407 37 441.5 44 c 128,-1,41
 476 51 476 51 506 70.5 c 128,-1,42
 536 90 536 90 552 126 c 0,43,44
 585 202 585 202 585 380.5 c 128,-1,45
 585 559 585 559 539 630 c 1,46,-1
 185 80 l 1,47,48
 230 37 230 37 353 37 c 0,39,40
EndSplineSet
Substitution2: "'c2sc' Capitals to Small Capitals in Latin lookup 2 subtable" oslash.smcp
EndChar

StartChar: Ugrave
Encoding: 217 217 154
Width: 680
GlyphClass: 2
Flags: W
LayerCount: 2
Fore
SplineSet
208 930 m 1,0,-1
 257 930 l 1,1,-1
 373 797 l 1,2,-1
 341 797 l 1,3,-1
 208 930 l 1,0,-1
98 320 m 2,4,-1
 98 732 l 1,5,-1
 139 732 l 1,6,-1
 139 320 l 2,7,8
 139 217 139 217 153 156.5 c 128,-1,9
 167 96 167 96 203 71 c 128,-1,10
 239 46 239 46 267.5 41 c 128,-1,11
 296 36 296 36 359 36 c 2,12,-1
 360 36 l 2,13,14
 475 36 475 36 511 76 c 0,15,16
 556 126 556 126 567 204 c 0,17,18
 574 254 574 254 574 320 c 2,19,-1
 574 732 l 1,20,-1
 616 732 l 1,21,-1
 616 320 l 2,22,23
 616 162 616 162 576 92 c 0,24,25
 562 68 562 68 549.5 51.5 c 128,-1,26
 537 35 537 35 516 24 c 128,-1,27
 495 13 495 13 480.5 7.5 c 128,-1,28
 466 2 466 2 441 -1 c 0,29,30
 408 -5 408 -5 383 -5 c 128,-1,31
 358 -5 358 -5 341 -5 c 128,-1,32
 324 -5 324 -5 309.5 -4.5 c 128,-1,33
 295 -4 295 -4 268.5 -1.5 c 128,-1,34
 242 1 242 1 228 6.5 c 128,-1,35
 214 12 214 12 193 23.5 c 128,-1,36
 172 35 172 35 160.5 51 c 128,-1,37
 149 67 149 67 135 91.5 c 128,-1,38
 121 116 121 116 114 148 c 0,39,40
 98 229 98 229 98 320 c 2,4,-1
EndSplineSet
Substitution2: "'c2sc' Capitals to Small Capitals in Latin lookup 2 subtable" ugrave.smcp
EndChar

StartChar: Uacute
Encoding: 218 218 155
Width: 680
GlyphClass: 2
Flags: W
LayerCount: 2
Fore
SplineSet
341 797 m 1,0,-1
 457 930 l 1,1,-1
 506 930 l 1,2,-1
 373 797 l 1,3,-1
 341 797 l 1,0,-1
98 320 m 2,4,-1
 98 732 l 1,5,-1
 139 732 l 1,6,-1
 139 320 l 2,7,8
 139 217 139 217 153 156.5 c 128,-1,9
 167 96 167 96 203 71 c 128,-1,10
 239 46 239 46 267.5 41 c 128,-1,11
 296 36 296 36 359 36 c 2,12,-1
 360 36 l 2,13,14
 475 36 475 36 511 76 c 0,15,16
 556 126 556 126 567 204 c 0,17,18
 574 254 574 254 574 320 c 2,19,-1
 574 732 l 1,20,-1
 616 732 l 1,21,-1
 616 320 l 2,22,23
 616 162 616 162 576 92 c 0,24,25
 562 68 562 68 549.5 51.5 c 128,-1,26
 537 35 537 35 516 24 c 128,-1,27
 495 13 495 13 480.5 7.5 c 128,-1,28
 466 2 466 2 441 -1 c 0,29,30
 408 -5 408 -5 383 -5 c 128,-1,31
 358 -5 358 -5 341 -5 c 128,-1,32
 324 -5 324 -5 309.5 -4.5 c 128,-1,33
 295 -4 295 -4 268.5 -1.5 c 128,-1,34
 242 1 242 1 228 6.5 c 128,-1,35
 214 12 214 12 193 23.5 c 128,-1,36
 172 35 172 35 160.5 51 c 128,-1,37
 149 67 149 67 135 91.5 c 128,-1,38
 121 116 121 116 114 148 c 0,39,40
 98 229 98 229 98 320 c 2,4,-1
EndSplineSet
Substitution2: "'c2sc' Capitals to Small Capitals in Latin lookup 2 subtable" uacute.smcp
EndChar

StartChar: Ucircumflex
Encoding: 219 219 156
Width: 680
GlyphClass: 2
Flags: W
LayerCount: 2
Fore
SplineSet
218 797 m 1,0,-1
 345 927 l 1,1,-1
 382 927 l 1,2,-1
 497 797 l 1,3,-1
 461 797 l 1,4,-1
 363 897 l 1,5,-1
 254 797 l 1,6,-1
 218 797 l 1,0,-1
98 320 m 2,7,-1
 98 732 l 1,8,-1
 139 732 l 1,9,-1
 139 320 l 2,10,11
 139 217 139 217 153 156.5 c 128,-1,12
 167 96 167 96 203 71 c 128,-1,13
 239 46 239 46 267.5 41 c 128,-1,14
 296 36 296 36 359 36 c 2,15,-1
 360 36 l 2,16,17
 475 36 475 36 511 76 c 0,18,19
 556 126 556 126 567 204 c 0,20,21
 574 254 574 254 574 320 c 2,22,-1
 574 732 l 1,23,-1
 616 732 l 1,24,-1
 616 320 l 2,25,26
 616 162 616 162 576 92 c 0,27,28
 562 68 562 68 549.5 51.5 c 128,-1,29
 537 35 537 35 516 24 c 128,-1,30
 495 13 495 13 480.5 7.5 c 128,-1,31
 466 2 466 2 441 -1 c 0,32,33
 408 -5 408 -5 383 -5 c 128,-1,34
 358 -5 358 -5 341 -5 c 128,-1,35
 324 -5 324 -5 309.5 -4.5 c 128,-1,36
 295 -4 295 -4 268.5 -1.5 c 128,-1,37
 242 1 242 1 228 6.5 c 128,-1,38
 214 12 214 12 193 23.5 c 128,-1,39
 172 35 172 35 160.5 51 c 128,-1,40
 149 67 149 67 135 91.5 c 128,-1,41
 121 116 121 116 114 148 c 0,42,43
 98 229 98 229 98 320 c 2,7,-1
EndSplineSet
Substitution2: "'c2sc' Capitals to Small Capitals in Latin lookup 2 subtable" ucircumflex.smcp
EndChar

StartChar: Udieresis
Encoding: 220 220 157
Width: 680
GlyphClass: 2
Flags: W
LayerCount: 2
Fore
SplineSet
201 826 m 128,-1,1
 201 838 201 838 209 846 c 128,-1,2
 217 854 217 854 229 854 c 128,-1,3
 241 854 241 854 249.5 846 c 128,-1,4
 258 838 258 838 258 826 c 128,-1,5
 258 814 258 814 249.5 805.5 c 128,-1,6
 241 797 241 797 229 797 c 128,-1,7
 217 797 217 797 209 805.5 c 128,-1,0
 201 814 201 814 201 826 c 128,-1,1
455 826 m 128,-1,9
 455 838 455 838 463.5 846 c 128,-1,10
 472 854 472 854 484 854 c 128,-1,11
 496 854 496 854 504.5 846 c 128,-1,12
 513 838 513 838 513 826 c 128,-1,13
 513 814 513 814 504.5 805.5 c 128,-1,14
 496 797 496 797 484 797 c 128,-1,15
 472 797 472 797 463.5 805.5 c 128,-1,8
 455 814 455 814 455 826 c 128,-1,9
98 320 m 2,16,-1
 98 732 l 1,17,-1
 139 732 l 1,18,-1
 139 320 l 2,19,20
 139 217 139 217 153 156.5 c 128,-1,21
 167 96 167 96 203 71 c 128,-1,22
 239 46 239 46 267.5 41 c 128,-1,23
 296 36 296 36 359 36 c 2,24,-1
 360 36 l 2,25,26
 475 36 475 36 511 76 c 0,27,28
 556 126 556 126 567 204 c 0,29,30
 574 254 574 254 574 320 c 2,31,-1
 574 732 l 1,32,-1
 616 732 l 1,33,-1
 616 320 l 2,34,35
 616 162 616 162 576 92 c 0,36,37
 562 68 562 68 549.5 51.5 c 128,-1,38
 537 35 537 35 516 24 c 128,-1,39
 495 13 495 13 480.5 7.5 c 128,-1,40
 466 2 466 2 441 -1 c 0,41,42
 408 -5 408 -5 383 -5 c 128,-1,43
 358 -5 358 -5 341 -5 c 128,-1,44
 324 -5 324 -5 309.5 -4.5 c 128,-1,45
 295 -4 295 -4 268.5 -1.5 c 128,-1,46
 242 1 242 1 228 6.5 c 128,-1,47
 214 12 214 12 193 23.5 c 128,-1,48
 172 35 172 35 160.5 51 c 128,-1,49
 149 67 149 67 135 91.5 c 128,-1,50
 121 116 121 116 114 148 c 0,51,52
 98 229 98 229 98 320 c 2,16,-1
EndSplineSet
Substitution2: "'c2sc' Capitals to Small Capitals in Latin lookup 2 subtable" udieresis.smcp
EndChar

StartChar: Yacute
Encoding: 221 221 158
Width: 622
GlyphClass: 2
Flags: W
LayerCount: 2
Fore
SplineSet
310 797 m 1,0,-1
 426 930 l 1,1,-1
 475 930 l 1,2,-1
 342 797 l 1,3,-1
 310 797 l 1,0,-1
336 0 m 1,4,-1
 295 0 l 1,5,-1
 295 260 l 1,6,-1
 56 732 l 1,7,-1
 101 732 l 1,8,-1
 316 310 l 1,9,-1
 550 732 l 1,10,-1
 596 732 l 1,11,-1
 336 260 l 1,12,-1
 336 0 l 1,4,-1
EndSplineSet
Substitution2: "'c2sc' Capitals to Small Capitals in Latin lookup 2 subtable" yacute.smcp
EndChar

StartChar: Thorn
Encoding: 222 222 159
Width: 555
GlyphClass: 2
Flags: W
LayerCount: 2
Fore
SplineSet
74 0 m 1,0,-1
 74 729 l 1,1,-1
 115 729 l 1,2,-1
 115 588 l 1,3,-1
 325 588 l 2,4,5
 501 588 501 588 501 375 c 0,6,7
 501 215 501 215 418 170 c 0,8,9
 393 156 393 156 372 152.5 c 128,-1,10
 351 149 351 149 325 149 c 0,11,12
 173 152 173 152 115 162 c 1,13,-1
 115 0 l 1,14,-1
 74 0 l 1,0,-1
115 190 m 1,15,-1
 325 190 l 2,16,17
 391 190 391 190 425.5 231 c 128,-1,18
 460 272 460 272 460 377 c 0,19,20
 460 484 460 484 412 519 c 0,21,22
 374 547 374 547 325 547 c 2,23,-1
 115 547 l 1,24,-1
 115 190 l 1,15,-1
EndSplineSet
Substitution2: "'c2sc' Capitals to Small Capitals in Latin lookup 2 subtable" thorn.smcp
EndChar

StartChar: germandbls
Encoding: 223 223 160
Width: 567
GlyphClass: 2
Flags: W
LayerCount: 2
Fore
SplineSet
213 38 m 1,0,-1
 387 33 l 1,1,2
 447 33 447 33 474.5 63 c 128,-1,3
 502 93 502 93 503 132 c 1,4,-1
 503 179 l 2,5,6
 503 232 503 232 418 244 c 0,7,8
 382 249 382 249 346.5 256 c 128,-1,9
 311 263 311 263 286 285.5 c 128,-1,10
 261 308 261 308 261 348.5 c 128,-1,11
 261 389 261 389 284 413.5 c 128,-1,12
 307 438 307 438 390 497 c 0,13,14
 415 515 415 515 435 546 c 0,15,16
 462 587 462 587 462 632.5 c 128,-1,17
 462 678 462 678 419.5 707 c 128,-1,18
 377 736 377 736 292 736 c 128,-1,19
 207 736 207 736 161 692.5 c 128,-1,20
 115 649 115 649 115 566 c 2,21,-1
 115 0 l 1,22,-1
 74 0 l 1,23,-1
 74 566 l 2,24,25
 74 658 74 658 129.5 717.5 c 128,-1,26
 185 777 185 777 287 777 c 0,27,28
 358 777 358 777 406.5 759 c 128,-1,29
 455 741 455 741 476 713 c 0,30,31
 503 675 503 675 503 627 c 0,32,33
 503 573 503 573 462 516 c 1,34,35
 441 485 441 485 419.5 469.5 c 128,-1,36
 398 454 398 454 369 433 c 128,-1,37
 340 412 340 412 330.5 404 c 128,-1,38
 321 396 321 396 311.5 380.5 c 128,-1,39
 302 365 302 365 302 343 c 128,-1,40
 302 321 302 321 327 307.5 c 128,-1,41
 352 294 352 294 387.5 288.5 c 128,-1,42
 423 283 423 283 458.5 275 c 128,-1,43
 494 267 494 267 519 243.5 c 128,-1,44
 544 220 544 220 544 179 c 2,45,-1
 544 132 l 2,46,47
 544 63 544 63 499 27.5 c 128,-1,48
 454 -8 454 -8 381.5 -8 c 128,-1,49
 309 -8 309 -8 213 8 c 1,50,-1
 213 38 l 1,0,-1
EndSplineSet
Substitution2: "'smcp' Lowercase to Small Capitals lookup 1 subtable" germandbls.smcp
EndChar

StartChar: agrave
Encoding: 224 224 161
Width: 519
GlyphClass: 2
Flags: W
LayerCount: 2
Fore
SplineSet
121 734 m 1,0,-1
 170 734 l 1,1,-1
 286 601 l 1,2,-1
 254 601 l 1,3,-1
 121 734 l 1,0,-1
66 510 m 1,4,5
 185 541 185 541 308 541 c 0,6,7
 373 541 373 541 415.5 503 c 128,-1,8
 458 465 458 465 458 387 c 2,9,-1
 458 0 l 1,10,-1
 430 0 l 1,11,-1
 417 64 l 1,12,-1
 402 57 l 1,13,14
 306 14 306 14 257.5 4 c 128,-1,15
 209 -6 209 -6 182 -6 c 0,16,17
 125 -6 125 -6 87 29 c 128,-1,18
 49 64 49 64 49 126 c 2,19,-1
 49 187 l 2,20,21
 49 249 49 249 84.5 284.5 c 128,-1,22
 120 320 120 320 182 320 c 0,23,24
 300 320 300 320 358.5 320 c 128,-1,25
 417 320 417 320 417 320 c 1,26,27
 418 353 418 353 418 369.5 c 128,-1,28
 418 386 418 386 417 387 c 1,29,30
 417 501 417 501 304 502 c 0,31,32
 300 502 300 502 296 502 c 0,33,34
 215 502 215 502 66 483 c 1,35,-1
 66 510 l 1,4,5
90 131 m 2,36,37
 90 81 90 81 117 58.5 c 128,-1,38
 144 36 144 36 181 35.5 c 128,-1,39
 218 35 218 35 276.5 49 c 128,-1,40
 335 63 335 63 376 78 c 2,41,-1
 417 92 l 1,42,-1
 417 291 l 1,43,-1
 182 279 l 2,44,45
 90 275 90 275 90 185 c 2,46,-1
 90 131 l 2,36,37
EndSplineSet
AlternateSubs2: "'salt' Stylistic Alternatives in Latin lookup 16 subtable" agrave.salt
Substitution2: "'smcp' Lowercase to Small Capitals lookup 1 subtable" agrave.smcp
EndChar

StartChar: aacute
Encoding: 225 225 162
Width: 519
GlyphClass: 2
Flags: W
LayerCount: 2
Fore
SplineSet
248 601 m 1,0,-1
 364 734 l 1,1,-1
 413 734 l 1,2,-1
 280 601 l 1,3,-1
 248 601 l 1,0,-1
66 510 m 1,4,5
 185 541 185 541 308 541 c 0,6,7
 373 541 373 541 415.5 503 c 128,-1,8
 458 465 458 465 458 387 c 2,9,-1
 458 0 l 1,10,-1
 430 0 l 1,11,-1
 417 64 l 1,12,-1
 402 57 l 1,13,14
 306 14 306 14 257.5 4 c 128,-1,15
 209 -6 209 -6 182 -6 c 0,16,17
 125 -6 125 -6 87 29 c 128,-1,18
 49 64 49 64 49 126 c 2,19,-1
 49 187 l 2,20,21
 49 249 49 249 84.5 284.5 c 128,-1,22
 120 320 120 320 182 320 c 0,23,24
 300 320 300 320 358.5 320 c 128,-1,25
 417 320 417 320 417 320 c 1,26,27
 418 353 418 353 418 369.5 c 128,-1,28
 418 386 418 386 417 387 c 1,29,30
 417 501 417 501 304 502 c 0,31,32
 300 502 300 502 296 502 c 0,33,34
 215 502 215 502 66 483 c 1,35,-1
 66 510 l 1,4,5
90 131 m 2,36,37
 90 81 90 81 117 58.5 c 128,-1,38
 144 36 144 36 181 35.5 c 128,-1,39
 218 35 218 35 276.5 49 c 128,-1,40
 335 63 335 63 376 78 c 2,41,-1
 417 92 l 1,42,-1
 417 291 l 1,43,-1
 182 279 l 2,44,45
 90 275 90 275 90 185 c 2,46,-1
 90 131 l 2,36,37
EndSplineSet
AlternateSubs2: "'salt' Stylistic Alternatives in Latin lookup 16 subtable" aacute.salt
Substitution2: "'smcp' Lowercase to Small Capitals lookup 1 subtable" aacute.smcp
EndChar

StartChar: acircumflex
Encoding: 226 226 163
Width: 519
GlyphClass: 2
Flags: W
LayerCount: 2
Fore
SplineSet
128 601 m 1,0,-1
 255 731 l 1,1,-1
 292 731 l 1,2,-1
 407 601 l 1,3,-1
 371 601 l 1,4,-1
 273 701 l 1,5,-1
 164 601 l 1,6,-1
 128 601 l 1,0,-1
66 510 m 1,7,8
 185 541 185 541 308 541 c 0,9,10
 373 541 373 541 415.5 503 c 128,-1,11
 458 465 458 465 458 387 c 2,12,-1
 458 0 l 1,13,-1
 430 0 l 1,14,-1
 417 64 l 1,15,-1
 402 57 l 1,16,17
 306 14 306 14 257.5 4 c 128,-1,18
 209 -6 209 -6 182 -6 c 0,19,20
 125 -6 125 -6 87 29 c 128,-1,21
 49 64 49 64 49 126 c 2,22,-1
 49 187 l 2,23,24
 49 249 49 249 84.5 284.5 c 128,-1,25
 120 320 120 320 182 320 c 0,26,27
 300 320 300 320 358.5 320 c 128,-1,28
 417 320 417 320 417 320 c 1,29,30
 418 353 418 353 418 369.5 c 128,-1,31
 418 386 418 386 417 387 c 1,32,33
 417 501 417 501 304 502 c 0,34,35
 300 502 300 502 296 502 c 0,36,37
 215 502 215 502 66 483 c 1,38,-1
 66 510 l 1,7,8
90 131 m 2,39,40
 90 81 90 81 117 58.5 c 128,-1,41
 144 36 144 36 181 35.5 c 128,-1,42
 218 35 218 35 276.5 49 c 128,-1,43
 335 63 335 63 376 78 c 2,44,-1
 417 92 l 1,45,-1
 417 291 l 1,46,-1
 182 279 l 2,47,48
 90 275 90 275 90 185 c 2,49,-1
 90 131 l 2,39,40
EndSplineSet
AlternateSubs2: "'salt' Stylistic Alternatives in Latin lookup 16 subtable" acircumflex.salt
Substitution2: "'smcp' Lowercase to Small Capitals lookup 1 subtable" acircumflex.smcp
EndChar

StartChar: atilde
Encoding: 227 227 164
Width: 519
GlyphClass: 2
Flags: W
LayerCount: 2
Fore
SplineSet
267.5 671.5 m 128,-1,1
 309 642 309 642 320 642 c 128,-1,2
 331 642 331 642 340.5 644.5 c 128,-1,3
 350 647 350 647 357 650 c 128,-1,4
 364 653 364 653 374.5 659 c 128,-1,5
 385 665 385 665 390 668 c 0,6,7
 410 685 410 685 419 689 c 1,8,-1
 431 670 l 1,9,10
 407 648 407 648 396 639 c 128,-1,11
 385 630 385 630 363 619 c 128,-1,12
 341 608 341 608 319 608.5 c 128,-1,13
 297 609 297 609 257.5 638.5 c 128,-1,14
 218 668 218 668 203 668 c 128,-1,15
 188 668 188 668 174 663.5 c 128,-1,16
 160 659 160 659 152 654.5 c 128,-1,17
 144 650 144 650 127.5 639 c 128,-1,18
 111 628 111 628 103 623 c 1,19,-1
 93 642 l 1,20,21
 117 662 117 662 130 672 c 0,22,23
 167 702 167 702 203 702 c 1,24,0
 226 701 226 701 267.5 671.5 c 128,-1,1
66 510 m 1,25,26
 185 541 185 541 308 541 c 0,27,28
 373 541 373 541 415.5 503 c 128,-1,29
 458 465 458 465 458 387 c 2,30,-1
 458 0 l 1,31,-1
 430 0 l 1,32,-1
 417 64 l 1,33,-1
 402 57 l 1,34,35
 306 14 306 14 257.5 4 c 128,-1,36
 209 -6 209 -6 182 -6 c 0,37,38
 125 -6 125 -6 87 29 c 128,-1,39
 49 64 49 64 49 126 c 2,40,-1
 49 187 l 2,41,42
 49 249 49 249 84.5 284.5 c 128,-1,43
 120 320 120 320 182 320 c 0,44,45
 300 320 300 320 358.5 320 c 128,-1,46
 417 320 417 320 417 320 c 1,47,48
 418 353 418 353 418 369.5 c 128,-1,49
 418 386 418 386 417 387 c 1,50,51
 417 501 417 501 304 502 c 0,52,53
 300 502 300 502 296 502 c 0,54,55
 215 502 215 502 66 483 c 1,56,-1
 66 510 l 1,25,26
90 131 m 2,57,58
 90 81 90 81 117 58.5 c 128,-1,59
 144 36 144 36 181 35.5 c 128,-1,60
 218 35 218 35 276.5 49 c 128,-1,61
 335 63 335 63 376 78 c 2,62,-1
 417 92 l 1,63,-1
 417 291 l 1,64,-1
 182 279 l 2,65,66
 90 275 90 275 90 185 c 2,67,-1
 90 131 l 2,57,58
EndSplineSet
AlternateSubs2: "'salt' Stylistic Alternatives in Latin lookup 16 subtable" atilde.salt
Substitution2: "'smcp' Lowercase to Small Capitals lookup 1 subtable" atilde.smcp
EndChar

StartChar: adieresis
Encoding: 228 228 165
Width: 519
GlyphClass: 2
Flags: W
LayerCount: 2
Fore
SplineSet
110 652 m 128,-1,1
 110 664 110 664 118 672 c 128,-1,2
 126 680 126 680 138 680 c 128,-1,3
 150 680 150 680 158.5 672 c 128,-1,4
 167 664 167 664 167 652 c 128,-1,5
 167 640 167 640 158.5 631.5 c 128,-1,6
 150 623 150 623 138 623 c 128,-1,7
 126 623 126 623 118 631.5 c 128,-1,0
 110 640 110 640 110 652 c 128,-1,1
364 652 m 128,-1,9
 364 664 364 664 372.5 672 c 128,-1,10
 381 680 381 680 393 680 c 128,-1,11
 405 680 405 680 413.5 672 c 128,-1,12
 422 664 422 664 422 652 c 128,-1,13
 422 640 422 640 413.5 631.5 c 128,-1,14
 405 623 405 623 393 623 c 128,-1,15
 381 623 381 623 372.5 631.5 c 128,-1,8
 364 640 364 640 364 652 c 128,-1,9
66 510 m 1,16,17
 185 541 185 541 308 541 c 0,18,19
 373 541 373 541 415.5 503 c 128,-1,20
 458 465 458 465 458 387 c 2,21,-1
 458 0 l 1,22,-1
 430 0 l 1,23,-1
 417 64 l 1,24,-1
 402 57 l 1,25,26
 306 14 306 14 257.5 4 c 128,-1,27
 209 -6 209 -6 182 -6 c 0,28,29
 125 -6 125 -6 87 29 c 128,-1,30
 49 64 49 64 49 126 c 2,31,-1
 49 187 l 2,32,33
 49 249 49 249 84.5 284.5 c 128,-1,34
 120 320 120 320 182 320 c 0,35,36
 300 320 300 320 358.5 320 c 128,-1,37
 417 320 417 320 417 320 c 1,38,39
 418 353 418 353 418 369.5 c 128,-1,40
 418 386 418 386 417 387 c 1,41,42
 417 501 417 501 304 502 c 0,43,44
 300 502 300 502 296 502 c 0,45,46
 215 502 215 502 66 483 c 1,47,-1
 66 510 l 1,16,17
90 131 m 2,48,49
 90 81 90 81 117 58.5 c 128,-1,50
 144 36 144 36 181 35.5 c 128,-1,51
 218 35 218 35 276.5 49 c 128,-1,52
 335 63 335 63 376 78 c 2,53,-1
 417 92 l 1,54,-1
 417 291 l 1,55,-1
 182 279 l 2,56,57
 90 275 90 275 90 185 c 2,58,-1
 90 131 l 2,48,49
EndSplineSet
AlternateSubs2: "'salt' Stylistic Alternatives in Latin lookup 16 subtable" adieresis.salt
Substitution2: "'smcp' Lowercase to Small Capitals lookup 1 subtable" adieresis.smcp
EndChar

StartChar: aring
Encoding: 229 229 166
Width: 519
GlyphClass: 2
Flags: W
LayerCount: 2
Fore
SplineSet
162 673 m 128,-1,1
 162 716 162 716 192 746 c 128,-1,2
 222 776 222 776 264 776 c 128,-1,3
 306 776 306 776 335 746 c 128,-1,4
 364 716 364 716 364 673 c 128,-1,5
 364 630 364 630 335 600.5 c 128,-1,6
 306 571 306 571 264 571 c 128,-1,7
 222 571 222 571 192 600.5 c 128,-1,0
 162 630 162 630 162 673 c 128,-1,1
187 673 m 128,-1,9
 187 642 187 642 209.5 619.5 c 128,-1,10
 232 597 232 597 263.5 597 c 128,-1,11
 295 597 295 597 317 619 c 128,-1,12
 339 641 339 641 339 673 c 128,-1,13
 339 705 339 705 317 727.5 c 128,-1,14
 295 750 295 750 263.5 750 c 128,-1,15
 232 750 232 750 209.5 727 c 128,-1,8
 187 704 187 704 187 673 c 128,-1,9
66 510 m 1,16,17
 185 541 185 541 308 541 c 0,18,19
 373 541 373 541 415.5 503 c 128,-1,20
 458 465 458 465 458 387 c 2,21,-1
 458 0 l 1,22,-1
 430 0 l 1,23,-1
 417 64 l 1,24,-1
 402 57 l 1,25,26
 306 14 306 14 257.5 4 c 128,-1,27
 209 -6 209 -6 182 -6 c 0,28,29
 125 -6 125 -6 87 29 c 128,-1,30
 49 64 49 64 49 126 c 2,31,-1
 49 187 l 2,32,33
 49 249 49 249 84.5 284.5 c 128,-1,34
 120 320 120 320 182 320 c 0,35,36
 300 320 300 320 358.5 320 c 128,-1,37
 417 320 417 320 417 320 c 1,38,39
 418 353 418 353 418 369.5 c 128,-1,40
 418 386 418 386 417 387 c 1,41,42
 417 501 417 501 304 502 c 0,43,44
 300 502 300 502 296 502 c 0,45,46
 215 502 215 502 66 483 c 1,47,-1
 66 510 l 1,16,17
90 131 m 2,48,49
 90 81 90 81 117 58.5 c 128,-1,50
 144 36 144 36 181 35.5 c 128,-1,51
 218 35 218 35 276.5 49 c 128,-1,52
 335 63 335 63 376 78 c 2,53,-1
 417 92 l 1,54,-1
 417 291 l 1,55,-1
 182 279 l 2,56,57
 90 275 90 275 90 185 c 2,58,-1
 90 131 l 2,48,49
EndSplineSet
AlternateSubs2: "'salt' Stylistic Alternatives in Latin lookup 16 subtable" aring.salt
Substitution2: "'smcp' Lowercase to Small Capitals lookup 1 subtable" aring.smcp
EndChar

StartChar: ae
Encoding: 230 230 167
Width: 882
GlyphClass: 2
Flags: W
LayerCount: 2
Fore
SplineSet
66 512 m 1,0,1
 175 543 175 543 309 543 c 0,2,3
 357 543 357 543 394 521 c 128,-1,4
 431 499 431 499 446 453 c 1,5,6
 464 501 464 501 508.5 518.5 c 128,-1,7
 553 536 553 536 631 536 c 0,8,9
 734 536 734 536 762 521 c 0,10,11
 803 500 803 500 816 469 c 1,12,13
 834 422 834 422 834 361 c 128,-1,14
 834 300 834 300 800 275.5 c 128,-1,15
 766 251 766 251 697 251 c 2,16,-1
 459 251 l 1,17,18
 459 156 459 156 464 124.5 c 128,-1,19
 469 93 469 93 477 80.5 c 128,-1,20
 485 68 485 68 500 56 c 0,21,22
 525 37 525 37 593 37 c 0,23,24
 599 37 599 37 604 37 c 0,25,26
 707 37 707 37 824 54 c 1,27,-1
 824 24 l 1,28,29
 725 -4 725 -4 593 -4 c 0,30,31
 503 -4 503 -4 466 30 c 0,32,33
 450 45 450 45 435 66 c 1,34,-1
 418 59 l 1,35,36
 310 16 310 16 259.5 6 c 128,-1,37
 209 -4 209 -4 182 -4 c 0,38,39
 125 -4 125 -4 87 31 c 128,-1,40
 49 66 49 66 49 128 c 2,41,-1
 49 161 l 2,42,43
 49 223 49 223 84.5 258.5 c 128,-1,44
 120 294 120 294 182 294 c 0,45,46
 300 294 300 294 358.5 294 c 128,-1,47
 417 294 417 294 417 294 c 1,48,49
 418 341 418 341 418 364.5 c 128,-1,50
 418 388 418 388 417 389 c 1,51,52
 417 503 417 503 304 504 c 0,53,54
 300 504 300 504 296 504 c 0,55,56
 216 504 216 504 66 485 c 1,57,-1
 66 512 l 1,0,1
90 133 m 2,58,59
 90 83 90 83 117 60.5 c 128,-1,60
 144 38 144 38 181 37.5 c 128,-1,61
 218 37 218 37 276.5 52.5 c 128,-1,62
 335 68 335 68 376 84 c 2,63,-1
 417 99 l 1,64,-1
 417 264 l 1,65,-1
 182 255 l 2,66,67
 90 251 90 251 90 161 c 2,68,-1
 90 133 l 2,58,59
697 291 m 2,69,70
 745 291 745 291 769 304 c 128,-1,71
 793 317 793 317 793 351.5 c 128,-1,72
 793 386 793 386 790 407 c 128,-1,73
 787 428 787 428 782.5 443 c 128,-1,74
 778 458 778 458 766.5 468 c 128,-1,75
 755 478 755 478 745.5 483.5 c 128,-1,76
 736 489 736 489 716 492 c 0,77,78
 687 495 687 495 623.5 495 c 128,-1,79
 560 495 560 495 525.5 481 c 128,-1,80
 491 467 491 467 475.5 424 c 128,-1,81
 460 381 460 381 459 291 c 1,82,-1
 697 291 l 2,69,70
EndSplineSet
Substitution2: "'smcp' Lowercase to Small Capitals lookup 1 subtable" ae.smcp
EndChar

StartChar: ccedilla
Encoding: 231 231 168
Width: 500
GlyphClass: 2
Flags: W
LayerCount: 2
Fore
SplineSet
62 266 m 128,-1,1
 62 350 62 350 74 405.5 c 128,-1,2
 86 461 86 461 111 489 c 128,-1,3
 136 517 136 517 165 527 c 128,-1,4
 194 537 194 537 256.5 537 c 128,-1,5
 319 537 319 537 444 510 c 1,6,-1
 444 482 l 1,7,8
 325 496 325 496 263.5 496 c 128,-1,9
 202 496 202 496 180.5 488 c 128,-1,10
 159 480 159 480 140 457 c 0,11,12
 103 412 103 412 103 271 c 128,-1,13
 103 130 103 130 136 82.5 c 128,-1,14
 169 35 169 35 236 35 c 0,15,16
 318 35 318 35 418 48 c 1,17,-1
 452 53 l 1,18,-1
 452 23 l 1,19,20
 355 -5 355 -5 236 -6 c 0,21,22
 195 -6 195 -6 166.5 4 c 128,-1,23
 138 14 138 14 112.5 42 c 128,-1,24
 87 70 87 70 74.5 126 c 128,-1,0
 62 182 62 182 62 266 c 128,-1,1
269 -43 m 0,25,26
 269 -40 269 -40 269 -36 c 1,27,-1
 303 -36 l 1,28,29
 303 -114 303 -114 282.5 -143 c 128,-1,30
 262 -172 262 -172 202 -172 c 2,31,-1
 164 -172 l 1,32,-1
 164 -154 l 1,33,-1
 204 -146 l 2,34,35
 240 -139 240 -139 254.5 -117.5 c 128,-1,36
 269 -96 269 -96 269 -43 c 0,25,26
EndSplineSet
Substitution2: "'smcp' Lowercase to Small Capitals lookup 1 subtable" ccedilla.smcp
EndChar

StartChar: egrave
Encoding: 232 232 169
Width: 525
GlyphClass: 2
Flags: W
LayerCount: 2
Fore
SplineSet
135 726 m 1,0,-1
 184 726 l 1,1,-1
 300 593 l 1,2,-1
 268 593 l 1,3,-1
 135 726 l 1,0,-1
62 268 m 0,4,5
 62 356 62 356 73 409 c 128,-1,6
 84 462 84 462 111.5 490 c 128,-1,7
 139 518 139 518 175 526.5 c 128,-1,8
 211 535 211 535 260 535 c 128,-1,9
 309 535 309 535 331.5 533 c 128,-1,10
 354 531 354 531 380 525 c 128,-1,11
 406 519 406 519 421.5 506.5 c 128,-1,12
 437 494 437 494 450 474 c 0,13,14
 476 436 476 436 476 347 c 0,15,16
 476 290 476 290 442.5 266 c 128,-1,17
 409 242 409 242 340 242 c 2,18,-1
 103 242 l 1,19,20
 103 157 103 157 120 110.5 c 128,-1,21
 137 64 137 64 163.5 50 c 128,-1,22
 190 36 190 36 236 36 c 0,23,24
 350 36 350 36 466 53 c 1,25,-1
 466 23 l 1,26,27
 368 -5 368 -5 252 -5 c 0,28,29
 244 -5 244 -5 236 -5 c 0,30,31
 136 -4 136 -4 99 55.5 c 128,-1,32
 62 115 62 115 62 268 c 0,4,5
103 282 m 1,33,-1
 340 282 l 2,34,35
 386 282 386 282 410.5 295 c 128,-1,36
 435 308 435 308 435 352.5 c 128,-1,37
 435 397 435 397 427 426.5 c 128,-1,38
 419 456 419 456 397 471 c 128,-1,39
 375 486 375 486 348.5 490 c 128,-1,40
 322 494 322 494 271 494 c 128,-1,41
 220 494 220 494 191.5 488 c 128,-1,42
 163 482 163 482 140.5 460 c 128,-1,43
 118 438 118 438 110.5 396.5 c 128,-1,44
 103 355 103 355 103 282 c 1,33,-1
EndSplineSet
Substitution2: "'smcp' Lowercase to Small Capitals lookup 1 subtable" egrave.smcp
EndChar

StartChar: eacute
Encoding: 233 233 170
Width: 525
GlyphClass: 2
Flags: W
LayerCount: 2
Fore
SplineSet
261 593 m 1,0,-1
 377 726 l 1,1,-1
 426 726 l 1,2,-1
 293 593 l 1,3,-1
 261 593 l 1,0,-1
62 268 m 0,4,5
 62 356 62 356 73 409 c 128,-1,6
 84 462 84 462 111.5 490 c 128,-1,7
 139 518 139 518 175 526.5 c 128,-1,8
 211 535 211 535 260 535 c 128,-1,9
 309 535 309 535 331.5 533 c 128,-1,10
 354 531 354 531 380 525 c 128,-1,11
 406 519 406 519 421.5 506.5 c 128,-1,12
 437 494 437 494 450 474 c 0,13,14
 476 436 476 436 476 347 c 0,15,16
 476 290 476 290 442.5 266 c 128,-1,17
 409 242 409 242 340 242 c 2,18,-1
 103 242 l 1,19,20
 103 157 103 157 120 110.5 c 128,-1,21
 137 64 137 64 163.5 50 c 128,-1,22
 190 36 190 36 236 36 c 0,23,24
 350 36 350 36 466 53 c 1,25,-1
 466 23 l 1,26,27
 368 -5 368 -5 252 -5 c 0,28,29
 244 -5 244 -5 236 -5 c 0,30,31
 136 -4 136 -4 99 55.5 c 128,-1,32
 62 115 62 115 62 268 c 0,4,5
103 282 m 1,33,-1
 340 282 l 2,34,35
 386 282 386 282 410.5 295 c 128,-1,36
 435 308 435 308 435 352.5 c 128,-1,37
 435 397 435 397 427 426.5 c 128,-1,38
 419 456 419 456 397 471 c 128,-1,39
 375 486 375 486 348.5 490 c 128,-1,40
 322 494 322 494 271 494 c 128,-1,41
 220 494 220 494 191.5 488 c 128,-1,42
 163 482 163 482 140.5 460 c 128,-1,43
 118 438 118 438 110.5 396.5 c 128,-1,44
 103 355 103 355 103 282 c 1,33,-1
EndSplineSet
Substitution2: "'smcp' Lowercase to Small Capitals lookup 1 subtable" eacute.smcp
EndChar

StartChar: ecircumflex
Encoding: 234 234 171
Width: 525
GlyphClass: 2
Flags: W
LayerCount: 2
Fore
SplineSet
133 593 m 1,0,-1
 260 723 l 1,1,-1
 297 723 l 1,2,-1
 412 593 l 1,3,-1
 376 593 l 1,4,-1
 278 693 l 1,5,-1
 169 593 l 1,6,-1
 133 593 l 1,0,-1
62 268 m 0,7,8
 62 356 62 356 73 409 c 128,-1,9
 84 462 84 462 111.5 490 c 128,-1,10
 139 518 139 518 175 526.5 c 128,-1,11
 211 535 211 535 260 535 c 128,-1,12
 309 535 309 535 331.5 533 c 128,-1,13
 354 531 354 531 380 525 c 128,-1,14
 406 519 406 519 421.5 506.5 c 128,-1,15
 437 494 437 494 450 474 c 0,16,17
 476 436 476 436 476 347 c 0,18,19
 476 290 476 290 442.5 266 c 128,-1,20
 409 242 409 242 340 242 c 2,21,-1
 103 242 l 1,22,23
 103 157 103 157 120 110.5 c 128,-1,24
 137 64 137 64 163.5 50 c 128,-1,25
 190 36 190 36 236 36 c 0,26,27
 350 36 350 36 466 53 c 1,28,-1
 466 23 l 1,29,30
 368 -5 368 -5 252 -5 c 0,31,32
 244 -5 244 -5 236 -5 c 0,33,34
 136 -4 136 -4 99 55.5 c 128,-1,35
 62 115 62 115 62 268 c 0,7,8
103 282 m 1,36,-1
 340 282 l 2,37,38
 386 282 386 282 410.5 295 c 128,-1,39
 435 308 435 308 435 352.5 c 128,-1,40
 435 397 435 397 427 426.5 c 128,-1,41
 419 456 419 456 397 471 c 128,-1,42
 375 486 375 486 348.5 490 c 128,-1,43
 322 494 322 494 271 494 c 128,-1,44
 220 494 220 494 191.5 488 c 128,-1,45
 163 482 163 482 140.5 460 c 128,-1,46
 118 438 118 438 110.5 396.5 c 128,-1,47
 103 355 103 355 103 282 c 1,36,-1
EndSplineSet
Substitution2: "'smcp' Lowercase to Small Capitals lookup 1 subtable" ecircumflex.smcp
EndChar

StartChar: edieresis
Encoding: 235 235 172
Width: 525
GlyphClass: 2
Flags: W
LayerCount: 2
Fore
SplineSet
120 644 m 128,-1,1
 120 656 120 656 128 664 c 128,-1,2
 136 672 136 672 148 672 c 128,-1,3
 160 672 160 672 168.5 664 c 128,-1,4
 177 656 177 656 177 644 c 128,-1,5
 177 632 177 632 168.5 623.5 c 128,-1,6
 160 615 160 615 148 615 c 128,-1,7
 136 615 136 615 128 623.5 c 128,-1,0
 120 632 120 632 120 644 c 128,-1,1
374 644 m 128,-1,9
 374 656 374 656 382.5 664 c 128,-1,10
 391 672 391 672 403 672 c 128,-1,11
 415 672 415 672 423.5 664 c 128,-1,12
 432 656 432 656 432 644 c 128,-1,13
 432 632 432 632 423.5 623.5 c 128,-1,14
 415 615 415 615 403 615 c 128,-1,15
 391 615 391 615 382.5 623.5 c 128,-1,8
 374 632 374 632 374 644 c 128,-1,9
62 268 m 0,16,17
 62 356 62 356 73 409 c 128,-1,18
 84 462 84 462 111.5 490 c 128,-1,19
 139 518 139 518 175 526.5 c 128,-1,20
 211 535 211 535 260 535 c 128,-1,21
 309 535 309 535 331.5 533 c 128,-1,22
 354 531 354 531 380 525 c 128,-1,23
 406 519 406 519 421.5 506.5 c 128,-1,24
 437 494 437 494 450 474 c 0,25,26
 476 436 476 436 476 347 c 0,27,28
 476 290 476 290 442.5 266 c 128,-1,29
 409 242 409 242 340 242 c 2,30,-1
 103 242 l 1,31,32
 103 157 103 157 120 110.5 c 128,-1,33
 137 64 137 64 163.5 50 c 128,-1,34
 190 36 190 36 236 36 c 0,35,36
 350 36 350 36 466 53 c 1,37,-1
 466 23 l 1,38,39
 368 -5 368 -5 252 -5 c 0,40,41
 244 -5 244 -5 236 -5 c 0,42,43
 136 -4 136 -4 99 55.5 c 128,-1,44
 62 115 62 115 62 268 c 0,16,17
103 282 m 1,45,-1
 340 282 l 2,46,47
 386 282 386 282 410.5 295 c 128,-1,48
 435 308 435 308 435 352.5 c 128,-1,49
 435 397 435 397 427 426.5 c 128,-1,50
 419 456 419 456 397 471 c 128,-1,51
 375 486 375 486 348.5 490 c 128,-1,52
 322 494 322 494 271 494 c 128,-1,53
 220 494 220 494 191.5 488 c 128,-1,54
 163 482 163 482 140.5 460 c 128,-1,55
 118 438 118 438 110.5 396.5 c 128,-1,56
 103 355 103 355 103 282 c 1,45,-1
EndSplineSet
Substitution2: "'smcp' Lowercase to Small Capitals lookup 1 subtable" edieresis.smcp
EndChar

StartChar: igrave
Encoding: 236 236 173
Width: 188
GlyphClass: 2
Flags: W
LayerCount: 2
Fore
SplineSet
-55 729 m 1,0,-1
 -6 729 l 1,1,-1
 110 596 l 1,2,-1
 78 596 l 1,3,-1
 -55 729 l 1,0,-1
74 0 m 1,4,-1
 74 531 l 1,5,-1
 115 531 l 1,6,-1
 115 0 l 1,7,-1
 74 0 l 1,4,-1
EndSplineSet
Substitution2: "'smcp' Lowercase to Small Capitals lookup 1 subtable" igrave.smcp
EndChar

StartChar: iacute
Encoding: 237 237 174
Width: 188
GlyphClass: 2
Flags: W
LayerCount: 2
Fore
SplineSet
78 596 m 1,0,-1
 194 729 l 1,1,-1
 243 729 l 1,2,-1
 110 596 l 1,3,-1
 78 596 l 1,0,-1
74 0 m 1,4,-1
 74 531 l 1,5,-1
 115 531 l 1,6,-1
 115 0 l 1,7,-1
 74 0 l 1,4,-1
EndSplineSet
Substitution2: "'smcp' Lowercase to Small Capitals lookup 1 subtable" iacute.smcp
EndChar

StartChar: icircumflex
Encoding: 238 238 175
Width: 188
GlyphClass: 2
Flags: W
LayerCount: 2
Fore
SplineSet
-45 596 m 1,0,-1
 82 726 l 1,1,-1
 119 726 l 1,2,-1
 234 596 l 1,3,-1
 198 596 l 1,4,-1
 100 696 l 1,5,-1
 -9 596 l 1,6,-1
 -45 596 l 1,0,-1
74 0 m 1,7,-1
 74 531 l 1,8,-1
 115 531 l 1,9,-1
 115 0 l 1,10,-1
 74 0 l 1,7,-1
EndSplineSet
Substitution2: "'smcp' Lowercase to Small Capitals lookup 1 subtable" icircumflex.smcp
EndChar

StartChar: idieresis
Encoding: 239 239 176
Width: 188
GlyphClass: 2
Flags: W
LayerCount: 2
Fore
SplineSet
-61 625 m 128,-1,1
 -61 637 -61 637 -53 645 c 128,-1,2
 -45 653 -45 653 -33 653 c 128,-1,3
 -21 653 -21 653 -12.5 645 c 128,-1,4
 -4 637 -4 637 -4 625 c 128,-1,5
 -4 613 -4 613 -12.5 604.5 c 128,-1,6
 -21 596 -21 596 -33 596 c 128,-1,7
 -45 596 -45 596 -53 604.5 c 128,-1,0
 -61 613 -61 613 -61 625 c 128,-1,1
193 625 m 128,-1,9
 193 637 193 637 201.5 645 c 128,-1,10
 210 653 210 653 222 653 c 128,-1,11
 234 653 234 653 242.5 645 c 128,-1,12
 251 637 251 637 251 625 c 128,-1,13
 251 613 251 613 242.5 604.5 c 128,-1,14
 234 596 234 596 222 596 c 128,-1,15
 210 596 210 596 201.5 604.5 c 128,-1,8
 193 613 193 613 193 625 c 128,-1,9
74 0 m 1,16,-1
 74 531 l 1,17,-1
 115 531 l 1,18,-1
 115 0 l 1,19,-1
 74 0 l 1,16,-1
EndSplineSet
Substitution2: "'smcp' Lowercase to Small Capitals lookup 1 subtable" idieresis.smcp
EndChar

StartChar: eth
Encoding: 240 240 177
Width: 539
GlyphClass: 2
Flags: W
LayerCount: 2
Fore
SplineSet
88 62.5 m 128,-1,1
 49 125 49 125 49 261.5 c 128,-1,2
 49 398 49 398 89.5 464.5 c 128,-1,3
 130 531 130 531 227 531 c 2,4,-1
 307 531 l 2,5,6
 347 531 347 531 380.5 514.5 c 128,-1,7
 414 498 414 498 424 482 c 1,8,9
 396 607 396 607 331 672 c 1,10,-1
 176 610 l 1,11,-1
 164 639 l 1,12,-1
 303 695 l 1,13,14
 234 747 234 747 133 747 c 1,15,-1
 133 783 l 1,16,17
 263 783 263 783 346 711 c 1,18,-1
 470 760 l 1,19,-1
 483 731 l 1,20,-1
 371 687 l 1,21,22
 487 557 487 557 487 264 c 0,23,24
 487 122 487 122 440 61 c 128,-1,25
 393 0 393 0 307 0 c 2,26,-1
 227 0 l 2,27,0
 127 0 127 0 88 62.5 c 128,-1,1
99.5 379 m 128,-1,29
 90 333 90 333 90 263 c 128,-1,30
 90 193 90 193 99 148 c 128,-1,31
 108 103 108 103 127.5 80.5 c 128,-1,32
 147 58 147 58 169.5 50.5 c 128,-1,33
 192 43 192 43 227 43 c 2,34,-1
 307 43 l 2,35,36
 385 43 385 43 415.5 100.5 c 128,-1,37
 446 158 446 158 446 264 c 0,38,39
 446 367 446 367 423 422 c 0,40,41
 395 490 395 490 307 490 c 2,42,-1
 227 490 l 2,43,44
 194 490 194 490 171 481 c 128,-1,45
 148 472 148 472 128.5 448.5 c 128,-1,28
 109 425 109 425 99.5 379 c 128,-1,29
EndSplineSet
Substitution2: "'smcp' Lowercase to Small Capitals lookup 1 subtable" eth.smcp
EndChar

StartChar: ntilde
Encoding: 241 241 178
Width: 549
GlyphClass: 2
Flags: W
LayerCount: 2
Fore
SplineSet
286.5 663.5 m 128,-1,1
 328 634 328 634 339 634 c 128,-1,2
 350 634 350 634 359.5 636.5 c 128,-1,3
 369 639 369 639 376 642 c 128,-1,4
 383 645 383 645 393.5 651 c 128,-1,5
 404 657 404 657 408 660 c 0,6,7
 429 677 429 677 438 681 c 1,8,-1
 450 662 l 1,9,10
 426 640 426 640 415 631 c 128,-1,11
 404 622 404 622 382 611 c 128,-1,12
 360 600 360 600 338 600.5 c 128,-1,13
 316 601 316 601 276.5 630.5 c 128,-1,14
 237 660 237 660 222 660 c 128,-1,15
 207 660 207 660 193 655.5 c 128,-1,16
 179 651 179 651 171 646.5 c 128,-1,17
 163 642 163 642 146.5 631 c 128,-1,18
 130 620 130 620 122 615 c 1,19,-1
 112 634 l 1,20,21
 136 654 136 654 149 664 c 0,22,23
 186 694 186 694 222 694 c 1,24,0
 245 693 245 693 286.5 663.5 c 128,-1,1
74 0 m 1,25,-1
 74 531 l 1,26,-1
 101 531 l 1,27,-1
 115 469 l 1,28,29
 228 540 228 540 324 540 c 0,30,31
 400 540 400 540 444 490 c 128,-1,32
 488 440 488 440 488 370 c 2,33,-1
 488 0 l 1,34,-1
 447 0 l 1,35,-1
 447 370 l 2,36,37
 447 427 447 427 413.5 463 c 128,-1,38
 380 499 380 499 322.5 499 c 128,-1,39
 265 499 265 499 221.5 485.5 c 128,-1,40
 178 472 178 472 115 439 c 1,41,-1
 115 0 l 1,42,-1
 74 0 l 1,25,-1
EndSplineSet
AlternateSubs2: "'salt' Stylistic Alternatives in Latin lookup 16 subtable" ntilde.salt
Substitution2: "'smcp' Lowercase to Small Capitals lookup 1 subtable" ntilde.smcp
EndChar

StartChar: ograve
Encoding: 242 242 179
Width: 571
GlyphClass: 2
Flags: W
LayerCount: 2
Fore
SplineSet
140 729 m 1,0,-1
 189 729 l 1,1,-1
 305 596 l 1,2,-1
 273 596 l 1,3,-1
 140 729 l 1,0,-1
108.5 53.5 m 128,-1,5
 62 112 62 112 62 265 c 128,-1,6
 62 418 62 418 111 477 c 128,-1,7
 160 536 160 536 286.5 536 c 128,-1,8
 413 536 413 536 461.5 472.5 c 128,-1,9
 510 409 510 409 510 260 c 128,-1,10
 510 111 510 111 461.5 53 c 128,-1,11
 413 -5 413 -5 284 -5 c 128,-1,4
 155 -5 155 -5 108.5 53.5 c 128,-1,5
114 386.5 m 128,-1,13
 103 338 103 338 103 261.5 c 128,-1,14
 103 185 103 185 114 139.5 c 128,-1,15
 125 94 125 94 150.5 72 c 128,-1,16
 176 50 176 50 205.5 43 c 128,-1,17
 235 36 235 36 285 36 c 128,-1,18
 335 36 335 36 365.5 43.5 c 128,-1,19
 396 51 396 51 422 74 c 0,20,21
 469 117 469 117 469 258 c 0,22,23
 469 410 469 410 422 455 c 0,24,25
 396 479 396 479 365.5 487 c 128,-1,26
 335 495 335 495 285 495 c 128,-1,27
 235 495 235 495 206 488.5 c 128,-1,28
 177 482 177 482 151 458.5 c 128,-1,12
 125 435 125 435 114 386.5 c 128,-1,13
EndSplineSet
Substitution2: "'smcp' Lowercase to Small Capitals lookup 1 subtable" ograve.smcp
EndChar

StartChar: oacute
Encoding: 243 243 180
Width: 571
GlyphClass: 2
Flags: W
LayerCount: 2
Fore
SplineSet
269 596 m 1,0,-1
 385 729 l 1,1,-1
 434 729 l 1,2,-1
 301 596 l 1,3,-1
 269 596 l 1,0,-1
108.5 53.5 m 128,-1,5
 62 112 62 112 62 265 c 128,-1,6
 62 418 62 418 111 477 c 128,-1,7
 160 536 160 536 286.5 536 c 128,-1,8
 413 536 413 536 461.5 472.5 c 128,-1,9
 510 409 510 409 510 260 c 128,-1,10
 510 111 510 111 461.5 53 c 128,-1,11
 413 -5 413 -5 284 -5 c 128,-1,4
 155 -5 155 -5 108.5 53.5 c 128,-1,5
114 386.5 m 128,-1,13
 103 338 103 338 103 261.5 c 128,-1,14
 103 185 103 185 114 139.5 c 128,-1,15
 125 94 125 94 150.5 72 c 128,-1,16
 176 50 176 50 205.5 43 c 128,-1,17
 235 36 235 36 285 36 c 128,-1,18
 335 36 335 36 365.5 43.5 c 128,-1,19
 396 51 396 51 422 74 c 0,20,21
 469 117 469 117 469 258 c 0,22,23
 469 410 469 410 422 455 c 0,24,25
 396 479 396 479 365.5 487 c 128,-1,26
 335 495 335 495 285 495 c 128,-1,27
 235 495 235 495 206 488.5 c 128,-1,28
 177 482 177 482 151 458.5 c 128,-1,12
 125 435 125 435 114 386.5 c 128,-1,13
EndSplineSet
Substitution2: "'smcp' Lowercase to Small Capitals lookup 1 subtable" oacute.smcp
EndChar

StartChar: ocircumflex
Encoding: 244 244 181
Width: 571
GlyphClass: 2
Flags: W
LayerCount: 2
Fore
SplineSet
148 596 m 1,0,-1
 275 726 l 1,1,-1
 312 726 l 1,2,-1
 427 596 l 1,3,-1
 391 596 l 1,4,-1
 293 696 l 1,5,-1
 184 596 l 1,6,-1
 148 596 l 1,0,-1
108.5 53.5 m 128,-1,8
 62 112 62 112 62 265 c 128,-1,9
 62 418 62 418 111 477 c 128,-1,10
 160 536 160 536 286.5 536 c 128,-1,11
 413 536 413 536 461.5 472.5 c 128,-1,12
 510 409 510 409 510 260 c 128,-1,13
 510 111 510 111 461.5 53 c 128,-1,14
 413 -5 413 -5 284 -5 c 128,-1,7
 155 -5 155 -5 108.5 53.5 c 128,-1,8
114 386.5 m 128,-1,16
 103 338 103 338 103 261.5 c 128,-1,17
 103 185 103 185 114 139.5 c 128,-1,18
 125 94 125 94 150.5 72 c 128,-1,19
 176 50 176 50 205.5 43 c 128,-1,20
 235 36 235 36 285 36 c 128,-1,21
 335 36 335 36 365.5 43.5 c 128,-1,22
 396 51 396 51 422 74 c 0,23,24
 469 117 469 117 469 258 c 0,25,26
 469 410 469 410 422 455 c 0,27,28
 396 479 396 479 365.5 487 c 128,-1,29
 335 495 335 495 285 495 c 128,-1,30
 235 495 235 495 206 488.5 c 128,-1,31
 177 482 177 482 151 458.5 c 128,-1,15
 125 435 125 435 114 386.5 c 128,-1,16
EndSplineSet
Substitution2: "'smcp' Lowercase to Small Capitals lookup 1 subtable" ocircumflex.smcp
EndChar

StartChar: otilde
Encoding: 245 245 182
Width: 571
GlyphClass: 2
Flags: W
LayerCount: 2
Fore
SplineSet
294.5 659.5 m 128,-1,1
 336 630 336 630 347 630 c 128,-1,2
 358 630 358 630 367.5 632.5 c 128,-1,3
 377 635 377 635 384 638 c 128,-1,4
 391 641 391 641 401.5 647 c 128,-1,5
 412 653 412 653 416 656 c 0,6,7
 437 673 437 673 446 677 c 1,8,-1
 458 658 l 1,9,10
 434 636 434 636 423 627 c 128,-1,11
 412 618 412 618 390 607 c 128,-1,12
 368 596 368 596 346 596.5 c 128,-1,13
 324 597 324 597 284.5 626.5 c 128,-1,14
 245 656 245 656 230 656 c 128,-1,15
 215 656 215 656 201 651.5 c 128,-1,16
 187 647 187 647 179 642.5 c 128,-1,17
 171 638 171 638 154.5 627 c 128,-1,18
 138 616 138 616 130 611 c 1,19,-1
 120 630 l 1,20,21
 144 650 144 650 157 660 c 0,22,23
 194 690 194 690 230 690 c 1,24,0
 253 689 253 689 294.5 659.5 c 128,-1,1
108.5 53.5 m 128,-1,26
 62 112 62 112 62 265 c 128,-1,27
 62 418 62 418 111 477 c 128,-1,28
 160 536 160 536 286.5 536 c 128,-1,29
 413 536 413 536 461.5 472.5 c 128,-1,30
 510 409 510 409 510 260 c 128,-1,31
 510 111 510 111 461.5 53 c 128,-1,32
 413 -5 413 -5 284 -5 c 128,-1,25
 155 -5 155 -5 108.5 53.5 c 128,-1,26
114 386.5 m 128,-1,34
 103 338 103 338 103 261.5 c 128,-1,35
 103 185 103 185 114 139.5 c 128,-1,36
 125 94 125 94 150.5 72 c 128,-1,37
 176 50 176 50 205.5 43 c 128,-1,38
 235 36 235 36 285 36 c 128,-1,39
 335 36 335 36 365.5 43.5 c 128,-1,40
 396 51 396 51 422 74 c 0,41,42
 469 117 469 117 469 258 c 0,43,44
 469 410 469 410 422 455 c 0,45,46
 396 479 396 479 365.5 487 c 128,-1,47
 335 495 335 495 285 495 c 128,-1,48
 235 495 235 495 206 488.5 c 128,-1,49
 177 482 177 482 151 458.5 c 128,-1,33
 125 435 125 435 114 386.5 c 128,-1,34
EndSplineSet
Substitution2: "'smcp' Lowercase to Small Capitals lookup 1 subtable" otilde.smcp
EndChar

StartChar: odieresis
Encoding: 246 246 183
Width: 571
GlyphClass: 2
Flags: W
LayerCount: 2
Fore
SplineSet
130 625 m 128,-1,1
 130 637 130 637 138 645 c 128,-1,2
 146 653 146 653 158 653 c 128,-1,3
 170 653 170 653 178.5 645 c 128,-1,4
 187 637 187 637 187 625 c 128,-1,5
 187 613 187 613 178.5 604.5 c 128,-1,6
 170 596 170 596 158 596 c 128,-1,7
 146 596 146 596 138 604.5 c 128,-1,0
 130 613 130 613 130 625 c 128,-1,1
384 625 m 128,-1,9
 384 637 384 637 392.5 645 c 128,-1,10
 401 653 401 653 413 653 c 128,-1,11
 425 653 425 653 433.5 645 c 128,-1,12
 442 637 442 637 442 625 c 128,-1,13
 442 613 442 613 433.5 604.5 c 128,-1,14
 425 596 425 596 413 596 c 128,-1,15
 401 596 401 596 392.5 604.5 c 128,-1,8
 384 613 384 613 384 625 c 128,-1,9
108.5 53.5 m 128,-1,17
 62 112 62 112 62 265 c 128,-1,18
 62 418 62 418 111 477 c 128,-1,19
 160 536 160 536 286.5 536 c 128,-1,20
 413 536 413 536 461.5 472.5 c 128,-1,21
 510 409 510 409 510 260 c 128,-1,22
 510 111 510 111 461.5 53 c 128,-1,23
 413 -5 413 -5 284 -5 c 128,-1,16
 155 -5 155 -5 108.5 53.5 c 128,-1,17
114 386.5 m 128,-1,25
 103 338 103 338 103 261.5 c 128,-1,26
 103 185 103 185 114 139.5 c 128,-1,27
 125 94 125 94 150.5 72 c 128,-1,28
 176 50 176 50 205.5 43 c 128,-1,29
 235 36 235 36 285 36 c 128,-1,30
 335 36 335 36 365.5 43.5 c 128,-1,31
 396 51 396 51 422 74 c 0,32,33
 469 117 469 117 469 258 c 0,34,35
 469 410 469 410 422 455 c 0,36,37
 396 479 396 479 365.5 487 c 128,-1,38
 335 495 335 495 285 495 c 128,-1,39
 235 495 235 495 206 488.5 c 128,-1,40
 177 482 177 482 151 458.5 c 128,-1,24
 125 435 125 435 114 386.5 c 128,-1,25
EndSplineSet
Substitution2: "'smcp' Lowercase to Small Capitals lookup 1 subtable" odieresis.smcp
EndChar

StartChar: divide
Encoding: 247 247 184
Width: 539
GlyphClass: 2
Flags: W
LayerCount: 2
Fore
SplineSet
62 332 m 1,0,-1
 62 374 l 1,1,-1
 478 374 l 1,2,-1
 478 332 l 1,3,-1
 62 332 l 1,0,-1
245 164 m 2,4,-1
 245 210 l 2,5,6
 245 226 245 226 261 226 c 2,7,-1
 285 226 l 2,8,9
 301 226 301 226 301 210 c 2,10,-1
 301 164 l 2,11,12
 301 148 301 148 285 148 c 2,13,-1
 261 148 l 2,14,15
 245 148 245 148 245 164 c 2,4,-1
245 487 m 2,16,-1
 245 533 l 2,17,18
 245 550 245 550 261 550 c 2,19,-1
 285 550 l 2,20,21
 301 550 301 550 301 533 c 2,22,-1
 301 487 l 2,23,24
 301 471 301 471 285 471 c 2,25,-1
 261 471 l 2,26,27
 245 471 245 471 245 487 c 2,16,-1
EndSplineSet
EndChar

StartChar: oslash
Encoding: 248 248 185
Width: 571
GlyphClass: 2
Flags: W
LayerCount: 2
Fore
SplineSet
108 54 m 1,0,1
 62 109 62 109 62 263.5 c 128,-1,2
 62 418 62 418 111 477 c 128,-1,3
 160 536 160 536 285 536 c 0,4,5
 387 536 387 536 436 497 c 1,6,-1
 461 531 l 1,7,-1
 495 531 l 1,8,-1
 456 479 l 1,9,10
 510 418 510 418 510 264.5 c 128,-1,11
 510 111 510 111 461.5 53 c 128,-1,12
 413 -5 413 -5 295.5 -5 c 128,-1,13
 178 -5 178 -5 127 36 c 1,14,-1
 101 0 l 1,15,-1
 69 0 l 1,16,-1
 108 54 l 1,0,1
135 91 m 1,17,-1
 411 464 l 1,18,19
 374 495 374 495 285 495 c 0,20,21
 245 495 245 495 220.5 491 c 128,-1,22
 196 487 196 487 171 474 c 128,-1,23
 146 461 146 461 133 436 c 0,24,25
 103 377 103 377 103 258 c 128,-1,26
 103 139 103 139 135 91 c 1,17,-1
285 36 m 0,27,28
 335 36 335 36 365.5 43.5 c 128,-1,29
 396 51 396 51 422 74 c 0,30,31
 469 115 469 115 469 253.5 c 128,-1,32
 469 392 469 392 431 445 c 1,33,-1
 153 70 l 1,34,35
 191 36 191 36 285 36 c 0,27,28
EndSplineSet
Substitution2: "'smcp' Lowercase to Small Capitals lookup 1 subtable" oslash.smcp
EndChar

StartChar: ugrave
Encoding: 249 249 186
Width: 549
GlyphClass: 2
Flags: W
LayerCount: 2
Fore
SplineSet
123 729 m 1,0,-1
 172 729 l 1,1,-1
 288 596 l 1,2,-1
 256 596 l 1,3,-1
 123 729 l 1,0,-1
62 162 m 2,4,-1
 62 532 l 1,5,-1
 103 532 l 1,6,-1
 103 162 l 2,7,8
 103 105 103 105 136.5 69 c 128,-1,9
 170 33 170 33 228 33 c 128,-1,10
 286 33 286 33 329.5 46.5 c 128,-1,11
 373 60 373 60 435 92 c 1,12,-1
 435 532 l 1,13,-1
 476 532 l 1,14,-1
 476 1 l 1,15,-1
 449 1 l 1,16,-1
 435 63 l 1,17,18
 322 -8 322 -8 226 -8 c 0,19,20
 150 -8 150 -8 106 42 c 128,-1,21
 62 92 62 92 62 162 c 2,4,-1
EndSplineSet
AlternateSubs2: "'salt' Stylistic Alternatives in Latin lookup 16 subtable" ugrave.salt
Substitution2: "'smcp' Lowercase to Small Capitals lookup 1 subtable" ugrave.smcp
EndChar

StartChar: uacute
Encoding: 250 250 187
Width: 549
GlyphClass: 2
Flags: W
LayerCount: 2
Fore
SplineSet
253 596 m 1,0,-1
 369 729 l 1,1,-1
 418 729 l 1,2,-1
 285 596 l 1,3,-1
 253 596 l 1,0,-1
62 162 m 2,4,-1
 62 532 l 1,5,-1
 103 532 l 1,6,-1
 103 162 l 2,7,8
 103 105 103 105 136.5 69 c 128,-1,9
 170 33 170 33 228 33 c 128,-1,10
 286 33 286 33 329.5 46.5 c 128,-1,11
 373 60 373 60 435 92 c 1,12,-1
 435 532 l 1,13,-1
 476 532 l 1,14,-1
 476 1 l 1,15,-1
 449 1 l 1,16,-1
 435 63 l 1,17,18
 322 -8 322 -8 226 -8 c 0,19,20
 150 -8 150 -8 106 42 c 128,-1,21
 62 92 62 92 62 162 c 2,4,-1
EndSplineSet
AlternateSubs2: "'salt' Stylistic Alternatives in Latin lookup 16 subtable" uacute.salt
Substitution2: "'smcp' Lowercase to Small Capitals lookup 1 subtable" uacute.smcp
EndChar

StartChar: ucircumflex
Encoding: 251 251 188
Width: 549
GlyphClass: 2
Flags: W
LayerCount: 2
Fore
SplineSet
130 596 m 1,0,-1
 257 726 l 1,1,-1
 294 726 l 1,2,-1
 409 596 l 1,3,-1
 373 596 l 1,4,-1
 275 696 l 1,5,-1
 166 596 l 1,6,-1
 130 596 l 1,0,-1
62 162 m 2,7,-1
 62 532 l 1,8,-1
 103 532 l 1,9,-1
 103 162 l 2,10,11
 103 105 103 105 136.5 69 c 128,-1,12
 170 33 170 33 228 33 c 128,-1,13
 286 33 286 33 329.5 46.5 c 128,-1,14
 373 60 373 60 435 92 c 1,15,-1
 435 532 l 1,16,-1
 476 532 l 1,17,-1
 476 1 l 1,18,-1
 449 1 l 1,19,-1
 435 63 l 1,20,21
 322 -8 322 -8 226 -8 c 0,22,23
 150 -8 150 -8 106 42 c 128,-1,24
 62 92 62 92 62 162 c 2,7,-1
EndSplineSet
AlternateSubs2: "'salt' Stylistic Alternatives in Latin lookup 16 subtable" ucircumflex.salt
Substitution2: "'smcp' Lowercase to Small Capitals lookup 1 subtable" ucircumflex.smcp
EndChar

StartChar: udieresis
Encoding: 252 252 189
Width: 549
GlyphClass: 2
Flags: W
LayerCount: 2
Fore
SplineSet
113 625 m 128,-1,1
 113 637 113 637 121 645 c 128,-1,2
 129 653 129 653 141 653 c 128,-1,3
 153 653 153 653 161.5 645 c 128,-1,4
 170 637 170 637 170 625 c 128,-1,5
 170 613 170 613 161.5 604.5 c 128,-1,6
 153 596 153 596 141 596 c 128,-1,7
 129 596 129 596 121 604.5 c 128,-1,0
 113 613 113 613 113 625 c 128,-1,1
367 625 m 128,-1,9
 367 637 367 637 375.5 645 c 128,-1,10
 384 653 384 653 396 653 c 128,-1,11
 408 653 408 653 416.5 645 c 128,-1,12
 425 637 425 637 425 625 c 128,-1,13
 425 613 425 613 416.5 604.5 c 128,-1,14
 408 596 408 596 396 596 c 128,-1,15
 384 596 384 596 375.5 604.5 c 128,-1,8
 367 613 367 613 367 625 c 128,-1,9
62 162 m 2,16,-1
 62 532 l 1,17,-1
 103 532 l 1,18,-1
 103 162 l 2,19,20
 103 105 103 105 136.5 69 c 128,-1,21
 170 33 170 33 228 33 c 128,-1,22
 286 33 286 33 329.5 46.5 c 128,-1,23
 373 60 373 60 435 92 c 1,24,-1
 435 532 l 1,25,-1
 476 532 l 1,26,-1
 476 1 l 1,27,-1
 449 1 l 1,28,-1
 435 63 l 1,29,30
 322 -8 322 -8 226 -8 c 0,31,32
 150 -8 150 -8 106 42 c 128,-1,33
 62 92 62 92 62 162 c 2,16,-1
EndSplineSet
AlternateSubs2: "'salt' Stylistic Alternatives in Latin lookup 16 subtable" udieresis.salt
Substitution2: "'smcp' Lowercase to Small Capitals lookup 1 subtable" udieresis.smcp
EndChar

StartChar: yacute
Encoding: 253 253 190
Width: 537
GlyphClass: 2
Flags: W
LayerCount: 2
Fore
SplineSet
252 596 m 1,0,-1
 368 729 l 1,1,-1
 417 729 l 1,2,-1
 284 596 l 1,3,-1
 252 596 l 1,0,-1
26 531 m 1,4,-1
 70 531 l 1,5,-1
 212 116 l 1,6,7
 238 44 238 44 290 42 c 1,8,-1
 301 43 l 1,9,-1
 466 531 l 1,10,-1
 510 531 l 1,11,-1
 277 -168 l 1,12,-1
 221 -270 l 1,13,-1
 197 -270 l 1,14,-1
 287 0 l 1,15,16
 202 4 202 4 169 110 c 1,17,-1
 26 531 l 1,4,-1
EndSplineSet
Substitution2: "'smcp' Lowercase to Small Capitals lookup 1 subtable" yacute.smcp
EndChar

StartChar: thorn
Encoding: 254 254 191
Width: 559
GlyphClass: 2
Flags: W
LayerCount: 2
Fore
SplineSet
86 -270 m 1,0,-1
 86 782 l 1,1,-1
 127 782 l 1,2,-1
 127 471 l 1,3,4
 152 489 152 489 221 514.5 c 128,-1,5
 290 540 290 540 337.5 540 c 128,-1,6
 385 540 385 540 420.5 517 c 128,-1,7
 456 494 456 494 474 454 c 0,8,9
 510 377 510 377 510 267 c 0,10,11
 510 114 510 114 464 48 c 0,12,13
 446 23 446 23 413 6.5 c 128,-1,14
 380 -10 380 -10 338.5 -10 c 128,-1,15
 297 -10 297 -10 234 0.5 c 128,-1,16
 171 11 171 11 127 29 c 1,17,-1
 127 -270 l 1,18,-1
 86 -270 l 1,0,-1
437.5 86 m 128,-1,20
 469 141 469 141 469 262 c 128,-1,21
 469 383 469 383 433 441 c 128,-1,22
 397 499 397 499 333 498.5 c 128,-1,23
 269 498 269 498 127 443 c 1,24,-1
 127 59 l 1,25,26
 221 33 221 33 336 31 c 1,27,19
 406 31 406 31 437.5 86 c 128,-1,20
EndSplineSet
Substitution2: "'smcp' Lowercase to Small Capitals lookup 1 subtable" thorn.smcp
EndChar

StartChar: ydieresis
Encoding: 255 255 192
Width: 537
GlyphClass: 2
Flags: W
LayerCount: 2
Fore
SplineSet
112 625 m 128,-1,1
 112 637 112 637 120 645 c 128,-1,2
 128 653 128 653 140 653 c 128,-1,3
 152 653 152 653 160.5 645 c 128,-1,4
 169 637 169 637 169 625 c 128,-1,5
 169 613 169 613 160.5 604.5 c 128,-1,6
 152 596 152 596 140 596 c 128,-1,7
 128 596 128 596 120 604.5 c 128,-1,0
 112 613 112 613 112 625 c 128,-1,1
366 625 m 128,-1,9
 366 637 366 637 374.5 645 c 128,-1,10
 383 653 383 653 395 653 c 128,-1,11
 407 653 407 653 415.5 645 c 128,-1,12
 424 637 424 637 424 625 c 128,-1,13
 424 613 424 613 415.5 604.5 c 128,-1,14
 407 596 407 596 395 596 c 128,-1,15
 383 596 383 596 374.5 604.5 c 128,-1,8
 366 613 366 613 366 625 c 128,-1,9
26 531 m 1,16,-1
 70 531 l 1,17,-1
 212 116 l 1,18,19
 238 44 238 44 290 42 c 1,20,-1
 301 43 l 1,21,-1
 466 531 l 1,22,-1
 510 531 l 1,23,-1
 277 -168 l 1,24,-1
 221 -270 l 1,25,-1
 197 -270 l 1,26,-1
 287 0 l 1,27,28
 202 4 202 4 169 110 c 1,29,-1
 26 531 l 1,16,-1
EndSplineSet
Substitution2: "'smcp' Lowercase to Small Capitals lookup 1 subtable" ydieresis.smcp
EndChar

StartChar: Amacron
Encoding: 256 256 193
Width: 662
GlyphClass: 2
Flags: W
LayerCount: 2
Fore
SplineSet
219 797 m 1,0,-1
 219 828 l 1,1,-1
 484 828 l 1,2,-1
 484 797 l 1,3,-1
 219 797 l 1,0,-1
56 0 m 1,4,-1
 328 732 l 1,5,-1
 375 732 l 1,6,-1
 636 0 l 1,7,-1
 589 0 l 1,8,-1
 507 236 l 1,9,-1
 188 236 l 1,10,-1
 104 0 l 1,11,-1
 56 0 l 1,4,-1
203 277 m 1,12,-1
 492 277 l 1,13,-1
 351 678 l 1,14,-1
 203 277 l 1,12,-1
EndSplineSet
Substitution2: "'c2sc' Capitals to Small Capitals in Latin lookup 2 subtable" amacron.smcp
EndChar

StartChar: amacron
Encoding: 257 257 194
Width: 519
GlyphClass: 2
Flags: W
LayerCount: 2
Fore
SplineSet
135 601 m 1,0,-1
 135 632 l 1,1,-1
 400 632 l 1,2,-1
 400 601 l 1,3,-1
 135 601 l 1,0,-1
66 510 m 1,4,5
 185 541 185 541 308 541 c 0,6,7
 373 541 373 541 415.5 503 c 128,-1,8
 458 465 458 465 458 387 c 2,9,-1
 458 0 l 1,10,-1
 430 0 l 1,11,-1
 417 64 l 1,12,-1
 402 57 l 1,13,14
 306 14 306 14 257.5 4 c 128,-1,15
 209 -6 209 -6 182 -6 c 0,16,17
 125 -6 125 -6 87 29 c 128,-1,18
 49 64 49 64 49 126 c 2,19,-1
 49 187 l 2,20,21
 49 249 49 249 84.5 284.5 c 128,-1,22
 120 320 120 320 182 320 c 0,23,24
 300 320 300 320 358.5 320 c 128,-1,25
 417 320 417 320 417 320 c 1,26,27
 418 353 418 353 418 369.5 c 128,-1,28
 418 386 418 386 417 387 c 1,29,30
 417 501 417 501 304 502 c 0,31,32
 300 502 300 502 296 502 c 0,33,34
 215 502 215 502 66 483 c 1,35,-1
 66 510 l 1,4,5
90 131 m 2,36,37
 90 81 90 81 117 58.5 c 128,-1,38
 144 36 144 36 181 35.5 c 128,-1,39
 218 35 218 35 276.5 49 c 128,-1,40
 335 63 335 63 376 78 c 2,41,-1
 417 92 l 1,42,-1
 417 291 l 1,43,-1
 182 279 l 2,44,45
 90 275 90 275 90 185 c 2,46,-1
 90 131 l 2,36,37
EndSplineSet
AlternateSubs2: "'salt' Stylistic Alternatives in Latin lookup 16 subtable" amacron.salt
Substitution2: "'smcp' Lowercase to Small Capitals lookup 1 subtable" amacron.smcp
EndChar

StartChar: Abreve
Encoding: 258 258 195
Width: 662
GlyphClass: 2
Flags: W
LayerCount: 2
Fore
SplineSet
242 911 m 1,0,-1
 267 911 l 1,1,2
 267 873 267 873 293 847.5 c 128,-1,3
 319 822 319 822 353 822 c 0,4,5
 395 822 395 822 421 847 c 128,-1,6
 447 872 447 872 447 911 c 1,7,-1
 472 911 l 1,8,9
 472 858 472 858 436.5 827.5 c 128,-1,10
 401 797 401 797 356.5 797 c 128,-1,11
 312 797 312 797 277 828.5 c 128,-1,12
 242 860 242 860 242 911 c 1,0,-1
56 0 m 1,13,-1
 328 732 l 1,14,-1
 375 732 l 1,15,-1
 636 0 l 1,16,-1
 589 0 l 1,17,-1
 507 236 l 1,18,-1
 188 236 l 1,19,-1
 104 0 l 1,20,-1
 56 0 l 1,13,-1
203 277 m 1,21,-1
 492 277 l 1,22,-1
 351 678 l 1,23,-1
 203 277 l 1,21,-1
EndSplineSet
Substitution2: "'c2sc' Capitals to Small Capitals in Latin lookup 2 subtable" abreve.smcp
EndChar

StartChar: abreve
Encoding: 259 259 196
Width: 519
GlyphClass: 2
Flags: W
LayerCount: 2
Fore
SplineSet
156 715 m 1,0,-1
 181 715 l 1,1,2
 181 677 181 677 207 651.5 c 128,-1,3
 233 626 233 626 267 626 c 0,4,5
 309 626 309 626 335 651 c 128,-1,6
 361 676 361 676 361 715 c 1,7,-1
 386 715 l 1,8,9
 386 662 386 662 350.5 631.5 c 128,-1,10
 315 601 315 601 270.5 601 c 128,-1,11
 226 601 226 601 191 632.5 c 128,-1,12
 156 664 156 664 156 715 c 1,0,-1
66 510 m 1,13,14
 185 541 185 541 308 541 c 0,15,16
 373 541 373 541 415.5 503 c 128,-1,17
 458 465 458 465 458 387 c 2,18,-1
 458 0 l 1,19,-1
 430 0 l 1,20,-1
 417 64 l 1,21,-1
 402 57 l 1,22,23
 306 14 306 14 257.5 4 c 128,-1,24
 209 -6 209 -6 182 -6 c 0,25,26
 125 -6 125 -6 87 29 c 128,-1,27
 49 64 49 64 49 126 c 2,28,-1
 49 187 l 2,29,30
 49 249 49 249 84.5 284.5 c 128,-1,31
 120 320 120 320 182 320 c 0,32,33
 300 320 300 320 358.5 320 c 128,-1,34
 417 320 417 320 417 320 c 1,35,36
 418 353 418 353 418 369.5 c 128,-1,37
 418 386 418 386 417 387 c 1,38,39
 417 501 417 501 304 502 c 0,40,41
 300 502 300 502 296 502 c 0,42,43
 215 502 215 502 66 483 c 1,44,-1
 66 510 l 1,13,14
90 131 m 2,45,46
 90 81 90 81 117 58.5 c 128,-1,47
 144 36 144 36 181 35.5 c 128,-1,48
 218 35 218 35 276.5 49 c 128,-1,49
 335 63 335 63 376 78 c 2,50,-1
 417 92 l 1,51,-1
 417 291 l 1,52,-1
 182 279 l 2,53,54
 90 275 90 275 90 185 c 2,55,-1
 90 131 l 2,45,46
EndSplineSet
Substitution2: "'smcp' Lowercase to Small Capitals lookup 1 subtable" abreve.smcp
EndChar

StartChar: Aogonek
Encoding: 260 260 197
Width: 662
GlyphClass: 2
Flags: W
LayerCount: 2
Fore
SplineSet
624 0 m 1,0,1
 553 -37 553 -37 553 -92 c 0,2,3
 553 -108 553 -108 568 -124 c 0,4,5
 592 -151 592 -151 646 -151 c 1,6,-1
 646 -181 l 1,7,8
 636 -182 636 -182 616 -182 c 128,-1,9
 596 -182 596 -182 566.5 -166 c 128,-1,10
 537 -150 537 -150 525 -121 c 0,11,12
 520 -110 520 -110 520 -94 c 128,-1,13
 520 -78 520 -78 532 -58 c 1,14,15
 550 -23 550 -23 603 0 c 1,16,-1
 624 0 l 1,0,1
56 0 m 1,17,-1
 328 732 l 1,18,-1
 375 732 l 1,19,-1
 636 0 l 1,20,-1
 589 0 l 1,21,-1
 507 236 l 1,22,-1
 188 236 l 1,23,-1
 104 0 l 1,24,-1
 56 0 l 1,17,-1
203 277 m 1,25,-1
 492 277 l 1,26,-1
 351 678 l 1,27,-1
 203 277 l 1,25,-1
EndSplineSet
Substitution2: "'c2sc' Capitals to Small Capitals in Latin lookup 2 subtable" aogonek.smcp
EndChar

StartChar: aogonek
Encoding: 261 261 198
Width: 546
GlyphClass: 2
Flags: W
LayerCount: 2
Fore
SplineSet
468 0 m 1,0,1
 397 -37 397 -37 397 -92 c 0,2,3
 397 -108 397 -108 412 -124 c 0,4,5
 436 -151 436 -151 490 -151 c 1,6,-1
 490 -181 l 1,7,8
 480 -182 480 -182 460 -182 c 128,-1,9
 440 -182 440 -182 410.5 -166 c 128,-1,10
 381 -150 381 -150 369 -121 c 0,11,12
 364 -110 364 -110 364 -94 c 128,-1,13
 364 -78 364 -78 376 -58 c 1,14,15
 394 -23 394 -23 447 0 c 1,16,-1
 468 0 l 1,0,1
79 510 m 1,17,18
 198 541 198 541 321 541 c 0,19,20
 386 541 386 541 428.5 503 c 128,-1,21
 471 465 471 465 471 387 c 2,22,-1
 471 0 l 1,23,-1
 443 0 l 1,24,-1
 430 64 l 1,25,-1
 414 57 l 1,26,27
 319 14 319 14 270.5 4 c 128,-1,28
 222 -6 222 -6 195 -6 c 0,29,30
 138 -6 138 -6 100 29 c 128,-1,31
 62 64 62 64 62 126 c 2,32,-1
 62 187 l 2,33,34
 62 249 62 249 97.5 284.5 c 128,-1,35
 133 320 133 320 195 320 c 0,36,37
 312 320 312 320 371 320 c 128,-1,38
 430 320 430 320 430 320 c 1,39,40
 430 353 430 353 430 369.5 c 128,-1,41
 430 386 430 386 430 387 c 0,42,43
 430 501 430 501 317 502 c 0,44,45
 313 502 313 502 309 502 c 0,46,47
 228 502 228 502 79 483 c 1,48,-1
 79 510 l 1,17,18
103 131 m 2,49,50
 103 81 103 81 130 58.5 c 128,-1,51
 157 36 157 36 194 35.5 c 128,-1,52
 231 35 231 35 289.5 49 c 128,-1,53
 348 63 348 63 389 78 c 2,54,-1
 430 92 l 1,55,-1
 430 291 l 1,56,-1
 195 279 l 2,57,58
 103 275 103 275 103 185 c 2,59,-1
 103 131 l 2,49,50
EndSplineSet
AlternateSubs2: "'salt' Stylistic Alternatives in Latin lookup 16 subtable" aogonek.salt
Substitution2: "'smcp' Lowercase to Small Capitals lookup 1 subtable" aogonek.smcp
EndChar

StartChar: Cacute
Encoding: 262 262 199
Width: 572
GlyphClass: 2
Flags: W
LayerCount: 2
Fore
SplineSet
310 800 m 1,0,-1
 426 933 l 1,1,-1
 475 933 l 1,2,-1
 342 800 l 1,3,-1
 310 800 l 1,0,-1
68 368 m 0,4,5
 68 598 68 598 138 676 c 0,6,7
 196 740 196 740 311 740 c 0,8,9
 406 740 406 740 535 716 c 1,10,-1
 535 686 l 1,11,12
 519 687 519 687 506 688.5 c 128,-1,13
 493 690 493 690 475.5 691 c 128,-1,14
 458 692 458 692 437.5 693.5 c 128,-1,15
 417 695 417 695 396 696 c 0,16,17
 361 699 361 699 299 699 c 128,-1,18
 237 699 237 699 195 672 c 0,19,20
 109 615 109 615 109 366 c 0,21,22
 109 35 109 35 312 35 c 0,23,24
 405 35 405 35 502 42 c 1,25,-1
 535 45 l 1,26,-1
 535 16 l 1,27,28
 417 -6 417 -6 311 -6 c 0,29,30
 68 -6 68 -6 68 368 c 0,4,5
EndSplineSet
Substitution2: "'c2sc' Capitals to Small Capitals in Latin lookup 2 subtable" cacute.smcp
EndChar

StartChar: cacute
Encoding: 263 263 200
Width: 500
GlyphClass: 2
Flags: W
LayerCount: 2
Fore
SplineSet
255 597 m 1,0,-1
 371 730 l 1,1,-1
 420 730 l 1,2,-1
 287 597 l 1,3,-1
 255 597 l 1,0,-1
62 266 m 128,-1,5
 62 350 62 350 74 405.5 c 128,-1,6
 86 461 86 461 111 488.5 c 128,-1,7
 136 516 136 516 165 526 c 128,-1,8
 194 536 194 536 258.5 536 c 128,-1,9
 323 536 323 536 444 510 c 1,10,-1
 444 482 l 1,11,12
 325 495 325 495 263.5 495 c 128,-1,13
 202 495 202 495 180.5 487.5 c 128,-1,14
 159 480 159 480 140 456 c 0,15,16
 103 411 103 411 103 262 c 0,17,18
 103 171 103 171 120.5 120 c 128,-1,19
 138 69 138 69 165 52.5 c 128,-1,20
 192 36 192 36 234 36 c 0,21,22
 318 36 318 36 418 50 c 1,23,-1
 452 54 l 1,24,-1
 452 24 l 1,25,26
 355 -4 355 -4 236 -5 c 0,27,28
 195 -5 195 -5 166.5 5 c 128,-1,29
 138 15 138 15 112.5 42.5 c 128,-1,30
 87 70 87 70 74.5 126 c 128,-1,4
 62 182 62 182 62 266 c 128,-1,5
EndSplineSet
Substitution2: "'smcp' Lowercase to Small Capitals lookup 1 subtable" cacute.smcp
EndChar

StartChar: Ccircumflex
Encoding: 264 264 201
Width: 572
GlyphClass: 2
Flags: W
LayerCount: 2
Fore
SplineSet
193 800 m 1,0,-1
 320 930 l 1,1,-1
 357 930 l 1,2,-1
 472 800 l 1,3,-1
 436 800 l 1,4,-1
 338 900 l 1,5,-1
 229 800 l 1,6,-1
 193 800 l 1,0,-1
68 368 m 0,7,8
 68 598 68 598 138 676 c 0,9,10
 196 740 196 740 311 740 c 0,11,12
 406 740 406 740 535 716 c 1,13,-1
 535 686 l 1,14,15
 519 687 519 687 506 688.5 c 128,-1,16
 493 690 493 690 475.5 691 c 128,-1,17
 458 692 458 692 437.5 693.5 c 128,-1,18
 417 695 417 695 396 696 c 0,19,20
 361 699 361 699 299 699 c 128,-1,21
 237 699 237 699 195 672 c 0,22,23
 109 615 109 615 109 366 c 0,24,25
 109 35 109 35 312 35 c 0,26,27
 405 35 405 35 502 42 c 1,28,-1
 535 45 l 1,29,-1
 535 16 l 1,30,31
 417 -6 417 -6 311 -6 c 0,32,33
 68 -6 68 -6 68 368 c 0,7,8
EndSplineSet
Substitution2: "'c2sc' Capitals to Small Capitals in Latin lookup 2 subtable" ccircumflex.smcp
EndChar

StartChar: ccircumflex
Encoding: 265 265 202
Width: 500
GlyphClass: 2
Flags: W
LayerCount: 2
Fore
SplineSet
134 597 m 1,0,-1
 261 727 l 1,1,-1
 298 727 l 1,2,-1
 413 597 l 1,3,-1
 377 597 l 1,4,-1
 279 697 l 1,5,-1
 170 597 l 1,6,-1
 134 597 l 1,0,-1
62 266 m 128,-1,8
 62 350 62 350 74 405.5 c 128,-1,9
 86 461 86 461 111 488.5 c 128,-1,10
 136 516 136 516 165 526 c 128,-1,11
 194 536 194 536 258.5 536 c 128,-1,12
 323 536 323 536 444 510 c 1,13,-1
 444 482 l 1,14,15
 325 495 325 495 263.5 495 c 128,-1,16
 202 495 202 495 180.5 487.5 c 128,-1,17
 159 480 159 480 140 456 c 0,18,19
 103 411 103 411 103 262 c 0,20,21
 103 171 103 171 120.5 120 c 128,-1,22
 138 69 138 69 165 52.5 c 128,-1,23
 192 36 192 36 234 36 c 0,24,25
 318 36 318 36 418 50 c 1,26,-1
 452 54 l 1,27,-1
 452 24 l 1,28,29
 355 -4 355 -4 236 -5 c 0,30,31
 195 -5 195 -5 166.5 5 c 128,-1,32
 138 15 138 15 112.5 42.5 c 128,-1,33
 87 70 87 70 74.5 126 c 128,-1,7
 62 182 62 182 62 266 c 128,-1,8
EndSplineSet
Substitution2: "'smcp' Lowercase to Small Capitals lookup 1 subtable" ccircumflex.smcp
EndChar

StartChar: Cdotaccent
Encoding: 266 266 203
Width: 572
GlyphClass: 2
Flags: W
LayerCount: 2
Fore
SplineSet
316 817 m 2,0,-1
 316 876 l 2,1,2
 316 892 316 892 332 892 c 2,3,-1
 356 892 l 2,4,5
 372 892 372 892 372 876 c 2,6,-1
 372 817 l 2,7,8
 372 801 372 801 356 801 c 2,9,-1
 332 801 l 2,10,11
 316 801 316 801 316 817 c 2,0,-1
68 368 m 0,12,13
 68 598 68 598 138 676 c 0,14,15
 196 740 196 740 311 740 c 0,16,17
 406 740 406 740 535 716 c 1,18,-1
 535 686 l 1,19,20
 519 687 519 687 506 688.5 c 128,-1,21
 493 690 493 690 475.5 691 c 128,-1,22
 458 692 458 692 437.5 693.5 c 128,-1,23
 417 695 417 695 396 696 c 0,24,25
 361 699 361 699 299 699 c 128,-1,26
 237 699 237 699 195 672 c 0,27,28
 109 615 109 615 109 366 c 0,29,30
 109 35 109 35 312 35 c 0,31,32
 405 35 405 35 502 42 c 1,33,-1
 535 45 l 1,34,-1
 535 16 l 1,35,36
 417 -6 417 -6 311 -6 c 0,37,38
 68 -6 68 -6 68 368 c 0,12,13
EndSplineSet
Substitution2: "'c2sc' Capitals to Small Capitals in Latin lookup 2 subtable" cdotaccent.smcp
EndChar

StartChar: cdotaccent
Encoding: 267 267 204
Width: 500
GlyphClass: 2
Flags: W
LayerCount: 2
Fore
SplineSet
254 614 m 2,0,-1
 254 673 l 2,1,2
 254 689 254 689 270 689 c 2,3,-1
 294 689 l 2,4,5
 310 689 310 689 310 673 c 2,6,-1
 310 614 l 2,7,8
 310 598 310 598 294 598 c 2,9,-1
 270 598 l 2,10,11
 254 598 254 598 254 614 c 2,0,-1
62 266 m 128,-1,13
 62 350 62 350 74 405.5 c 128,-1,14
 86 461 86 461 111 488.5 c 128,-1,15
 136 516 136 516 165 526 c 128,-1,16
 194 536 194 536 258.5 536 c 128,-1,17
 323 536 323 536 444 510 c 1,18,-1
 444 482 l 1,19,20
 325 495 325 495 263.5 495 c 128,-1,21
 202 495 202 495 180.5 487.5 c 128,-1,22
 159 480 159 480 140 456 c 0,23,24
 103 411 103 411 103 262 c 0,25,26
 103 171 103 171 120.5 120 c 128,-1,27
 138 69 138 69 165 52.5 c 128,-1,28
 192 36 192 36 234 36 c 0,29,30
 318 36 318 36 418 50 c 1,31,-1
 452 54 l 1,32,-1
 452 24 l 1,33,34
 355 -4 355 -4 236 -5 c 0,35,36
 195 -5 195 -5 166.5 5 c 128,-1,37
 138 15 138 15 112.5 42.5 c 128,-1,38
 87 70 87 70 74.5 126 c 128,-1,12
 62 182 62 182 62 266 c 128,-1,13
EndSplineSet
Substitution2: "'smcp' Lowercase to Small Capitals lookup 1 subtable" cdotaccent.smcp
EndChar

StartChar: Ccaron
Encoding: 268 268 205
Width: 572
GlyphClass: 2
Flags: W
LayerCount: 2
Fore
SplineSet
198 930 m 1,0,-1
 233 930 l 1,1,-1
 335 830 l 1,2,-1
 441 930 l 1,3,-1
 477 930 l 1,4,-1
 354 800 l 1,5,-1
 316 800 l 1,6,-1
 198 930 l 1,0,-1
68 368 m 0,7,8
 68 598 68 598 138 676 c 0,9,10
 196 740 196 740 311 740 c 0,11,12
 406 740 406 740 535 716 c 1,13,-1
 535 686 l 1,14,15
 519 687 519 687 506 688.5 c 128,-1,16
 493 690 493 690 475.5 691 c 128,-1,17
 458 692 458 692 437.5 693.5 c 128,-1,18
 417 695 417 695 396 696 c 0,19,20
 361 699 361 699 299 699 c 128,-1,21
 237 699 237 699 195 672 c 0,22,23
 109 615 109 615 109 366 c 0,24,25
 109 35 109 35 312 35 c 0,26,27
 405 35 405 35 502 42 c 1,28,-1
 535 45 l 1,29,-1
 535 16 l 1,30,31
 417 -6 417 -6 311 -6 c 0,32,33
 68 -6 68 -6 68 368 c 0,7,8
EndSplineSet
Substitution2: "'c2sc' Capitals to Small Capitals in Latin lookup 2 subtable" ccaron.smcp
EndChar

StartChar: ccaron
Encoding: 269 269 206
Width: 500
GlyphClass: 2
Flags: W
LayerCount: 2
Fore
SplineSet
140 727 m 1,0,-1
 175 727 l 1,1,-1
 277 627 l 1,2,-1
 383 727 l 1,3,-1
 419 727 l 1,4,-1
 296 597 l 1,5,-1
 258 597 l 1,6,-1
 140 727 l 1,0,-1
62 266 m 128,-1,8
 62 350 62 350 74 405.5 c 128,-1,9
 86 461 86 461 111 488.5 c 128,-1,10
 136 516 136 516 165 526 c 128,-1,11
 194 536 194 536 258.5 536 c 128,-1,12
 323 536 323 536 444 510 c 1,13,-1
 444 482 l 1,14,15
 325 495 325 495 263.5 495 c 128,-1,16
 202 495 202 495 180.5 487.5 c 128,-1,17
 159 480 159 480 140 456 c 0,18,19
 103 411 103 411 103 262 c 0,20,21
 103 171 103 171 120.5 120 c 128,-1,22
 138 69 138 69 165 52.5 c 128,-1,23
 192 36 192 36 234 36 c 0,24,25
 318 36 318 36 418 50 c 1,26,-1
 452 54 l 1,27,-1
 452 24 l 1,28,29
 355 -4 355 -4 236 -5 c 0,30,31
 195 -5 195 -5 166.5 5 c 128,-1,32
 138 15 138 15 112.5 42.5 c 128,-1,33
 87 70 87 70 74.5 126 c 128,-1,7
 62 182 62 182 62 266 c 128,-1,8
EndSplineSet
Substitution2: "'smcp' Lowercase to Small Capitals lookup 1 subtable" ccaron.smcp
EndChar

StartChar: Dcaron
Encoding: 270 270 207
Width: 666
GlyphClass: 2
Flags: W
LayerCount: 2
Fore
SplineSet
204 922 m 1,0,-1
 239 922 l 1,1,-1
 341 822 l 1,2,-1
 447 922 l 1,3,-1
 483 922 l 1,4,-1
 360 792 l 1,5,-1
 322 792 l 1,6,-1
 204 922 l 1,0,-1
98 0 m 1,7,-1
 98 732 l 1,8,-1
 358 732 l 2,9,10
 423 732 423 732 471.5 707.5 c 128,-1,11
 520 683 520 683 547 646 c 128,-1,12
 574 609 574 609 590 557 c 0,13,14
 617 473 617 473 617 385 c 128,-1,15
 617 297 617 297 602.5 235.5 c 128,-1,16
 588 174 588 174 558.5 120 c 128,-1,17
 529 66 529 66 477 33 c 128,-1,18
 425 0 425 0 358 0 c 2,19,-1
 98 0 l 1,7,-1
139 42 m 1,20,-1
 358 42 l 2,21,22
 431 42 431 42 482 92 c 0,23,24
 576 184 576 184 576 364 c 0,25,26
 576 691 576 691 358 691 c 2,27,-1
 139 691 l 1,28,-1
 139 42 l 1,20,-1
EndSplineSet
Substitution2: "'c2sc' Capitals to Small Capitals in Latin lookup 2 subtable" dcaron.smcp
EndChar

StartChar: dcaron
Encoding: 271 271 208
Width: 552
GlyphClass: 2
Flags: W
LayerCount: 2
Fore
SplineSet
62 263 m 0,0,1
 62 539 62 539 243 539 c 0,2,3
 280 539 280 539 337.5 528 c 128,-1,4
 395 517 395 517 440 499 c 1,5,-1
 440 785 l 1,6,-1
 479 785 l 1,7,-1
 479 0 l 1,8,-1
 452 0 l 1,9,-1
 439 59 l 1,10,11
 416 40 416 40 353 17 c 128,-1,12
 290 -6 290 -6 240.5 -6 c 128,-1,13
 191 -6 191 -6 154 18 c 128,-1,14
 117 42 117 42 98 84 c 0,15,16
 62 162 62 162 62 263 c 0,0,1
140 447.5 m 128,-1,18
 103 397 103 397 103 271.5 c 128,-1,19
 103 146 103 146 141.5 90.5 c 128,-1,20
 180 35 180 35 243 35 c 0,21,22
 329 35 329 35 439 87 c 1,23,-1
 439 469 l 1,24,25
 328 498 328 498 243 498 c 0,26,17
 177 498 177 498 140 447.5 c 128,-1,18
537 737 m 1,27,-1
 563 781 l 1,28,-1
 579 759 l 1,29,-1
 575 669 l 1,30,-1
 553 580 l 1,31,-1
 542 626 l 1,32,-1
 537 737 l 1,27,-1
EndSplineSet
AlternateSubs2: "'salt' Stylistic Alternatives in Latin lookup 16 subtable" dcaron.salt
Substitution2: "'smcp' Lowercase to Small Capitals lookup 1 subtable" dcaron.smcp
EndChar

StartChar: Dcroat
Encoding: 272 272 209
Width: 666
GlyphClass: 2
Flags: W
LayerCount: 2
Fore
SplineSet
33 359 m 1,0,-1
 33 387 l 1,1,-1
 98 387 l 1,2,-1
 98 732 l 1,3,-1
 352 732 l 2,4,5
 417 732 417 732 465.5 707.5 c 128,-1,6
 514 683 514 683 541 646 c 128,-1,7
 568 609 568 609 584 557 c 0,8,9
 611 473 611 473 611 385 c 128,-1,10
 611 297 611 297 596.5 235.5 c 128,-1,11
 582 174 582 174 552.5 120 c 128,-1,12
 523 66 523 66 471 33 c 128,-1,13
 419 0 419 0 352 0 c 2,14,-1
 98 0 l 1,15,-1
 98 359 l 1,16,-1
 33 359 l 1,0,-1
139 42 m 1,17,-1
 352 42 l 2,18,19
 408 42 408 42 451 71 c 128,-1,20
 494 100 494 100 519 148 c 0,21,22
 569 242 569 242 569 364 c 0,23,24
 569 529 569 529 512.5 609 c 128,-1,25
 456 689 456 689 352 689 c 2,26,-1
 139 689 l 1,27,-1
 139 387 l 1,28,-1
 292 387 l 1,29,-1
 292 359 l 1,30,-1
 139 359 l 1,31,-1
 139 42 l 1,17,-1
EndSplineSet
Substitution2: "'c2sc' Capitals to Small Capitals in Latin lookup 2 subtable" dcroat.smcp
EndChar

StartChar: dcroat
Encoding: 273 273 210
Width: 552
GlyphClass: 2
Flags: W
LayerCount: 2
Fore
SplineSet
62 263 m 0,0,1
 62 539 62 539 243 539 c 0,2,3
 280 539 280 539 337.5 528 c 128,-1,4
 395 517 395 517 440 499 c 1,5,-1
 440 632 l 1,6,-1
 312 632 l 1,7,-1
 312 660 l 1,8,-1
 440 660 l 1,9,-1
 440 785 l 1,10,-1
 479 785 l 1,11,-1
 479 660 l 1,12,-1
 559 660 l 1,13,-1
 559 632 l 1,14,-1
 479 632 l 1,15,-1
 479 0 l 1,16,-1
 453 0 l 1,17,-1
 439 59 l 1,18,19
 416 40 416 40 353 17 c 128,-1,20
 290 -6 290 -6 240.5 -6 c 128,-1,21
 191 -6 191 -6 154 18 c 128,-1,22
 117 42 117 42 98 84 c 0,23,24
 62 162 62 162 62 263 c 0,0,1
140.5 447 m 128,-1,26
 103 396 103 396 103 272.5 c 128,-1,27
 103 149 103 149 142 92 c 128,-1,28
 181 35 181 35 243 35 c 0,29,30
 329 35 329 35 439 87 c 1,31,-1
 439 469 l 1,32,33
 328 498 328 498 243 498 c 0,34,25
 178 498 178 498 140.5 447 c 128,-1,26
EndSplineSet
AlternateSubs2: "'salt' Stylistic Alternatives in Latin lookup 16 subtable" dcroat.salt
Substitution2: "'smcp' Lowercase to Small Capitals lookup 1 subtable" dcroat.smcp
EndChar

StartChar: Emacron
Encoding: 274 274 211
Width: 576
GlyphClass: 2
Flags: W
LayerCount: 2
Fore
SplineSet
196 795 m 1,0,-1
 196 826 l 1,1,-1
 461 826 l 1,2,-1
 461 795 l 1,3,-1
 196 795 l 1,0,-1
98 123 m 2,4,-1
 98 602 l 2,5,6
 98 671 98 671 133 701.5 c 128,-1,7
 168 732 168 732 218 732 c 0,8,9
 221 732 221 732 224 732 c 2,10,-1
 528 720 l 1,11,-1
 528 691 l 1,12,-1
 224 691 l 2,13,14
 139 691 139 691 139 602 c 2,15,-1
 139 384 l 1,16,-1
 488 377 l 1,17,-1
 488 348 l 1,18,-1
 139 341 l 1,19,-1
 139 123 l 2,20,21
 139 66 139 66 170 50 c 0,22,23
 195 38 195 38 234 38 c 2,24,-1
 528 38 l 1,25,-1
 528 9 l 1,26,-1
 234 -3 l 2,27,28
 228 -3 228 -3 215 -3 c 128,-1,29
 202 -3 202 -3 182.5 0.5 c 128,-1,30
 163 4 163 4 142 16 c 0,31,32
 98 41 98 41 98 123 c 2,4,-1
EndSplineSet
Substitution2: "'c2sc' Capitals to Small Capitals in Latin lookup 2 subtable" emacron.smcp
EndChar

StartChar: emacron
Encoding: 275 275 212
Width: 525
GlyphClass: 2
Flags: W
LayerCount: 2
Fore
SplineSet
139 596 m 1,0,-1
 139 627 l 1,1,-1
 404 627 l 1,2,-1
 404 596 l 1,3,-1
 139 596 l 1,0,-1
62 268 m 0,4,5
 62 356 62 356 73 409 c 128,-1,6
 84 462 84 462 111.5 490 c 128,-1,7
 139 518 139 518 175 526.5 c 128,-1,8
 211 535 211 535 260 535 c 128,-1,9
 309 535 309 535 331.5 533 c 128,-1,10
 354 531 354 531 380 525 c 128,-1,11
 406 519 406 519 421.5 506.5 c 128,-1,12
 437 494 437 494 450 474 c 0,13,14
 476 436 476 436 476 347 c 0,15,16
 476 290 476 290 442.5 266 c 128,-1,17
 409 242 409 242 340 242 c 2,18,-1
 103 242 l 1,19,20
 103 157 103 157 120 110.5 c 128,-1,21
 137 64 137 64 163.5 50 c 128,-1,22
 190 36 190 36 236 36 c 0,23,24
 350 36 350 36 466 53 c 1,25,-1
 466 23 l 1,26,27
 368 -5 368 -5 252 -5 c 0,28,29
 244 -5 244 -5 236 -5 c 0,30,31
 136 -4 136 -4 99 55.5 c 128,-1,32
 62 115 62 115 62 268 c 0,4,5
103 282 m 1,33,-1
 340 282 l 2,34,35
 386 282 386 282 410.5 295 c 128,-1,36
 435 308 435 308 435 352.5 c 128,-1,37
 435 397 435 397 427 426.5 c 128,-1,38
 419 456 419 456 397 471 c 128,-1,39
 375 486 375 486 348.5 490 c 128,-1,40
 322 494 322 494 271 494 c 128,-1,41
 220 494 220 494 191.5 488 c 128,-1,42
 163 482 163 482 140.5 460 c 128,-1,43
 118 438 118 438 110.5 396.5 c 128,-1,44
 103 355 103 355 103 282 c 1,33,-1
EndSplineSet
Substitution2: "'smcp' Lowercase to Small Capitals lookup 1 subtable" emacron.smcp
EndChar

